M48
; DRILL file {KiCad (5.1.10-1-10_14)} date Tuesday, June 08, 2021 at 08:51:40 PM
; FORMAT={-:-/ absolute / metric / decimal}
; #@! TF.CreationDate,2021-06-08T20:51:40+08:00
; #@! TF.GenerationSoftware,Kicad,Pcbnew,(5.1.10-1-10_14)
; #@! TF.FileFunction,Plated,1,2,PTH
FMAT,2
METRIC
T1C0.400
T2C1.000
T3C3.250
%
G90
G05
T1
X126.525Y-104.625
X128.7Y-88.0
X128.825Y-105.325
X129.3Y-82.295
X134.6Y-100.6
X135.7Y-87.3
X136.1Y-96.2
X138.325Y-104.675
X138.6Y-103.0
X139.425Y-101.475
X149.65Y-106.05
X150.5Y-98.2
X151.1Y-89.8
T2
X126.4Y-85.0
X126.4Y-87.54
X126.4Y-90.08
X126.4Y-92.62
X126.4Y-95.16
X126.4Y-97.7
X126.4Y-100.24
T3
X101.8Y-81.9
X101.8Y-106.3
X154.1Y-81.8
X154.1Y-106.2
T0
M30
