%TF.GenerationSoftware,KiCad,Pcbnew,(5.1.10-1-10_14)*%
%TF.CreationDate,2021-06-08T20:51:40+08:00*%
%TF.ProjectId,network,6e657477-6f72-46b2-9e6b-696361645f70,rev?*%
%TF.SameCoordinates,Original*%
%TF.FileFunction,Copper,L1,Top*%
%TF.FilePolarity,Positive*%
%FSLAX46Y46*%
G04 Gerber Fmt 4.6, Leading zero omitted, Abs format (unit mm)*
G04 Created by KiCad (PCBNEW (5.1.10-1-10_14)) date 2021-06-08 20:51:40*
%MOMM*%
%LPD*%
G01*
G04 APERTURE LIST*
%TA.AperFunction,SMDPad,CuDef*%
%ADD10R,1.250000X2.500000*%
%TD*%
%TA.AperFunction,ComponentPad*%
%ADD11O,1.700000X1.700000*%
%TD*%
%TA.AperFunction,ComponentPad*%
%ADD12R,1.700000X1.700000*%
%TD*%
%TA.AperFunction,SMDPad,CuDef*%
%ADD13R,0.650000X1.560000*%
%TD*%
%TA.AperFunction,SMDPad,CuDef*%
%ADD14R,2.700000X3.600000*%
%TD*%
%TA.AperFunction,SMDPad,CuDef*%
%ADD15R,1.500000X0.650000*%
%TD*%
%TA.AperFunction,ViaPad*%
%ADD16C,3.300000*%
%TD*%
%TA.AperFunction,ViaPad*%
%ADD17C,0.800000*%
%TD*%
%TA.AperFunction,Conductor*%
%ADD18C,0.250000*%
%TD*%
%TA.AperFunction,Conductor*%
%ADD19C,0.500000*%
%TD*%
%TA.AperFunction,Conductor*%
%ADD20C,0.254000*%
%TD*%
%TA.AperFunction,Conductor*%
%ADD21C,0.350000*%
%TD*%
%ADD22C,0.350000*%
G04 APERTURE END LIST*
D10*
%TO.P,SW1,3*%
%TO.N,N/C*%
X118000000Y-103050000D03*
%TO.P,SW1,2*%
%TO.N,/BAT+*%
X115500000Y-103050000D03*
%TO.P,SW1,1*%
%TO.N,+5V*%
X113000000Y-103050000D03*
%TD*%
%TO.P,J5,MP*%
%TO.N,N/C*%
%TA.AperFunction,SMDPad,CuDef*%
G36*
G01*
X100750000Y-101800000D02*
X103650000Y-101800000D01*
G75*
G02*
X103900000Y-102050000I0J-250000D01*
G01*
X103900000Y-103050000D01*
G75*
G02*
X103650000Y-103300000I-250000J0D01*
G01*
X100750000Y-103300000D01*
G75*
G02*
X100500000Y-103050000I0J250000D01*
G01*
X100500000Y-102050000D01*
G75*
G02*
X100750000Y-101800000I250000J0D01*
G01*
G37*
%TD.AperFunction*%
%TA.AperFunction,SMDPad,CuDef*%
G36*
G01*
X100750000Y-85100000D02*
X103650000Y-85100000D01*
G75*
G02*
X103900000Y-85350000I0J-250000D01*
G01*
X103900000Y-86350000D01*
G75*
G02*
X103650000Y-86600000I-250000J0D01*
G01*
X100750000Y-86600000D01*
G75*
G02*
X100500000Y-86350000I0J250000D01*
G01*
X100500000Y-85350000D01*
G75*
G02*
X100750000Y-85100000I250000J0D01*
G01*
G37*
%TD.AperFunction*%
%TO.P,J5,7*%
%TO.N,+5V*%
%TA.AperFunction,SMDPad,CuDef*%
G36*
G01*
X106450000Y-99700000D02*
X109450000Y-99700000D01*
G75*
G02*
X109700000Y-99950000I0J-250000D01*
G01*
X109700000Y-100450000D01*
G75*
G02*
X109450000Y-100700000I-250000J0D01*
G01*
X106450000Y-100700000D01*
G75*
G02*
X106200000Y-100450000I0J250000D01*
G01*
X106200000Y-99950000D01*
G75*
G02*
X106450000Y-99700000I250000J0D01*
G01*
G37*
%TD.AperFunction*%
%TO.P,J5,6*%
%TO.N,/IO35*%
%TA.AperFunction,SMDPad,CuDef*%
G36*
G01*
X106450000Y-97700000D02*
X109450000Y-97700000D01*
G75*
G02*
X109700000Y-97950000I0J-250000D01*
G01*
X109700000Y-98450000D01*
G75*
G02*
X109450000Y-98700000I-250000J0D01*
G01*
X106450000Y-98700000D01*
G75*
G02*
X106200000Y-98450000I0J250000D01*
G01*
X106200000Y-97950000D01*
G75*
G02*
X106450000Y-97700000I250000J0D01*
G01*
G37*
%TD.AperFunction*%
%TO.P,J5,5*%
%TO.N,/IO36*%
%TA.AperFunction,SMDPad,CuDef*%
G36*
G01*
X106450000Y-95700000D02*
X109450000Y-95700000D01*
G75*
G02*
X109700000Y-95950000I0J-250000D01*
G01*
X109700000Y-96450000D01*
G75*
G02*
X109450000Y-96700000I-250000J0D01*
G01*
X106450000Y-96700000D01*
G75*
G02*
X106200000Y-96450000I0J250000D01*
G01*
X106200000Y-95950000D01*
G75*
G02*
X106450000Y-95700000I250000J0D01*
G01*
G37*
%TD.AperFunction*%
%TO.P,J5,4*%
%TO.N,/IO37*%
%TA.AperFunction,SMDPad,CuDef*%
G36*
G01*
X106450000Y-93700000D02*
X109450000Y-93700000D01*
G75*
G02*
X109700000Y-93950000I0J-250000D01*
G01*
X109700000Y-94450000D01*
G75*
G02*
X109450000Y-94700000I-250000J0D01*
G01*
X106450000Y-94700000D01*
G75*
G02*
X106200000Y-94450000I0J250000D01*
G01*
X106200000Y-93950000D01*
G75*
G02*
X106450000Y-93700000I250000J0D01*
G01*
G37*
%TD.AperFunction*%
%TO.P,J5,3*%
%TO.N,GND*%
%TA.AperFunction,SMDPad,CuDef*%
G36*
G01*
X106450000Y-91700000D02*
X109450000Y-91700000D01*
G75*
G02*
X109700000Y-91950000I0J-250000D01*
G01*
X109700000Y-92450000D01*
G75*
G02*
X109450000Y-92700000I-250000J0D01*
G01*
X106450000Y-92700000D01*
G75*
G02*
X106200000Y-92450000I0J250000D01*
G01*
X106200000Y-91950000D01*
G75*
G02*
X106450000Y-91700000I250000J0D01*
G01*
G37*
%TD.AperFunction*%
%TO.P,J5,2*%
%TO.N,/IO38*%
%TA.AperFunction,SMDPad,CuDef*%
G36*
G01*
X106450000Y-89700000D02*
X109450000Y-89700000D01*
G75*
G02*
X109700000Y-89950000I0J-250000D01*
G01*
X109700000Y-90450000D01*
G75*
G02*
X109450000Y-90700000I-250000J0D01*
G01*
X106450000Y-90700000D01*
G75*
G02*
X106200000Y-90450000I0J250000D01*
G01*
X106200000Y-89950000D01*
G75*
G02*
X106450000Y-89700000I250000J0D01*
G01*
G37*
%TD.AperFunction*%
%TO.P,J5,1*%
%TO.N,/IO39*%
%TA.AperFunction,SMDPad,CuDef*%
G36*
G01*
X106450000Y-87700000D02*
X109450000Y-87700000D01*
G75*
G02*
X109700000Y-87950000I0J-250000D01*
G01*
X109700000Y-88450000D01*
G75*
G02*
X109450000Y-88700000I-250000J0D01*
G01*
X106450000Y-88700000D01*
G75*
G02*
X106200000Y-88450000I0J250000D01*
G01*
X106200000Y-87950000D01*
G75*
G02*
X106450000Y-87700000I250000J0D01*
G01*
G37*
%TD.AperFunction*%
%TD*%
D11*
%TO.P,J4,7*%
%TO.N,+5V*%
X126400000Y-100240000D03*
%TO.P,J4,6*%
%TO.N,/IO35*%
X126400000Y-97700000D03*
%TO.P,J4,5*%
%TO.N,/IO36*%
X126400000Y-95160000D03*
%TO.P,J4,4*%
%TO.N,/IO37*%
X126400000Y-92620000D03*
%TO.P,J4,3*%
%TO.N,GND*%
X126400000Y-90080000D03*
%TO.P,J4,2*%
%TO.N,/IO38*%
X126400000Y-87540000D03*
D12*
%TO.P,J4,1*%
%TO.N,/IO39*%
X126400000Y-85000000D03*
%TD*%
%TO.P,R3,2*%
%TO.N,GND*%
%TA.AperFunction,SMDPad,CuDef*%
G36*
G01*
X130875000Y-89450000D02*
X130875000Y-89950000D01*
G75*
G02*
X130650000Y-90175000I-225000J0D01*
G01*
X130200000Y-90175000D01*
G75*
G02*
X129975000Y-89950000I0J225000D01*
G01*
X129975000Y-89450000D01*
G75*
G02*
X130200000Y-89225000I225000J0D01*
G01*
X130650000Y-89225000D01*
G75*
G02*
X130875000Y-89450000I0J-225000D01*
G01*
G37*
%TD.AperFunction*%
%TO.P,R3,1*%
%TO.N,Net-(R3-Pad1)*%
%TA.AperFunction,SMDPad,CuDef*%
G36*
G01*
X132425000Y-89450000D02*
X132425000Y-89950000D01*
G75*
G02*
X132200000Y-90175000I-225000J0D01*
G01*
X131750000Y-90175000D01*
G75*
G02*
X131525000Y-89950000I0J225000D01*
G01*
X131525000Y-89450000D01*
G75*
G02*
X131750000Y-89225000I225000J0D01*
G01*
X132200000Y-89225000D01*
G75*
G02*
X132425000Y-89450000I0J-225000D01*
G01*
G37*
%TD.AperFunction*%
%TD*%
%TO.P,R2,2*%
%TO.N,Net-(C2-Pad1)*%
%TA.AperFunction,SMDPad,CuDef*%
G36*
G01*
X132275000Y-101950000D02*
X132275000Y-102450000D01*
G75*
G02*
X132050000Y-102675000I-225000J0D01*
G01*
X131600000Y-102675000D01*
G75*
G02*
X131375000Y-102450000I0J225000D01*
G01*
X131375000Y-101950000D01*
G75*
G02*
X131600000Y-101725000I225000J0D01*
G01*
X132050000Y-101725000D01*
G75*
G02*
X132275000Y-101950000I0J-225000D01*
G01*
G37*
%TD.AperFunction*%
%TO.P,R2,1*%
%TO.N,/BAT+*%
%TA.AperFunction,SMDPad,CuDef*%
G36*
G01*
X133825000Y-101950000D02*
X133825000Y-102450000D01*
G75*
G02*
X133600000Y-102675000I-225000J0D01*
G01*
X133150000Y-102675000D01*
G75*
G02*
X132925000Y-102450000I0J225000D01*
G01*
X132925000Y-101950000D01*
G75*
G02*
X133150000Y-101725000I225000J0D01*
G01*
X133600000Y-101725000D01*
G75*
G02*
X133825000Y-101950000I0J-225000D01*
G01*
G37*
%TD.AperFunction*%
%TD*%
%TO.P,R1,2*%
%TO.N,Net-(R1-Pad2)*%
%TA.AperFunction,SMDPad,CuDef*%
G36*
G01*
X131525000Y-88450000D02*
X131525000Y-87950000D01*
G75*
G02*
X131750000Y-87725000I225000J0D01*
G01*
X132200000Y-87725000D01*
G75*
G02*
X132425000Y-87950000I0J-225000D01*
G01*
X132425000Y-88450000D01*
G75*
G02*
X132200000Y-88675000I-225000J0D01*
G01*
X131750000Y-88675000D01*
G75*
G02*
X131525000Y-88450000I0J225000D01*
G01*
G37*
%TD.AperFunction*%
%TO.P,R1,1*%
%TO.N,GND*%
%TA.AperFunction,SMDPad,CuDef*%
G36*
G01*
X129975000Y-88450000D02*
X129975000Y-87950000D01*
G75*
G02*
X130200000Y-87725000I225000J0D01*
G01*
X130650000Y-87725000D01*
G75*
G02*
X130875000Y-87950000I0J-225000D01*
G01*
X130875000Y-88450000D01*
G75*
G02*
X130650000Y-88675000I-225000J0D01*
G01*
X130200000Y-88675000D01*
G75*
G02*
X129975000Y-88450000I0J225000D01*
G01*
G37*
%TD.AperFunction*%
%TD*%
%TO.P,C3,2*%
%TO.N,GND*%
%TA.AperFunction,SMDPad,CuDef*%
G36*
G01*
X130850000Y-91050000D02*
X130850000Y-91550000D01*
G75*
G02*
X130625000Y-91775000I-225000J0D01*
G01*
X130175000Y-91775000D01*
G75*
G02*
X129950000Y-91550000I0J225000D01*
G01*
X129950000Y-91050000D01*
G75*
G02*
X130175000Y-90825000I225000J0D01*
G01*
X130625000Y-90825000D01*
G75*
G02*
X130850000Y-91050000I0J-225000D01*
G01*
G37*
%TD.AperFunction*%
%TO.P,C3,1*%
%TO.N,/BAT+*%
%TA.AperFunction,SMDPad,CuDef*%
G36*
G01*
X132400000Y-91050000D02*
X132400000Y-91550000D01*
G75*
G02*
X132175000Y-91775000I-225000J0D01*
G01*
X131725000Y-91775000D01*
G75*
G02*
X131500000Y-91550000I0J225000D01*
G01*
X131500000Y-91050000D01*
G75*
G02*
X131725000Y-90825000I225000J0D01*
G01*
X132175000Y-90825000D01*
G75*
G02*
X132400000Y-91050000I0J-225000D01*
G01*
G37*
%TD.AperFunction*%
%TD*%
%TO.P,C2,2*%
%TO.N,/BAT-*%
%TA.AperFunction,SMDPad,CuDef*%
G36*
G01*
X132925000Y-100850000D02*
X132925000Y-100350000D01*
G75*
G02*
X133150000Y-100125000I225000J0D01*
G01*
X133600000Y-100125000D01*
G75*
G02*
X133825000Y-100350000I0J-225000D01*
G01*
X133825000Y-100850000D01*
G75*
G02*
X133600000Y-101075000I-225000J0D01*
G01*
X133150000Y-101075000D01*
G75*
G02*
X132925000Y-100850000I0J225000D01*
G01*
G37*
%TD.AperFunction*%
%TO.P,C2,1*%
%TO.N,Net-(C2-Pad1)*%
%TA.AperFunction,SMDPad,CuDef*%
G36*
G01*
X131375000Y-100850000D02*
X131375000Y-100350000D01*
G75*
G02*
X131600000Y-100125000I225000J0D01*
G01*
X132050000Y-100125000D01*
G75*
G02*
X132275000Y-100350000I0J-225000D01*
G01*
X132275000Y-100850000D01*
G75*
G02*
X132050000Y-101075000I-225000J0D01*
G01*
X131600000Y-101075000D01*
G75*
G02*
X131375000Y-100850000I0J225000D01*
G01*
G37*
%TD.AperFunction*%
%TD*%
%TO.P,C1,2*%
%TO.N,GND*%
%TA.AperFunction,SMDPad,CuDef*%
G36*
G01*
X138975000Y-81950000D02*
X138975000Y-82450000D01*
G75*
G02*
X138750000Y-82675000I-225000J0D01*
G01*
X138300000Y-82675000D01*
G75*
G02*
X138075000Y-82450000I0J225000D01*
G01*
X138075000Y-81950000D01*
G75*
G02*
X138300000Y-81725000I225000J0D01*
G01*
X138750000Y-81725000D01*
G75*
G02*
X138975000Y-81950000I0J-225000D01*
G01*
G37*
%TD.AperFunction*%
%TO.P,C1,1*%
%TO.N,/PV+*%
%TA.AperFunction,SMDPad,CuDef*%
G36*
G01*
X140525000Y-81950000D02*
X140525000Y-82450000D01*
G75*
G02*
X140300000Y-82675000I-225000J0D01*
G01*
X139850000Y-82675000D01*
G75*
G02*
X139625000Y-82450000I0J225000D01*
G01*
X139625000Y-81950000D01*
G75*
G02*
X139850000Y-81725000I225000J0D01*
G01*
X140300000Y-81725000D01*
G75*
G02*
X140525000Y-81950000I0J-225000D01*
G01*
G37*
%TD.AperFunction*%
%TD*%
%TO.P,U3,8*%
%TO.N,N/C*%
%TA.AperFunction,SMDPad,CuDef*%
G36*
G01*
X131175000Y-105875000D02*
X131175000Y-106075000D01*
G75*
G02*
X131075000Y-106175000I-100000J0D01*
G01*
X129800000Y-106175000D01*
G75*
G02*
X129700000Y-106075000I0J100000D01*
G01*
X129700000Y-105875000D01*
G75*
G02*
X129800000Y-105775000I100000J0D01*
G01*
X131075000Y-105775000D01*
G75*
G02*
X131175000Y-105875000I0J-100000D01*
G01*
G37*
%TD.AperFunction*%
%TO.P,U3,7*%
%TO.N,GND*%
%TA.AperFunction,SMDPad,CuDef*%
G36*
G01*
X131175000Y-105225000D02*
X131175000Y-105425000D01*
G75*
G02*
X131075000Y-105525000I-100000J0D01*
G01*
X129800000Y-105525000D01*
G75*
G02*
X129700000Y-105425000I0J100000D01*
G01*
X129700000Y-105225000D01*
G75*
G02*
X129800000Y-105125000I100000J0D01*
G01*
X131075000Y-105125000D01*
G75*
G02*
X131175000Y-105225000I0J-100000D01*
G01*
G37*
%TD.AperFunction*%
%TO.P,U3,6*%
%TA.AperFunction,SMDPad,CuDef*%
G36*
G01*
X131175000Y-104575000D02*
X131175000Y-104775000D01*
G75*
G02*
X131075000Y-104875000I-100000J0D01*
G01*
X129800000Y-104875000D01*
G75*
G02*
X129700000Y-104775000I0J100000D01*
G01*
X129700000Y-104575000D01*
G75*
G02*
X129800000Y-104475000I100000J0D01*
G01*
X131075000Y-104475000D01*
G75*
G02*
X131175000Y-104575000I0J-100000D01*
G01*
G37*
%TD.AperFunction*%
%TO.P,U3,5*%
%TO.N,Net-(U2-Pad3)*%
%TA.AperFunction,SMDPad,CuDef*%
G36*
G01*
X131175000Y-103925000D02*
X131175000Y-104125000D01*
G75*
G02*
X131075000Y-104225000I-100000J0D01*
G01*
X129800000Y-104225000D01*
G75*
G02*
X129700000Y-104125000I0J100000D01*
G01*
X129700000Y-103925000D01*
G75*
G02*
X129800000Y-103825000I100000J0D01*
G01*
X131075000Y-103825000D01*
G75*
G02*
X131175000Y-103925000I0J-100000D01*
G01*
G37*
%TD.AperFunction*%
%TO.P,U3,4*%
%TO.N,Net-(U2-Pad1)*%
%TA.AperFunction,SMDPad,CuDef*%
G36*
G01*
X136900000Y-103925000D02*
X136900000Y-104125000D01*
G75*
G02*
X136800000Y-104225000I-100000J0D01*
G01*
X135525000Y-104225000D01*
G75*
G02*
X135425000Y-104125000I0J100000D01*
G01*
X135425000Y-103925000D01*
G75*
G02*
X135525000Y-103825000I100000J0D01*
G01*
X136800000Y-103825000D01*
G75*
G02*
X136900000Y-103925000I0J-100000D01*
G01*
G37*
%TD.AperFunction*%
%TO.P,U3,3*%
%TO.N,/BAT-*%
%TA.AperFunction,SMDPad,CuDef*%
G36*
G01*
X136900000Y-104575000D02*
X136900000Y-104775000D01*
G75*
G02*
X136800000Y-104875000I-100000J0D01*
G01*
X135525000Y-104875000D01*
G75*
G02*
X135425000Y-104775000I0J100000D01*
G01*
X135425000Y-104575000D01*
G75*
G02*
X135525000Y-104475000I100000J0D01*
G01*
X136800000Y-104475000D01*
G75*
G02*
X136900000Y-104575000I0J-100000D01*
G01*
G37*
%TD.AperFunction*%
%TO.P,U3,2*%
%TA.AperFunction,SMDPad,CuDef*%
G36*
G01*
X136900000Y-105225000D02*
X136900000Y-105425000D01*
G75*
G02*
X136800000Y-105525000I-100000J0D01*
G01*
X135525000Y-105525000D01*
G75*
G02*
X135425000Y-105425000I0J100000D01*
G01*
X135425000Y-105225000D01*
G75*
G02*
X135525000Y-105125000I100000J0D01*
G01*
X136800000Y-105125000D01*
G75*
G02*
X136900000Y-105225000I0J-100000D01*
G01*
G37*
%TD.AperFunction*%
%TO.P,U3,1*%
%TO.N,N/C*%
%TA.AperFunction,SMDPad,CuDef*%
G36*
G01*
X136900000Y-105875000D02*
X136900000Y-106075000D01*
G75*
G02*
X136800000Y-106175000I-100000J0D01*
G01*
X135525000Y-106175000D01*
G75*
G02*
X135425000Y-106075000I0J100000D01*
G01*
X135425000Y-105875000D01*
G75*
G02*
X135525000Y-105775000I100000J0D01*
G01*
X136800000Y-105775000D01*
G75*
G02*
X136900000Y-105875000I0J-100000D01*
G01*
G37*
%TD.AperFunction*%
%TD*%
D13*
%TO.P,U2,5*%
%TO.N,Net-(C2-Pad1)*%
X131400000Y-95950000D03*
%TO.P,U2,6*%
%TO.N,/BAT-*%
X132350000Y-95950000D03*
%TO.P,U2,4*%
%TO.N,N/C*%
X130450000Y-95950000D03*
%TO.P,U2,3*%
%TO.N,Net-(U2-Pad3)*%
X130450000Y-93250000D03*
%TO.P,U2,2*%
%TO.N,Net-(R3-Pad1)*%
X131400000Y-93250000D03*
%TO.P,U2,1*%
%TO.N,Net-(U2-Pad1)*%
X132350000Y-93250000D03*
%TD*%
D14*
%TO.P,U1,9*%
%TO.N,/PV+*%
X133000000Y-84200000D03*
D15*
%TO.P,U1,8*%
X130300000Y-86105000D03*
%TO.P,U1,7*%
%TO.N,N/C*%
X130300000Y-84835000D03*
%TO.P,U1,6*%
X130300000Y-83565000D03*
%TO.P,U1,5*%
%TO.N,/BAT+*%
X130300000Y-82295000D03*
%TO.P,U1,4*%
%TO.N,/PV+*%
X135700000Y-82295000D03*
%TO.P,U1,3*%
%TO.N,GND*%
X135700000Y-83565000D03*
%TO.P,U1,2*%
%TO.N,Net-(R1-Pad2)*%
X135700000Y-84835000D03*
%TO.P,U1,1*%
%TO.N,GND*%
X135700000Y-86105000D03*
%TD*%
%TO.P,J3,MP*%
%TO.N,N/C*%
%TA.AperFunction,SMDPad,CuDef*%
G36*
G01*
X146550000Y-91400000D02*
X149450000Y-91400000D01*
G75*
G02*
X149700000Y-91650000I0J-250000D01*
G01*
X149700000Y-92650000D01*
G75*
G02*
X149450000Y-92900000I-250000J0D01*
G01*
X146550000Y-92900000D01*
G75*
G02*
X146300000Y-92650000I0J250000D01*
G01*
X146300000Y-91650000D01*
G75*
G02*
X146550000Y-91400000I250000J0D01*
G01*
G37*
%TD.AperFunction*%
%TA.AperFunction,SMDPad,CuDef*%
G36*
G01*
X146550000Y-84700000D02*
X149450000Y-84700000D01*
G75*
G02*
X149700000Y-84950000I0J-250000D01*
G01*
X149700000Y-85950000D01*
G75*
G02*
X149450000Y-86200000I-250000J0D01*
G01*
X146550000Y-86200000D01*
G75*
G02*
X146300000Y-85950000I0J250000D01*
G01*
X146300000Y-84950000D01*
G75*
G02*
X146550000Y-84700000I250000J0D01*
G01*
G37*
%TD.AperFunction*%
%TO.P,J3,2*%
%TO.N,GND*%
%TA.AperFunction,SMDPad,CuDef*%
G36*
G01*
X152250000Y-89300000D02*
X155250000Y-89300000D01*
G75*
G02*
X155500000Y-89550000I0J-250000D01*
G01*
X155500000Y-90050000D01*
G75*
G02*
X155250000Y-90300000I-250000J0D01*
G01*
X152250000Y-90300000D01*
G75*
G02*
X152000000Y-90050000I0J250000D01*
G01*
X152000000Y-89550000D01*
G75*
G02*
X152250000Y-89300000I250000J0D01*
G01*
G37*
%TD.AperFunction*%
%TO.P,J3,1*%
%TO.N,/PV+*%
%TA.AperFunction,SMDPad,CuDef*%
G36*
G01*
X152250000Y-87300000D02*
X155250000Y-87300000D01*
G75*
G02*
X155500000Y-87550000I0J-250000D01*
G01*
X155500000Y-88050000D01*
G75*
G02*
X155250000Y-88300000I-250000J0D01*
G01*
X152250000Y-88300000D01*
G75*
G02*
X152000000Y-88050000I0J250000D01*
G01*
X152000000Y-87550000D01*
G75*
G02*
X152250000Y-87300000I250000J0D01*
G01*
G37*
%TD.AperFunction*%
%TD*%
%TO.P,J1,MP*%
%TO.N,N/C*%
%TA.AperFunction,SMDPad,CuDef*%
G36*
G01*
X146450000Y-101800000D02*
X149350000Y-101800000D01*
G75*
G02*
X149600000Y-102050000I0J-250000D01*
G01*
X149600000Y-103050000D01*
G75*
G02*
X149350000Y-103300000I-250000J0D01*
G01*
X146450000Y-103300000D01*
G75*
G02*
X146200000Y-103050000I0J250000D01*
G01*
X146200000Y-102050000D01*
G75*
G02*
X146450000Y-101800000I250000J0D01*
G01*
G37*
%TD.AperFunction*%
%TA.AperFunction,SMDPad,CuDef*%
G36*
G01*
X146450000Y-95100000D02*
X149350000Y-95100000D01*
G75*
G02*
X149600000Y-95350000I0J-250000D01*
G01*
X149600000Y-96350000D01*
G75*
G02*
X149350000Y-96600000I-250000J0D01*
G01*
X146450000Y-96600000D01*
G75*
G02*
X146200000Y-96350000I0J250000D01*
G01*
X146200000Y-95350000D01*
G75*
G02*
X146450000Y-95100000I250000J0D01*
G01*
G37*
%TD.AperFunction*%
%TO.P,J1,2*%
%TO.N,/BAT+*%
%TA.AperFunction,SMDPad,CuDef*%
G36*
G01*
X152150000Y-99700000D02*
X155150000Y-99700000D01*
G75*
G02*
X155400000Y-99950000I0J-250000D01*
G01*
X155400000Y-100450000D01*
G75*
G02*
X155150000Y-100700000I-250000J0D01*
G01*
X152150000Y-100700000D01*
G75*
G02*
X151900000Y-100450000I0J250000D01*
G01*
X151900000Y-99950000D01*
G75*
G02*
X152150000Y-99700000I250000J0D01*
G01*
G37*
%TD.AperFunction*%
%TO.P,J1,1*%
%TO.N,/BAT-*%
%TA.AperFunction,SMDPad,CuDef*%
G36*
G01*
X152150000Y-97700000D02*
X155150000Y-97700000D01*
G75*
G02*
X155400000Y-97950000I0J-250000D01*
G01*
X155400000Y-98450000D01*
G75*
G02*
X155150000Y-98700000I-250000J0D01*
G01*
X152150000Y-98700000D01*
G75*
G02*
X151900000Y-98450000I0J250000D01*
G01*
X151900000Y-97950000D01*
G75*
G02*
X152150000Y-97700000I250000J0D01*
G01*
G37*
%TD.AperFunction*%
%TD*%
D16*
%TO.N,*%
X101800000Y-81900000D03*
X101800000Y-106300000D03*
X154100000Y-81800000D03*
X154100000Y-106200000D03*
D17*
%TO.N,GND*%
X135700000Y-87300000D03*
X151100000Y-89800000D03*
X128825000Y-105325000D03*
%TO.N,/BAT+*%
X129300000Y-82295000D03*
X128700000Y-88000000D03*
X126525001Y-104625001D03*
X149649999Y-106050001D03*
X139425010Y-101474990D03*
%TO.N,/BAT-*%
X138325000Y-104675000D03*
X150500000Y-98200000D03*
X134600000Y-100600000D03*
%TO.N,Net-(U2-Pad1)*%
X138600000Y-103000000D03*
X136100000Y-96200000D03*
%TD*%
D18*
%TO.N,GND*%
X124280000Y-92200000D02*
X126400000Y-90080000D01*
X107950000Y-92200000D02*
X124280000Y-92200000D01*
X130437500Y-105325000D02*
X130437500Y-104675000D01*
X130425000Y-88400000D02*
X130425000Y-89800000D01*
X130425000Y-91275000D02*
X130400000Y-91300000D01*
X130425000Y-89800000D02*
X130425000Y-91275000D01*
X135700000Y-86105000D02*
X135700000Y-87300000D01*
X136090002Y-86105000D02*
X135700000Y-86105000D01*
X136700000Y-83565000D02*
X136775001Y-83640001D01*
X135700000Y-83565000D02*
X136700000Y-83565000D01*
X137160000Y-83565000D02*
X138525000Y-82200000D01*
X135700000Y-83565000D02*
X137160000Y-83565000D01*
X153750000Y-89800000D02*
X151100000Y-89800000D01*
X130437500Y-105325000D02*
X128825000Y-105325000D01*
X149586810Y-89800000D02*
X151100000Y-89800000D01*
X143351810Y-83565000D02*
X149586810Y-89800000D01*
X135700000Y-83565000D02*
X143351810Y-83565000D01*
X128351999Y-87274999D02*
X126400000Y-89226998D01*
X129048001Y-87274999D02*
X128351999Y-87274999D01*
X130400000Y-88626998D02*
X129048001Y-87274999D01*
X126400000Y-89226998D02*
X126400000Y-90080000D01*
X130400000Y-91300000D02*
X130400000Y-88626998D01*
%TO.N,/BAT+*%
X134100010Y-101474990D02*
X139425010Y-101474990D01*
X133375000Y-102200000D02*
X134100010Y-101474990D01*
X131149990Y-92100010D02*
X131950000Y-91300000D01*
X129400010Y-92100010D02*
X131149990Y-92100010D01*
X130300000Y-82295000D02*
X129300000Y-82295000D01*
X129300000Y-82295000D02*
X129300000Y-82295000D01*
X126525001Y-104625001D02*
X126525001Y-104625001D01*
X149649999Y-104200001D02*
X152975000Y-100875000D01*
X149649999Y-106050001D02*
X149649999Y-104200001D01*
X152975000Y-100875000D02*
X153650000Y-100200000D01*
X152375010Y-101474990D02*
X152975000Y-100875000D01*
X139425010Y-101474990D02*
X152375010Y-101474990D01*
X128927008Y-106500010D02*
X149199990Y-106500010D01*
X128099999Y-93909999D02*
X128099999Y-105673001D01*
X129864999Y-92144999D02*
X128099999Y-93909999D01*
X131128589Y-92144999D02*
X129864999Y-92144999D01*
X128099999Y-105673001D02*
X128927008Y-106500010D01*
X131950000Y-91323588D02*
X131128589Y-92144999D01*
X131950000Y-91300000D02*
X131950000Y-91323588D01*
X128900000Y-90400000D02*
X128700000Y-90200000D01*
X128900000Y-91600000D02*
X128900000Y-90400000D01*
X128700000Y-88000000D02*
X128700000Y-90200000D01*
X128900000Y-91600000D02*
X129400010Y-92100010D01*
D19*
X115500000Y-101200000D02*
X115500000Y-103050000D01*
D18*
X115600000Y-101100000D02*
X115500000Y-101200000D01*
D19*
X120900000Y-101100000D02*
X115600000Y-101100000D01*
X124425001Y-104625001D02*
X120900000Y-101100000D01*
X126525001Y-104625001D02*
X124425001Y-104625001D01*
D18*
X128400010Y-106500010D02*
X149199990Y-106500010D01*
X149199990Y-106500010D02*
X149649999Y-106050001D01*
D19*
X126525001Y-104625001D02*
X128400010Y-106500010D01*
D18*
%TO.N,/BAT-*%
X136162500Y-104675000D02*
X136162500Y-105325000D01*
X136162500Y-104675000D02*
X138325000Y-104675000D01*
X138325000Y-104675000D02*
X138300000Y-104700000D01*
X138325000Y-104675000D02*
X138325000Y-104675000D01*
X153650000Y-98200000D02*
X150500000Y-98200000D01*
X133375000Y-100600000D02*
X134600000Y-100600000D01*
X132350000Y-99575000D02*
X133375000Y-100600000D01*
X132350000Y-95950000D02*
X132350000Y-99575000D01*
%TO.N,/PV+*%
X135110000Y-82295000D02*
X135700000Y-82295000D01*
X139274990Y-81399990D02*
X140075000Y-82200000D01*
X136595010Y-81399990D02*
X139274990Y-81399990D01*
X135700000Y-82295000D02*
X136595010Y-81399990D01*
X153113190Y-87800000D02*
X153750000Y-87800000D01*
X147513190Y-82200000D02*
X153113190Y-87800000D01*
X140075000Y-82200000D02*
X147513190Y-82200000D01*
X135309998Y-82295000D02*
X135700000Y-82295000D01*
X131499998Y-86105000D02*
X135309998Y-82295000D01*
X130300000Y-86105000D02*
X131499998Y-86105000D01*
X131095000Y-86105000D02*
X133000000Y-84200000D01*
X130300000Y-86105000D02*
X131095000Y-86105000D01*
%TO.N,Net-(U2-Pad3)*%
X129799999Y-93900001D02*
X130450000Y-93250000D01*
X129799999Y-103387499D02*
X129799999Y-93900001D01*
X130437500Y-104025000D02*
X129799999Y-103387499D01*
%TO.N,Net-(U2-Pad1)*%
X136162500Y-104025000D02*
X136975000Y-104025000D01*
X136975000Y-104025000D02*
X138000000Y-103000000D01*
X138000000Y-103000000D02*
X138600000Y-103000000D01*
X138600000Y-103000000D02*
X138600000Y-103000000D01*
X132350000Y-93250000D02*
X133150000Y-93250000D01*
X133150000Y-93250000D02*
X136100000Y-96200000D01*
X136100000Y-96200000D02*
X136100000Y-96200000D01*
%TO.N,Net-(C2-Pad1)*%
X131400000Y-100175000D02*
X131825000Y-100600000D01*
X131400000Y-95950000D02*
X131400000Y-100175000D01*
X131825000Y-100600000D02*
X131825000Y-102200000D01*
%TO.N,Net-(R1-Pad2)*%
X135673002Y-88400000D02*
X131975000Y-88400000D01*
X136775001Y-87298001D02*
X135673002Y-88400000D01*
X136700000Y-84835000D02*
X136775001Y-84910001D01*
X136775001Y-84910001D02*
X136775001Y-87298001D01*
X135700000Y-84835000D02*
X136700000Y-84835000D01*
%TO.N,Net-(R3-Pad1)*%
X131400000Y-92509998D02*
X131400000Y-93250000D01*
X131764999Y-92144999D02*
X131400000Y-92509998D01*
X132725010Y-92074990D02*
X132655001Y-92144999D01*
X132655001Y-92144999D02*
X131764999Y-92144999D01*
X131975000Y-90072166D02*
X132725010Y-90822176D01*
X132725010Y-90822176D02*
X132725010Y-92074990D01*
X131975000Y-89800000D02*
X131975000Y-90072166D01*
%TO.N,+5V*%
X108600000Y-100200000D02*
X107950000Y-100200000D01*
X126360000Y-100200000D02*
X126400000Y-100240000D01*
D19*
X113000000Y-103050000D02*
X113000000Y-100200000D01*
X113000000Y-100200000D02*
X126360000Y-100200000D01*
X107950000Y-100200000D02*
X113000000Y-100200000D01*
D18*
%TO.N,/IO35*%
X125900000Y-98200000D02*
X126400000Y-97700000D01*
X107950000Y-98200000D02*
X125900000Y-98200000D01*
%TO.N,/IO36*%
X125360000Y-96200000D02*
X126400000Y-95160000D01*
X107950000Y-96200000D02*
X125360000Y-96200000D01*
%TO.N,/IO37*%
X124820000Y-94200000D02*
X126400000Y-92620000D01*
X107950000Y-94200000D02*
X124820000Y-94200000D01*
%TO.N,/IO38*%
X123740000Y-90200000D02*
X126400000Y-87540000D01*
X107950000Y-90200000D02*
X123740000Y-90200000D01*
%TO.N,/IO39*%
X123200000Y-88200000D02*
X126400000Y-85000000D01*
X107950000Y-88200000D02*
X123200000Y-88200000D01*
%TD*%
D20*
%TO.N,/BAT+*%
X149023011Y-90311003D02*
X149046809Y-90340001D01*
X149075807Y-90363799D01*
X149162534Y-90434974D01*
X149294563Y-90505546D01*
X149437824Y-90549003D01*
X149586810Y-90563677D01*
X149624143Y-90560000D01*
X150396289Y-90560000D01*
X150440226Y-90603937D01*
X150609744Y-90717205D01*
X150798102Y-90795226D01*
X150998061Y-90835000D01*
X151201939Y-90835000D01*
X151401898Y-90795226D01*
X151590256Y-90717205D01*
X151634133Y-90687888D01*
X151756614Y-90788405D01*
X151910150Y-90870472D01*
X152076746Y-90921008D01*
X152250000Y-90938072D01*
X155250000Y-90938072D01*
X155423254Y-90921008D01*
X155589850Y-90870472D01*
X155615000Y-90857029D01*
X155615001Y-97196423D01*
X155489850Y-97129528D01*
X155323254Y-97078992D01*
X155150000Y-97061928D01*
X152150000Y-97061928D01*
X151976746Y-97078992D01*
X151810150Y-97129528D01*
X151656614Y-97211595D01*
X151522038Y-97322038D01*
X151425230Y-97440000D01*
X151203711Y-97440000D01*
X151159774Y-97396063D01*
X150990256Y-97282795D01*
X150801898Y-97204774D01*
X150601939Y-97165000D01*
X150398061Y-97165000D01*
X150198102Y-97204774D01*
X150009744Y-97282795D01*
X149840226Y-97396063D01*
X149696063Y-97540226D01*
X149582795Y-97709744D01*
X149504774Y-97898102D01*
X149465000Y-98098061D01*
X149465000Y-98301939D01*
X149504774Y-98501898D01*
X149582795Y-98690256D01*
X149696063Y-98859774D01*
X149840226Y-99003937D01*
X150009744Y-99117205D01*
X150198102Y-99195226D01*
X150398061Y-99235000D01*
X150601939Y-99235000D01*
X150801898Y-99195226D01*
X150990256Y-99117205D01*
X151159774Y-99003937D01*
X151203711Y-98960000D01*
X151425230Y-98960000D01*
X151522038Y-99077962D01*
X151598813Y-99140969D01*
X151545506Y-99169463D01*
X151448815Y-99248815D01*
X151369463Y-99345506D01*
X151310498Y-99455820D01*
X151274188Y-99575518D01*
X151261928Y-99700000D01*
X151265000Y-99914250D01*
X151423750Y-100073000D01*
X153523000Y-100073000D01*
X153523000Y-100053000D01*
X153777000Y-100053000D01*
X153777000Y-100073000D01*
X153797000Y-100073000D01*
X153797000Y-100327000D01*
X153777000Y-100327000D01*
X153777000Y-101176250D01*
X153935750Y-101335000D01*
X155400000Y-101338072D01*
X155524482Y-101325812D01*
X155615001Y-101298353D01*
X155615001Y-104483523D01*
X155556603Y-104425125D01*
X155182353Y-104175059D01*
X154766510Y-104002811D01*
X154325053Y-103915000D01*
X153874947Y-103915000D01*
X153433490Y-104002811D01*
X153017647Y-104175059D01*
X152643397Y-104425125D01*
X152325125Y-104743397D01*
X152075059Y-105117647D01*
X151902811Y-105533490D01*
X151815000Y-105974947D01*
X151815000Y-106425053D01*
X151902811Y-106866510D01*
X152075059Y-107282353D01*
X152325125Y-107656603D01*
X152383522Y-107715000D01*
X128627000Y-107715000D01*
X128627000Y-106340892D01*
X128723061Y-106360000D01*
X128926939Y-106360000D01*
X129107962Y-106323993D01*
X129118110Y-106357448D01*
X129186316Y-106485051D01*
X129278104Y-106596896D01*
X129389949Y-106688684D01*
X129517552Y-106756890D01*
X129656009Y-106798890D01*
X129800000Y-106813072D01*
X131075000Y-106813072D01*
X131218991Y-106798890D01*
X131357448Y-106756890D01*
X131485051Y-106688684D01*
X131596896Y-106596896D01*
X131688684Y-106485051D01*
X131756890Y-106357448D01*
X131798890Y-106218991D01*
X131813072Y-106075000D01*
X131813072Y-105875000D01*
X131798890Y-105731009D01*
X131774316Y-105650000D01*
X131798890Y-105568991D01*
X131813072Y-105425000D01*
X131813072Y-105225000D01*
X131798890Y-105081009D01*
X131774316Y-105000000D01*
X131798890Y-104918991D01*
X131813072Y-104775000D01*
X131813072Y-104575000D01*
X131798890Y-104431009D01*
X131774316Y-104350000D01*
X131798890Y-104268991D01*
X131813072Y-104125000D01*
X131813072Y-103925000D01*
X134786928Y-103925000D01*
X134786928Y-104125000D01*
X134801110Y-104268991D01*
X134825684Y-104350000D01*
X134801110Y-104431009D01*
X134786928Y-104575000D01*
X134786928Y-104775000D01*
X134801110Y-104918991D01*
X134825684Y-105000000D01*
X134801110Y-105081009D01*
X134786928Y-105225000D01*
X134786928Y-105425000D01*
X134801110Y-105568991D01*
X134825684Y-105650000D01*
X134801110Y-105731009D01*
X134786928Y-105875000D01*
X134786928Y-106075000D01*
X134801110Y-106218991D01*
X134843110Y-106357448D01*
X134911316Y-106485051D01*
X135003104Y-106596896D01*
X135114949Y-106688684D01*
X135242552Y-106756890D01*
X135381009Y-106798890D01*
X135525000Y-106813072D01*
X136800000Y-106813072D01*
X136943991Y-106798890D01*
X137082448Y-106756890D01*
X137210051Y-106688684D01*
X137321896Y-106596896D01*
X137413684Y-106485051D01*
X137481890Y-106357448D01*
X137523890Y-106218991D01*
X137538072Y-106075000D01*
X137538072Y-105875000D01*
X137523890Y-105731009D01*
X137499316Y-105650000D01*
X137523890Y-105568991D01*
X137537087Y-105435000D01*
X137621289Y-105435000D01*
X137665226Y-105478937D01*
X137834744Y-105592205D01*
X138023102Y-105670226D01*
X138223061Y-105710000D01*
X138426939Y-105710000D01*
X138626898Y-105670226D01*
X138815256Y-105592205D01*
X138984774Y-105478937D01*
X139128937Y-105334774D01*
X139242205Y-105165256D01*
X139320226Y-104976898D01*
X139360000Y-104776939D01*
X139360000Y-104573061D01*
X139320226Y-104373102D01*
X139242205Y-104184744D01*
X139128937Y-104015226D01*
X139048296Y-103934585D01*
X139090256Y-103917205D01*
X139259774Y-103803937D01*
X139403937Y-103659774D01*
X139517205Y-103490256D01*
X139595226Y-103301898D01*
X139635000Y-103101939D01*
X139635000Y-102898061D01*
X139595226Y-102698102D01*
X139517205Y-102509744D01*
X139403937Y-102340226D01*
X139259774Y-102196063D01*
X139090256Y-102082795D01*
X139011083Y-102050000D01*
X145561928Y-102050000D01*
X145561928Y-103050000D01*
X145578992Y-103223254D01*
X145629528Y-103389850D01*
X145711595Y-103543386D01*
X145822038Y-103677962D01*
X145956614Y-103788405D01*
X146110150Y-103870472D01*
X146276746Y-103921008D01*
X146450000Y-103938072D01*
X149350000Y-103938072D01*
X149523254Y-103921008D01*
X149689850Y-103870472D01*
X149843386Y-103788405D01*
X149977962Y-103677962D01*
X150088405Y-103543386D01*
X150170472Y-103389850D01*
X150221008Y-103223254D01*
X150238072Y-103050000D01*
X150238072Y-102050000D01*
X150221008Y-101876746D01*
X150170472Y-101710150D01*
X150088405Y-101556614D01*
X149977962Y-101422038D01*
X149843386Y-101311595D01*
X149689850Y-101229528D01*
X149523254Y-101178992D01*
X149350000Y-101161928D01*
X146450000Y-101161928D01*
X146276746Y-101178992D01*
X146110150Y-101229528D01*
X145956614Y-101311595D01*
X145822038Y-101422038D01*
X145711595Y-101556614D01*
X145629528Y-101710150D01*
X145578992Y-101876746D01*
X145561928Y-102050000D01*
X139011083Y-102050000D01*
X138901898Y-102004774D01*
X138701939Y-101965000D01*
X138498061Y-101965000D01*
X138298102Y-102004774D01*
X138109744Y-102082795D01*
X137940226Y-102196063D01*
X137889037Y-102247252D01*
X137851014Y-102250997D01*
X137707753Y-102294454D01*
X137575723Y-102365026D01*
X137492083Y-102433668D01*
X137459999Y-102459999D01*
X137436201Y-102488997D01*
X136738271Y-103186928D01*
X135525000Y-103186928D01*
X135381009Y-103201110D01*
X135242552Y-103243110D01*
X135114949Y-103311316D01*
X135003104Y-103403104D01*
X134911316Y-103514949D01*
X134843110Y-103642552D01*
X134801110Y-103781009D01*
X134786928Y-103925000D01*
X131813072Y-103925000D01*
X131798890Y-103781009D01*
X131756890Y-103642552D01*
X131688684Y-103514949D01*
X131596896Y-103403104D01*
X131485051Y-103311316D01*
X131463113Y-103299590D01*
X131600000Y-103313072D01*
X132050000Y-103313072D01*
X132218377Y-103296488D01*
X132380283Y-103247375D01*
X132526351Y-103169300D01*
X132570506Y-103205537D01*
X132680820Y-103264502D01*
X132800518Y-103300812D01*
X132925000Y-103313072D01*
X133089250Y-103310000D01*
X133248000Y-103151250D01*
X133248000Y-102327000D01*
X133502000Y-102327000D01*
X133502000Y-103151250D01*
X133660750Y-103310000D01*
X133825000Y-103313072D01*
X133949482Y-103300812D01*
X134069180Y-103264502D01*
X134179494Y-103205537D01*
X134276185Y-103126185D01*
X134355537Y-103029494D01*
X134414502Y-102919180D01*
X134450812Y-102799482D01*
X134463072Y-102675000D01*
X134460000Y-102485750D01*
X134301250Y-102327000D01*
X133502000Y-102327000D01*
X133248000Y-102327000D01*
X133228000Y-102327000D01*
X133228000Y-102073000D01*
X133248000Y-102073000D01*
X133248000Y-102053000D01*
X133502000Y-102053000D01*
X133502000Y-102073000D01*
X134301250Y-102073000D01*
X134460000Y-101914250D01*
X134463072Y-101725000D01*
X134453332Y-101626103D01*
X134498061Y-101635000D01*
X134701939Y-101635000D01*
X134901898Y-101595226D01*
X135090256Y-101517205D01*
X135259774Y-101403937D01*
X135403937Y-101259774D01*
X135517205Y-101090256D01*
X135595226Y-100901898D01*
X135635000Y-100701939D01*
X135635000Y-100700000D01*
X151261928Y-100700000D01*
X151274188Y-100824482D01*
X151310498Y-100944180D01*
X151369463Y-101054494D01*
X151448815Y-101151185D01*
X151545506Y-101230537D01*
X151655820Y-101289502D01*
X151775518Y-101325812D01*
X151900000Y-101338072D01*
X153364250Y-101335000D01*
X153523000Y-101176250D01*
X153523000Y-100327000D01*
X151423750Y-100327000D01*
X151265000Y-100485750D01*
X151261928Y-100700000D01*
X135635000Y-100700000D01*
X135635000Y-100498061D01*
X135595226Y-100298102D01*
X135517205Y-100109744D01*
X135403937Y-99940226D01*
X135259774Y-99796063D01*
X135090256Y-99682795D01*
X134901898Y-99604774D01*
X134701939Y-99565000D01*
X134498061Y-99565000D01*
X134298102Y-99604774D01*
X134130466Y-99674211D01*
X134079497Y-99632382D01*
X133930283Y-99552625D01*
X133768377Y-99503512D01*
X133600000Y-99486928D01*
X133336729Y-99486928D01*
X133110000Y-99260199D01*
X133110000Y-97194468D01*
X133126185Y-97181185D01*
X133205537Y-97084494D01*
X133264502Y-96974180D01*
X133300812Y-96854482D01*
X133313072Y-96730000D01*
X133313072Y-95170000D01*
X133300812Y-95045518D01*
X133264502Y-94925820D01*
X133205537Y-94815506D01*
X133126185Y-94718815D01*
X133029494Y-94639463D01*
X132955665Y-94600000D01*
X133029494Y-94560537D01*
X133126185Y-94481185D01*
X133205537Y-94384494D01*
X133206985Y-94381786D01*
X135065000Y-96239802D01*
X135065000Y-96301939D01*
X135104774Y-96501898D01*
X135182795Y-96690256D01*
X135296063Y-96859774D01*
X135440226Y-97003937D01*
X135609744Y-97117205D01*
X135798102Y-97195226D01*
X135998061Y-97235000D01*
X136201939Y-97235000D01*
X136401898Y-97195226D01*
X136590256Y-97117205D01*
X136759774Y-97003937D01*
X136903937Y-96859774D01*
X137017205Y-96690256D01*
X137095226Y-96501898D01*
X137135000Y-96301939D01*
X137135000Y-96098061D01*
X137095226Y-95898102D01*
X137017205Y-95709744D01*
X136903937Y-95540226D01*
X136759774Y-95396063D01*
X136690836Y-95350000D01*
X145561928Y-95350000D01*
X145561928Y-96350000D01*
X145578992Y-96523254D01*
X145629528Y-96689850D01*
X145711595Y-96843386D01*
X145822038Y-96977962D01*
X145956614Y-97088405D01*
X146110150Y-97170472D01*
X146276746Y-97221008D01*
X146450000Y-97238072D01*
X149350000Y-97238072D01*
X149523254Y-97221008D01*
X149689850Y-97170472D01*
X149843386Y-97088405D01*
X149977962Y-96977962D01*
X150088405Y-96843386D01*
X150170472Y-96689850D01*
X150221008Y-96523254D01*
X150238072Y-96350000D01*
X150238072Y-95350000D01*
X150221008Y-95176746D01*
X150170472Y-95010150D01*
X150088405Y-94856614D01*
X149977962Y-94722038D01*
X149843386Y-94611595D01*
X149689850Y-94529528D01*
X149523254Y-94478992D01*
X149350000Y-94461928D01*
X146450000Y-94461928D01*
X146276746Y-94478992D01*
X146110150Y-94529528D01*
X145956614Y-94611595D01*
X145822038Y-94722038D01*
X145711595Y-94856614D01*
X145629528Y-95010150D01*
X145578992Y-95176746D01*
X145561928Y-95350000D01*
X136690836Y-95350000D01*
X136590256Y-95282795D01*
X136401898Y-95204774D01*
X136201939Y-95165000D01*
X136139802Y-95165000D01*
X133713804Y-92739003D01*
X133690001Y-92709999D01*
X133574276Y-92615026D01*
X133442247Y-92544454D01*
X133346688Y-92515467D01*
X133359984Y-92499266D01*
X133430556Y-92367237D01*
X133474013Y-92223976D01*
X133485010Y-92112323D01*
X133485010Y-92112315D01*
X133488686Y-92074990D01*
X133485010Y-92037665D01*
X133485010Y-91650000D01*
X145661928Y-91650000D01*
X145661928Y-92650000D01*
X145678992Y-92823254D01*
X145729528Y-92989850D01*
X145811595Y-93143386D01*
X145922038Y-93277962D01*
X146056614Y-93388405D01*
X146210150Y-93470472D01*
X146376746Y-93521008D01*
X146550000Y-93538072D01*
X149450000Y-93538072D01*
X149623254Y-93521008D01*
X149789850Y-93470472D01*
X149943386Y-93388405D01*
X150077962Y-93277962D01*
X150188405Y-93143386D01*
X150270472Y-92989850D01*
X150321008Y-92823254D01*
X150338072Y-92650000D01*
X150338072Y-91650000D01*
X150321008Y-91476746D01*
X150270472Y-91310150D01*
X150188405Y-91156614D01*
X150077962Y-91022038D01*
X149943386Y-90911595D01*
X149789850Y-90829528D01*
X149623254Y-90778992D01*
X149450000Y-90761928D01*
X146550000Y-90761928D01*
X146376746Y-90778992D01*
X146210150Y-90829528D01*
X146056614Y-90911595D01*
X145922038Y-91022038D01*
X145811595Y-91156614D01*
X145729528Y-91310150D01*
X145678992Y-91476746D01*
X145661928Y-91650000D01*
X133485010Y-91650000D01*
X133485010Y-90859498D01*
X133488686Y-90822175D01*
X133485010Y-90784852D01*
X133485010Y-90784843D01*
X133474013Y-90673190D01*
X133430556Y-90529929D01*
X133359984Y-90397900D01*
X133265011Y-90282175D01*
X133236014Y-90258378D01*
X133050928Y-90073293D01*
X133063072Y-89950000D01*
X133063072Y-89450000D01*
X133046488Y-89281623D01*
X133009595Y-89160000D01*
X135635680Y-89160000D01*
X135673002Y-89163676D01*
X135710324Y-89160000D01*
X135710335Y-89160000D01*
X135821988Y-89149003D01*
X135965249Y-89105546D01*
X136097278Y-89034974D01*
X136213003Y-88940001D01*
X136236806Y-88910998D01*
X137286004Y-87861800D01*
X137315002Y-87838002D01*
X137354186Y-87790256D01*
X137409975Y-87722278D01*
X137480547Y-87590248D01*
X137505571Y-87507753D01*
X137524004Y-87446987D01*
X137535001Y-87335334D01*
X137535001Y-87335324D01*
X137538677Y-87298001D01*
X137535001Y-87260678D01*
X137535001Y-84947323D01*
X137538677Y-84910000D01*
X137535001Y-84872678D01*
X137535001Y-84872668D01*
X137524004Y-84761015D01*
X137480547Y-84617754D01*
X137409975Y-84485725D01*
X137315002Y-84370000D01*
X137286003Y-84346201D01*
X137264801Y-84325000D01*
X143037009Y-84325000D01*
X149023011Y-90311003D01*
%TA.AperFunction,Conductor*%
D21*
G36*
X149023011Y-90311003D02*
G01*
X149046809Y-90340001D01*
X149075807Y-90363799D01*
X149162534Y-90434974D01*
X149294563Y-90505546D01*
X149437824Y-90549003D01*
X149586810Y-90563677D01*
X149624143Y-90560000D01*
X150396289Y-90560000D01*
X150440226Y-90603937D01*
X150609744Y-90717205D01*
X150798102Y-90795226D01*
X150998061Y-90835000D01*
X151201939Y-90835000D01*
X151401898Y-90795226D01*
X151590256Y-90717205D01*
X151634133Y-90687888D01*
X151756614Y-90788405D01*
X151910150Y-90870472D01*
X152076746Y-90921008D01*
X152250000Y-90938072D01*
X155250000Y-90938072D01*
X155423254Y-90921008D01*
X155589850Y-90870472D01*
X155615000Y-90857029D01*
X155615001Y-97196423D01*
X155489850Y-97129528D01*
X155323254Y-97078992D01*
X155150000Y-97061928D01*
X152150000Y-97061928D01*
X151976746Y-97078992D01*
X151810150Y-97129528D01*
X151656614Y-97211595D01*
X151522038Y-97322038D01*
X151425230Y-97440000D01*
X151203711Y-97440000D01*
X151159774Y-97396063D01*
X150990256Y-97282795D01*
X150801898Y-97204774D01*
X150601939Y-97165000D01*
X150398061Y-97165000D01*
X150198102Y-97204774D01*
X150009744Y-97282795D01*
X149840226Y-97396063D01*
X149696063Y-97540226D01*
X149582795Y-97709744D01*
X149504774Y-97898102D01*
X149465000Y-98098061D01*
X149465000Y-98301939D01*
X149504774Y-98501898D01*
X149582795Y-98690256D01*
X149696063Y-98859774D01*
X149840226Y-99003937D01*
X150009744Y-99117205D01*
X150198102Y-99195226D01*
X150398061Y-99235000D01*
X150601939Y-99235000D01*
X150801898Y-99195226D01*
X150990256Y-99117205D01*
X151159774Y-99003937D01*
X151203711Y-98960000D01*
X151425230Y-98960000D01*
X151522038Y-99077962D01*
X151598813Y-99140969D01*
X151545506Y-99169463D01*
X151448815Y-99248815D01*
X151369463Y-99345506D01*
X151310498Y-99455820D01*
X151274188Y-99575518D01*
X151261928Y-99700000D01*
X151265000Y-99914250D01*
X151423750Y-100073000D01*
X153523000Y-100073000D01*
X153523000Y-100053000D01*
X153777000Y-100053000D01*
X153777000Y-100073000D01*
X153797000Y-100073000D01*
X153797000Y-100327000D01*
X153777000Y-100327000D01*
X153777000Y-101176250D01*
X153935750Y-101335000D01*
X155400000Y-101338072D01*
X155524482Y-101325812D01*
X155615001Y-101298353D01*
X155615001Y-104483523D01*
X155556603Y-104425125D01*
X155182353Y-104175059D01*
X154766510Y-104002811D01*
X154325053Y-103915000D01*
X153874947Y-103915000D01*
X153433490Y-104002811D01*
X153017647Y-104175059D01*
X152643397Y-104425125D01*
X152325125Y-104743397D01*
X152075059Y-105117647D01*
X151902811Y-105533490D01*
X151815000Y-105974947D01*
X151815000Y-106425053D01*
X151902811Y-106866510D01*
X152075059Y-107282353D01*
X152325125Y-107656603D01*
X152383522Y-107715000D01*
X128627000Y-107715000D01*
X128627000Y-106340892D01*
X128723061Y-106360000D01*
X128926939Y-106360000D01*
X129107962Y-106323993D01*
X129118110Y-106357448D01*
X129186316Y-106485051D01*
X129278104Y-106596896D01*
X129389949Y-106688684D01*
X129517552Y-106756890D01*
X129656009Y-106798890D01*
X129800000Y-106813072D01*
X131075000Y-106813072D01*
X131218991Y-106798890D01*
X131357448Y-106756890D01*
X131485051Y-106688684D01*
X131596896Y-106596896D01*
X131688684Y-106485051D01*
X131756890Y-106357448D01*
X131798890Y-106218991D01*
X131813072Y-106075000D01*
X131813072Y-105875000D01*
X131798890Y-105731009D01*
X131774316Y-105650000D01*
X131798890Y-105568991D01*
X131813072Y-105425000D01*
X131813072Y-105225000D01*
X131798890Y-105081009D01*
X131774316Y-105000000D01*
X131798890Y-104918991D01*
X131813072Y-104775000D01*
X131813072Y-104575000D01*
X131798890Y-104431009D01*
X131774316Y-104350000D01*
X131798890Y-104268991D01*
X131813072Y-104125000D01*
X131813072Y-103925000D01*
X134786928Y-103925000D01*
X134786928Y-104125000D01*
X134801110Y-104268991D01*
X134825684Y-104350000D01*
X134801110Y-104431009D01*
X134786928Y-104575000D01*
X134786928Y-104775000D01*
X134801110Y-104918991D01*
X134825684Y-105000000D01*
X134801110Y-105081009D01*
X134786928Y-105225000D01*
X134786928Y-105425000D01*
X134801110Y-105568991D01*
X134825684Y-105650000D01*
X134801110Y-105731009D01*
X134786928Y-105875000D01*
X134786928Y-106075000D01*
X134801110Y-106218991D01*
X134843110Y-106357448D01*
X134911316Y-106485051D01*
X135003104Y-106596896D01*
X135114949Y-106688684D01*
X135242552Y-106756890D01*
X135381009Y-106798890D01*
X135525000Y-106813072D01*
X136800000Y-106813072D01*
X136943991Y-106798890D01*
X137082448Y-106756890D01*
X137210051Y-106688684D01*
X137321896Y-106596896D01*
X137413684Y-106485051D01*
X137481890Y-106357448D01*
X137523890Y-106218991D01*
X137538072Y-106075000D01*
X137538072Y-105875000D01*
X137523890Y-105731009D01*
X137499316Y-105650000D01*
X137523890Y-105568991D01*
X137537087Y-105435000D01*
X137621289Y-105435000D01*
X137665226Y-105478937D01*
X137834744Y-105592205D01*
X138023102Y-105670226D01*
X138223061Y-105710000D01*
X138426939Y-105710000D01*
X138626898Y-105670226D01*
X138815256Y-105592205D01*
X138984774Y-105478937D01*
X139128937Y-105334774D01*
X139242205Y-105165256D01*
X139320226Y-104976898D01*
X139360000Y-104776939D01*
X139360000Y-104573061D01*
X139320226Y-104373102D01*
X139242205Y-104184744D01*
X139128937Y-104015226D01*
X139048296Y-103934585D01*
X139090256Y-103917205D01*
X139259774Y-103803937D01*
X139403937Y-103659774D01*
X139517205Y-103490256D01*
X139595226Y-103301898D01*
X139635000Y-103101939D01*
X139635000Y-102898061D01*
X139595226Y-102698102D01*
X139517205Y-102509744D01*
X139403937Y-102340226D01*
X139259774Y-102196063D01*
X139090256Y-102082795D01*
X139011083Y-102050000D01*
X145561928Y-102050000D01*
X145561928Y-103050000D01*
X145578992Y-103223254D01*
X145629528Y-103389850D01*
X145711595Y-103543386D01*
X145822038Y-103677962D01*
X145956614Y-103788405D01*
X146110150Y-103870472D01*
X146276746Y-103921008D01*
X146450000Y-103938072D01*
X149350000Y-103938072D01*
X149523254Y-103921008D01*
X149689850Y-103870472D01*
X149843386Y-103788405D01*
X149977962Y-103677962D01*
X150088405Y-103543386D01*
X150170472Y-103389850D01*
X150221008Y-103223254D01*
X150238072Y-103050000D01*
X150238072Y-102050000D01*
X150221008Y-101876746D01*
X150170472Y-101710150D01*
X150088405Y-101556614D01*
X149977962Y-101422038D01*
X149843386Y-101311595D01*
X149689850Y-101229528D01*
X149523254Y-101178992D01*
X149350000Y-101161928D01*
X146450000Y-101161928D01*
X146276746Y-101178992D01*
X146110150Y-101229528D01*
X145956614Y-101311595D01*
X145822038Y-101422038D01*
X145711595Y-101556614D01*
X145629528Y-101710150D01*
X145578992Y-101876746D01*
X145561928Y-102050000D01*
X139011083Y-102050000D01*
X138901898Y-102004774D01*
X138701939Y-101965000D01*
X138498061Y-101965000D01*
X138298102Y-102004774D01*
X138109744Y-102082795D01*
X137940226Y-102196063D01*
X137889037Y-102247252D01*
X137851014Y-102250997D01*
X137707753Y-102294454D01*
X137575723Y-102365026D01*
X137492083Y-102433668D01*
X137459999Y-102459999D01*
X137436201Y-102488997D01*
X136738271Y-103186928D01*
X135525000Y-103186928D01*
X135381009Y-103201110D01*
X135242552Y-103243110D01*
X135114949Y-103311316D01*
X135003104Y-103403104D01*
X134911316Y-103514949D01*
X134843110Y-103642552D01*
X134801110Y-103781009D01*
X134786928Y-103925000D01*
X131813072Y-103925000D01*
X131798890Y-103781009D01*
X131756890Y-103642552D01*
X131688684Y-103514949D01*
X131596896Y-103403104D01*
X131485051Y-103311316D01*
X131463113Y-103299590D01*
X131600000Y-103313072D01*
X132050000Y-103313072D01*
X132218377Y-103296488D01*
X132380283Y-103247375D01*
X132526351Y-103169300D01*
X132570506Y-103205537D01*
X132680820Y-103264502D01*
X132800518Y-103300812D01*
X132925000Y-103313072D01*
X133089250Y-103310000D01*
X133248000Y-103151250D01*
X133248000Y-102327000D01*
X133502000Y-102327000D01*
X133502000Y-103151250D01*
X133660750Y-103310000D01*
X133825000Y-103313072D01*
X133949482Y-103300812D01*
X134069180Y-103264502D01*
X134179494Y-103205537D01*
X134276185Y-103126185D01*
X134355537Y-103029494D01*
X134414502Y-102919180D01*
X134450812Y-102799482D01*
X134463072Y-102675000D01*
X134460000Y-102485750D01*
X134301250Y-102327000D01*
X133502000Y-102327000D01*
X133248000Y-102327000D01*
X133228000Y-102327000D01*
X133228000Y-102073000D01*
X133248000Y-102073000D01*
X133248000Y-102053000D01*
X133502000Y-102053000D01*
X133502000Y-102073000D01*
X134301250Y-102073000D01*
X134460000Y-101914250D01*
X134463072Y-101725000D01*
X134453332Y-101626103D01*
X134498061Y-101635000D01*
X134701939Y-101635000D01*
X134901898Y-101595226D01*
X135090256Y-101517205D01*
X135259774Y-101403937D01*
X135403937Y-101259774D01*
X135517205Y-101090256D01*
X135595226Y-100901898D01*
X135635000Y-100701939D01*
X135635000Y-100700000D01*
X151261928Y-100700000D01*
X151274188Y-100824482D01*
X151310498Y-100944180D01*
X151369463Y-101054494D01*
X151448815Y-101151185D01*
X151545506Y-101230537D01*
X151655820Y-101289502D01*
X151775518Y-101325812D01*
X151900000Y-101338072D01*
X153364250Y-101335000D01*
X153523000Y-101176250D01*
X153523000Y-100327000D01*
X151423750Y-100327000D01*
X151265000Y-100485750D01*
X151261928Y-100700000D01*
X135635000Y-100700000D01*
X135635000Y-100498061D01*
X135595226Y-100298102D01*
X135517205Y-100109744D01*
X135403937Y-99940226D01*
X135259774Y-99796063D01*
X135090256Y-99682795D01*
X134901898Y-99604774D01*
X134701939Y-99565000D01*
X134498061Y-99565000D01*
X134298102Y-99604774D01*
X134130466Y-99674211D01*
X134079497Y-99632382D01*
X133930283Y-99552625D01*
X133768377Y-99503512D01*
X133600000Y-99486928D01*
X133336729Y-99486928D01*
X133110000Y-99260199D01*
X133110000Y-97194468D01*
X133126185Y-97181185D01*
X133205537Y-97084494D01*
X133264502Y-96974180D01*
X133300812Y-96854482D01*
X133313072Y-96730000D01*
X133313072Y-95170000D01*
X133300812Y-95045518D01*
X133264502Y-94925820D01*
X133205537Y-94815506D01*
X133126185Y-94718815D01*
X133029494Y-94639463D01*
X132955665Y-94600000D01*
X133029494Y-94560537D01*
X133126185Y-94481185D01*
X133205537Y-94384494D01*
X133206985Y-94381786D01*
X135065000Y-96239802D01*
X135065000Y-96301939D01*
X135104774Y-96501898D01*
X135182795Y-96690256D01*
X135296063Y-96859774D01*
X135440226Y-97003937D01*
X135609744Y-97117205D01*
X135798102Y-97195226D01*
X135998061Y-97235000D01*
X136201939Y-97235000D01*
X136401898Y-97195226D01*
X136590256Y-97117205D01*
X136759774Y-97003937D01*
X136903937Y-96859774D01*
X137017205Y-96690256D01*
X137095226Y-96501898D01*
X137135000Y-96301939D01*
X137135000Y-96098061D01*
X137095226Y-95898102D01*
X137017205Y-95709744D01*
X136903937Y-95540226D01*
X136759774Y-95396063D01*
X136690836Y-95350000D01*
X145561928Y-95350000D01*
X145561928Y-96350000D01*
X145578992Y-96523254D01*
X145629528Y-96689850D01*
X145711595Y-96843386D01*
X145822038Y-96977962D01*
X145956614Y-97088405D01*
X146110150Y-97170472D01*
X146276746Y-97221008D01*
X146450000Y-97238072D01*
X149350000Y-97238072D01*
X149523254Y-97221008D01*
X149689850Y-97170472D01*
X149843386Y-97088405D01*
X149977962Y-96977962D01*
X150088405Y-96843386D01*
X150170472Y-96689850D01*
X150221008Y-96523254D01*
X150238072Y-96350000D01*
X150238072Y-95350000D01*
X150221008Y-95176746D01*
X150170472Y-95010150D01*
X150088405Y-94856614D01*
X149977962Y-94722038D01*
X149843386Y-94611595D01*
X149689850Y-94529528D01*
X149523254Y-94478992D01*
X149350000Y-94461928D01*
X146450000Y-94461928D01*
X146276746Y-94478992D01*
X146110150Y-94529528D01*
X145956614Y-94611595D01*
X145822038Y-94722038D01*
X145711595Y-94856614D01*
X145629528Y-95010150D01*
X145578992Y-95176746D01*
X145561928Y-95350000D01*
X136690836Y-95350000D01*
X136590256Y-95282795D01*
X136401898Y-95204774D01*
X136201939Y-95165000D01*
X136139802Y-95165000D01*
X133713804Y-92739003D01*
X133690001Y-92709999D01*
X133574276Y-92615026D01*
X133442247Y-92544454D01*
X133346688Y-92515467D01*
X133359984Y-92499266D01*
X133430556Y-92367237D01*
X133474013Y-92223976D01*
X133485010Y-92112323D01*
X133485010Y-92112315D01*
X133488686Y-92074990D01*
X133485010Y-92037665D01*
X133485010Y-91650000D01*
X145661928Y-91650000D01*
X145661928Y-92650000D01*
X145678992Y-92823254D01*
X145729528Y-92989850D01*
X145811595Y-93143386D01*
X145922038Y-93277962D01*
X146056614Y-93388405D01*
X146210150Y-93470472D01*
X146376746Y-93521008D01*
X146550000Y-93538072D01*
X149450000Y-93538072D01*
X149623254Y-93521008D01*
X149789850Y-93470472D01*
X149943386Y-93388405D01*
X150077962Y-93277962D01*
X150188405Y-93143386D01*
X150270472Y-92989850D01*
X150321008Y-92823254D01*
X150338072Y-92650000D01*
X150338072Y-91650000D01*
X150321008Y-91476746D01*
X150270472Y-91310150D01*
X150188405Y-91156614D01*
X150077962Y-91022038D01*
X149943386Y-90911595D01*
X149789850Y-90829528D01*
X149623254Y-90778992D01*
X149450000Y-90761928D01*
X146550000Y-90761928D01*
X146376746Y-90778992D01*
X146210150Y-90829528D01*
X146056614Y-90911595D01*
X145922038Y-91022038D01*
X145811595Y-91156614D01*
X145729528Y-91310150D01*
X145678992Y-91476746D01*
X145661928Y-91650000D01*
X133485010Y-91650000D01*
X133485010Y-90859498D01*
X133488686Y-90822175D01*
X133485010Y-90784852D01*
X133485010Y-90784843D01*
X133474013Y-90673190D01*
X133430556Y-90529929D01*
X133359984Y-90397900D01*
X133265011Y-90282175D01*
X133236014Y-90258378D01*
X133050928Y-90073293D01*
X133063072Y-89950000D01*
X133063072Y-89450000D01*
X133046488Y-89281623D01*
X133009595Y-89160000D01*
X135635680Y-89160000D01*
X135673002Y-89163676D01*
X135710324Y-89160000D01*
X135710335Y-89160000D01*
X135821988Y-89149003D01*
X135965249Y-89105546D01*
X136097278Y-89034974D01*
X136213003Y-88940001D01*
X136236806Y-88910998D01*
X137286004Y-87861800D01*
X137315002Y-87838002D01*
X137354186Y-87790256D01*
X137409975Y-87722278D01*
X137480547Y-87590248D01*
X137505571Y-87507753D01*
X137524004Y-87446987D01*
X137535001Y-87335334D01*
X137535001Y-87335324D01*
X137538677Y-87298001D01*
X137535001Y-87260678D01*
X137535001Y-84947323D01*
X137538677Y-84910000D01*
X137535001Y-84872678D01*
X137535001Y-84872668D01*
X137524004Y-84761015D01*
X137480547Y-84617754D01*
X137409975Y-84485725D01*
X137315002Y-84370000D01*
X137286003Y-84346201D01*
X137264801Y-84325000D01*
X143037009Y-84325000D01*
X149023011Y-90311003D01*
G37*
%TD.AperFunction*%
D20*
X129369594Y-88671394D02*
X129402625Y-88780283D01*
X129482382Y-88929497D01*
X129499208Y-88950000D01*
X129482382Y-88970503D01*
X129402625Y-89119717D01*
X129353512Y-89281623D01*
X129336928Y-89450000D01*
X129336928Y-89950000D01*
X129353512Y-90118377D01*
X129402625Y-90280283D01*
X129482382Y-90429497D01*
X129527742Y-90484769D01*
X129457382Y-90570503D01*
X129377625Y-90719717D01*
X129328512Y-90881623D01*
X129311928Y-91050000D01*
X129311928Y-91550000D01*
X129328512Y-91718377D01*
X129377625Y-91880283D01*
X129457382Y-92029497D01*
X129564716Y-92160284D01*
X129568756Y-92163600D01*
X129535498Y-92225820D01*
X129499188Y-92345518D01*
X129486928Y-92470000D01*
X129486928Y-93138271D01*
X129288997Y-93336202D01*
X129259999Y-93360000D01*
X129236201Y-93388998D01*
X129236200Y-93388999D01*
X129165025Y-93475725D01*
X129094453Y-93607755D01*
X129050997Y-93751016D01*
X129036323Y-93900001D01*
X129040000Y-93937333D01*
X129039999Y-103350177D01*
X129036323Y-103387499D01*
X129039999Y-103424821D01*
X129039999Y-103424831D01*
X129050996Y-103536484D01*
X129070483Y-103600724D01*
X129094453Y-103679745D01*
X129102348Y-103694515D01*
X129076110Y-103781009D01*
X129061928Y-103925000D01*
X129061928Y-104125000D01*
X129076110Y-104268991D01*
X129092471Y-104322926D01*
X128926939Y-104290000D01*
X128723061Y-104290000D01*
X128627000Y-104309108D01*
X128627000Y-88074801D01*
X128666802Y-88034999D01*
X128733200Y-88034999D01*
X129369594Y-88671394D01*
%TA.AperFunction,Conductor*%
D21*
G36*
X129369594Y-88671394D02*
G01*
X129402625Y-88780283D01*
X129482382Y-88929497D01*
X129499208Y-88950000D01*
X129482382Y-88970503D01*
X129402625Y-89119717D01*
X129353512Y-89281623D01*
X129336928Y-89450000D01*
X129336928Y-89950000D01*
X129353512Y-90118377D01*
X129402625Y-90280283D01*
X129482382Y-90429497D01*
X129527742Y-90484769D01*
X129457382Y-90570503D01*
X129377625Y-90719717D01*
X129328512Y-90881623D01*
X129311928Y-91050000D01*
X129311928Y-91550000D01*
X129328512Y-91718377D01*
X129377625Y-91880283D01*
X129457382Y-92029497D01*
X129564716Y-92160284D01*
X129568756Y-92163600D01*
X129535498Y-92225820D01*
X129499188Y-92345518D01*
X129486928Y-92470000D01*
X129486928Y-93138271D01*
X129288997Y-93336202D01*
X129259999Y-93360000D01*
X129236201Y-93388998D01*
X129236200Y-93388999D01*
X129165025Y-93475725D01*
X129094453Y-93607755D01*
X129050997Y-93751016D01*
X129036323Y-93900001D01*
X129040000Y-93937333D01*
X129039999Y-103350177D01*
X129036323Y-103387499D01*
X129039999Y-103424821D01*
X129039999Y-103424831D01*
X129050996Y-103536484D01*
X129070483Y-103600724D01*
X129094453Y-103679745D01*
X129102348Y-103694515D01*
X129076110Y-103781009D01*
X129061928Y-103925000D01*
X129061928Y-104125000D01*
X129076110Y-104268991D01*
X129092471Y-104322926D01*
X128926939Y-104290000D01*
X128723061Y-104290000D01*
X128627000Y-104309108D01*
X128627000Y-88074801D01*
X128666802Y-88034999D01*
X128733200Y-88034999D01*
X129369594Y-88671394D01*
G37*
%TD.AperFunction*%
D20*
X131965010Y-91384999D02*
X131803000Y-91384999D01*
X131803000Y-91173000D01*
X131823000Y-91173000D01*
X131823000Y-91153000D01*
X131965010Y-91153000D01*
X131965010Y-91384999D01*
%TA.AperFunction,Conductor*%
D21*
G36*
X131965010Y-91384999D02*
G01*
X131803000Y-91384999D01*
X131803000Y-91173000D01*
X131823000Y-91173000D01*
X131823000Y-91153000D01*
X131965010Y-91153000D01*
X131965010Y-91384999D01*
G37*
%TD.AperFunction*%
D20*
X152168568Y-80577701D02*
X152075059Y-80717647D01*
X151902811Y-81133490D01*
X151815000Y-81574947D01*
X151815000Y-82025053D01*
X151902811Y-82466510D01*
X152075059Y-82882353D01*
X152325125Y-83256603D01*
X152643397Y-83574875D01*
X153017647Y-83824941D01*
X153433490Y-83997189D01*
X153874947Y-84085000D01*
X154325053Y-84085000D01*
X154766510Y-83997189D01*
X155182353Y-83824941D01*
X155556603Y-83574875D01*
X155615000Y-83516478D01*
X155615000Y-86742971D01*
X155589850Y-86729528D01*
X155423254Y-86678992D01*
X155250000Y-86661928D01*
X153049920Y-86661928D01*
X148076994Y-81689003D01*
X148053191Y-81659999D01*
X147937466Y-81565026D01*
X147805437Y-81494454D01*
X147662176Y-81450997D01*
X147550523Y-81440000D01*
X147550512Y-81440000D01*
X147513190Y-81436324D01*
X147475868Y-81440000D01*
X140992585Y-81440000D01*
X140910284Y-81339716D01*
X140779497Y-81232382D01*
X140630283Y-81152625D01*
X140468377Y-81103512D01*
X140300000Y-81086928D01*
X140036729Y-81086928D01*
X139838793Y-80888992D01*
X139814991Y-80859989D01*
X139699266Y-80765016D01*
X139567237Y-80694444D01*
X139423976Y-80650987D01*
X139312323Y-80639990D01*
X139312312Y-80639990D01*
X139274990Y-80636314D01*
X139237668Y-80639990D01*
X136632332Y-80639990D01*
X136595009Y-80636314D01*
X136557686Y-80639990D01*
X136557677Y-80639990D01*
X136446024Y-80650987D01*
X136302763Y-80694444D01*
X136170734Y-80765016D01*
X136055009Y-80859989D01*
X136031211Y-80888987D01*
X135588271Y-81331928D01*
X134950000Y-81331928D01*
X134825518Y-81344188D01*
X134705820Y-81380498D01*
X134595506Y-81439463D01*
X134498815Y-81518815D01*
X134419463Y-81615506D01*
X134360498Y-81725820D01*
X134349545Y-81761928D01*
X131650455Y-81761928D01*
X131639502Y-81725820D01*
X131580537Y-81615506D01*
X131501185Y-81518815D01*
X131404494Y-81439463D01*
X131294180Y-81380498D01*
X131174482Y-81344188D01*
X131050000Y-81331928D01*
X130585750Y-81335000D01*
X130427000Y-81493750D01*
X130427000Y-82168000D01*
X130447000Y-82168000D01*
X130447000Y-82422000D01*
X130427000Y-82422000D01*
X130427000Y-82442000D01*
X130173000Y-82442000D01*
X130173000Y-82422000D01*
X129073750Y-82422000D01*
X128915000Y-82580750D01*
X128911928Y-82620000D01*
X128924188Y-82744482D01*
X128960498Y-82864180D01*
X128995680Y-82930000D01*
X128960498Y-82995820D01*
X128924188Y-83115518D01*
X128911928Y-83240000D01*
X128911928Y-83890000D01*
X128924188Y-84014482D01*
X128960498Y-84134180D01*
X128995680Y-84200000D01*
X128960498Y-84265820D01*
X128924188Y-84385518D01*
X128911928Y-84510000D01*
X128911928Y-85160000D01*
X128924188Y-85284482D01*
X128960498Y-85404180D01*
X128995680Y-85470000D01*
X128960498Y-85535820D01*
X128924188Y-85655518D01*
X128911928Y-85780000D01*
X128911928Y-86430000D01*
X128920299Y-86514999D01*
X128627000Y-86514999D01*
X128627000Y-81970000D01*
X128911928Y-81970000D01*
X128915000Y-82009250D01*
X129073750Y-82168000D01*
X130173000Y-82168000D01*
X130173000Y-81493750D01*
X130014250Y-81335000D01*
X129550000Y-81331928D01*
X129425518Y-81344188D01*
X129305820Y-81380498D01*
X129195506Y-81439463D01*
X129098815Y-81518815D01*
X129019463Y-81615506D01*
X128960498Y-81725820D01*
X128924188Y-81845518D01*
X128911928Y-81970000D01*
X128627000Y-81970000D01*
X128627000Y-80536108D01*
X152168568Y-80577701D01*
%TA.AperFunction,Conductor*%
D21*
G36*
X152168568Y-80577701D02*
G01*
X152075059Y-80717647D01*
X151902811Y-81133490D01*
X151815000Y-81574947D01*
X151815000Y-82025053D01*
X151902811Y-82466510D01*
X152075059Y-82882353D01*
X152325125Y-83256603D01*
X152643397Y-83574875D01*
X153017647Y-83824941D01*
X153433490Y-83997189D01*
X153874947Y-84085000D01*
X154325053Y-84085000D01*
X154766510Y-83997189D01*
X155182353Y-83824941D01*
X155556603Y-83574875D01*
X155615000Y-83516478D01*
X155615000Y-86742971D01*
X155589850Y-86729528D01*
X155423254Y-86678992D01*
X155250000Y-86661928D01*
X153049920Y-86661928D01*
X148076994Y-81689003D01*
X148053191Y-81659999D01*
X147937466Y-81565026D01*
X147805437Y-81494454D01*
X147662176Y-81450997D01*
X147550523Y-81440000D01*
X147550512Y-81440000D01*
X147513190Y-81436324D01*
X147475868Y-81440000D01*
X140992585Y-81440000D01*
X140910284Y-81339716D01*
X140779497Y-81232382D01*
X140630283Y-81152625D01*
X140468377Y-81103512D01*
X140300000Y-81086928D01*
X140036729Y-81086928D01*
X139838793Y-80888992D01*
X139814991Y-80859989D01*
X139699266Y-80765016D01*
X139567237Y-80694444D01*
X139423976Y-80650987D01*
X139312323Y-80639990D01*
X139312312Y-80639990D01*
X139274990Y-80636314D01*
X139237668Y-80639990D01*
X136632332Y-80639990D01*
X136595009Y-80636314D01*
X136557686Y-80639990D01*
X136557677Y-80639990D01*
X136446024Y-80650987D01*
X136302763Y-80694444D01*
X136170734Y-80765016D01*
X136055009Y-80859989D01*
X136031211Y-80888987D01*
X135588271Y-81331928D01*
X134950000Y-81331928D01*
X134825518Y-81344188D01*
X134705820Y-81380498D01*
X134595506Y-81439463D01*
X134498815Y-81518815D01*
X134419463Y-81615506D01*
X134360498Y-81725820D01*
X134349545Y-81761928D01*
X131650455Y-81761928D01*
X131639502Y-81725820D01*
X131580537Y-81615506D01*
X131501185Y-81518815D01*
X131404494Y-81439463D01*
X131294180Y-81380498D01*
X131174482Y-81344188D01*
X131050000Y-81331928D01*
X130585750Y-81335000D01*
X130427000Y-81493750D01*
X130427000Y-82168000D01*
X130447000Y-82168000D01*
X130447000Y-82422000D01*
X130427000Y-82422000D01*
X130427000Y-82442000D01*
X130173000Y-82442000D01*
X130173000Y-82422000D01*
X129073750Y-82422000D01*
X128915000Y-82580750D01*
X128911928Y-82620000D01*
X128924188Y-82744482D01*
X128960498Y-82864180D01*
X128995680Y-82930000D01*
X128960498Y-82995820D01*
X128924188Y-83115518D01*
X128911928Y-83240000D01*
X128911928Y-83890000D01*
X128924188Y-84014482D01*
X128960498Y-84134180D01*
X128995680Y-84200000D01*
X128960498Y-84265820D01*
X128924188Y-84385518D01*
X128911928Y-84510000D01*
X128911928Y-85160000D01*
X128924188Y-85284482D01*
X128960498Y-85404180D01*
X128995680Y-85470000D01*
X128960498Y-85535820D01*
X128924188Y-85655518D01*
X128911928Y-85780000D01*
X128911928Y-86430000D01*
X128920299Y-86514999D01*
X128627000Y-86514999D01*
X128627000Y-81970000D01*
X128911928Y-81970000D01*
X128915000Y-82009250D01*
X129073750Y-82168000D01*
X130173000Y-82168000D01*
X130173000Y-81493750D01*
X130014250Y-81335000D01*
X129550000Y-81331928D01*
X129425518Y-81344188D01*
X129305820Y-81380498D01*
X129195506Y-81439463D01*
X129098815Y-81518815D01*
X129019463Y-81615506D01*
X128960498Y-81725820D01*
X128924188Y-81845518D01*
X128911928Y-81970000D01*
X128627000Y-81970000D01*
X128627000Y-80536108D01*
X152168568Y-80577701D01*
G37*
%TD.AperFunction*%
%TD*%
D22*
X101800000Y-81900000D03*
X101800000Y-106300000D03*
X154100000Y-81800000D03*
X154100000Y-106200000D03*
X135700000Y-87300000D03*
X151100000Y-89800000D03*
X128825000Y-105325000D03*
X129300000Y-82295000D03*
X128700000Y-88000000D03*
X126525001Y-104625001D03*
X149649999Y-106050001D03*
X139425010Y-101474990D03*
X138325000Y-104675000D03*
X150500000Y-98200000D03*
X134600000Y-100600000D03*
X138600000Y-103000000D03*
X136100000Y-96200000D03*
X118900000Y-105800000D03*
X112100000Y-105800000D03*
X126400000Y-100240000D03*
X126400000Y-97700000D03*
X126400000Y-95160000D03*
X126400000Y-92620000D03*
X126400000Y-90080000D03*
X126400000Y-87540000D03*
X126400000Y-85000000D03*
M02*
