%TF.GenerationSoftware,KiCad,Pcbnew,(5.1.10-1-10_14)*%
%TF.CreationDate,2021-06-07T15:14:56+08:00*%
%TF.ProjectId,ultrasonic,756c7472-6173-46f6-9e69-632e6b696361,rev?*%
%TF.SameCoordinates,Original*%
%TF.FileFunction,Soldermask,Bot*%
%TF.FilePolarity,Negative*%
%FSLAX46Y46*%
G04 Gerber Fmt 4.6, Leading zero omitted, Abs format (unit mm)*
G04 Created by KiCad (PCBNEW (5.1.10-1-10_14)) date 2021-06-07 15:14:56*
%MOMM*%
%LPD*%
G01*
G04 APERTURE LIST*
%ADD10O,1.750000X1.200000*%
%ADD11O,1.700000X1.700000*%
%ADD12R,1.700000X1.700000*%
G04 APERTURE END LIST*
D10*
%TO.C,J3*%
X57500000Y-120600000D03*
X57500000Y-118600000D03*
X57500000Y-116600000D03*
X57500000Y-114600000D03*
X57500000Y-112600000D03*
X57500000Y-110600000D03*
G36*
G01*
X56874999Y-108000000D02*
X58125001Y-108000000D01*
G75*
G02*
X58375000Y-108249999I0J-249999D01*
G01*
X58375000Y-108950001D01*
G75*
G02*
X58125001Y-109200000I-249999J0D01*
G01*
X56874999Y-109200000D01*
G75*
G02*
X56625000Y-108950001I0J249999D01*
G01*
X56625000Y-108249999D01*
G75*
G02*
X56874999Y-108000000I249999J0D01*
G01*
G37*
%TD*%
%TO.C,J5*%
X103900000Y-112000000D03*
X103900000Y-114000000D03*
X103900000Y-116000000D03*
G36*
G01*
X104525001Y-118600000D02*
X103274999Y-118600000D01*
G75*
G02*
X103025000Y-118350001I0J249999D01*
G01*
X103025000Y-117649999D01*
G75*
G02*
X103274999Y-117400000I249999J0D01*
G01*
X104525001Y-117400000D01*
G75*
G02*
X104775000Y-117649999I0J-249999D01*
G01*
X104775000Y-118350001D01*
G75*
G02*
X104525001Y-118600000I-249999J0D01*
G01*
G37*
%TD*%
D11*
%TO.C,J2*%
X108440000Y-101800000D03*
X105900000Y-101800000D03*
X103360000Y-101800000D03*
X100820000Y-101800000D03*
X98280000Y-101800000D03*
X95740000Y-101800000D03*
X93200000Y-101800000D03*
X90660000Y-101800000D03*
X88120000Y-101800000D03*
X85580000Y-101800000D03*
X83040000Y-101800000D03*
X80500000Y-101800000D03*
X77960000Y-101800000D03*
X75420000Y-101800000D03*
X72880000Y-101800000D03*
X70340000Y-101800000D03*
X67800000Y-101800000D03*
X65260000Y-101800000D03*
X62720000Y-101800000D03*
X60180000Y-101800000D03*
X57640000Y-101800000D03*
X55100000Y-101800000D03*
D12*
X52560000Y-101800000D03*
%TD*%
D11*
%TO.C,J1*%
X108380000Y-127500000D03*
X105840000Y-127500000D03*
X103300000Y-127500000D03*
X100760000Y-127500000D03*
X98220000Y-127500000D03*
X95680000Y-127500000D03*
X93140000Y-127500000D03*
X90600000Y-127500000D03*
X88060000Y-127500000D03*
X85520000Y-127500000D03*
X82980000Y-127500000D03*
X80440000Y-127500000D03*
X77900000Y-127500000D03*
X75360000Y-127500000D03*
X72820000Y-127500000D03*
X70280000Y-127500000D03*
X67740000Y-127500000D03*
X65200000Y-127500000D03*
X62660000Y-127500000D03*
X60120000Y-127500000D03*
X57580000Y-127500000D03*
X55040000Y-127500000D03*
D12*
X52500000Y-127500000D03*
%TD*%
M02*
