%TF.GenerationSoftware,KiCad,Pcbnew,(5.1.10-1-10_14)*%
%TF.CreationDate,2021-06-10T15:38:12+08:00*%
%TF.ProjectId,ultrasonic,756c7472-6173-46f6-9e69-632e6b696361,rev?*%
%TF.SameCoordinates,Original*%
%TF.FileFunction,Copper,L1,Top*%
%TF.FilePolarity,Positive*%
%FSLAX46Y46*%
G04 Gerber Fmt 4.6, Leading zero omitted, Abs format (unit mm)*
G04 Created by KiCad (PCBNEW (5.1.10-1-10_14)) date 2021-06-10 15:38:12*
%MOMM*%
%LPD*%
G01*
G04 APERTURE LIST*
%TA.AperFunction,SMDPad,CuDef*%
%ADD10R,1.000000X1.900000*%
%TD*%
%TA.AperFunction,SMDPad,CuDef*%
%ADD11R,1.000000X2.510000*%
%TD*%
%TA.AperFunction,ViaPad*%
%ADD12C,0.800000*%
%TD*%
%TA.AperFunction,ViaPad*%
%ADD13C,3.300000*%
%TD*%
%TA.AperFunction,Conductor*%
%ADD14C,0.250000*%
%TD*%
%TA.AperFunction,Conductor*%
%ADD15C,0.254000*%
%TD*%
%TA.AperFunction,Conductor*%
%ADD16C,0.350000*%
%TD*%
%ADD17C,0.350000*%
G04 APERTURE END LIST*
D10*
%TO.P,J1,23*%
%TO.N,GND*%
X108440000Y-124850000D03*
%TO.P,J1,21*%
%TO.N,/IO18*%
X103360000Y-124850000D03*
%TO.P,J1,19*%
%TO.N,N/C*%
X98280000Y-124850000D03*
%TO.P,J1,17*%
X93200000Y-124850000D03*
%TO.P,J1,15*%
X88120000Y-124850000D03*
%TO.P,J1,13*%
X83040000Y-124850000D03*
%TO.P,J1,11*%
X77960000Y-124850000D03*
%TO.P,J1,9*%
X72880000Y-124850000D03*
%TO.P,J1,7*%
X67800000Y-124850000D03*
%TO.P,J1,5*%
X62720000Y-124850000D03*
%TO.P,J1,3*%
X57640000Y-124850000D03*
%TO.P,J1,1*%
%TO.N,GND*%
X52560000Y-124850000D03*
%TO.P,J1,22*%
%TO.N,+5V*%
X105900000Y-128150000D03*
%TO.P,J1,20*%
%TO.N,/IO17*%
X100820000Y-128150000D03*
%TO.P,J1,18*%
%TO.N,N/C*%
X95740000Y-128150000D03*
%TO.P,J1,16*%
X90660000Y-128150000D03*
%TO.P,J1,14*%
X85580000Y-128150000D03*
%TO.P,J1,12*%
X80500000Y-128150000D03*
%TO.P,J1,10*%
X75420000Y-128150000D03*
%TO.P,J1,8*%
X70340000Y-128150000D03*
%TO.P,J1,6*%
X65260000Y-128150000D03*
%TO.P,J1,4*%
X60180000Y-128150000D03*
%TO.P,J1,2*%
%TO.N,+3V3*%
X55100000Y-128150000D03*
%TD*%
D11*
%TO.P,J2,22*%
%TO.N,+5V*%
X106000000Y-95045000D03*
%TO.P,J2,20*%
%TO.N,N/C*%
X100920000Y-95045000D03*
%TO.P,J2,18*%
X95840000Y-95045000D03*
%TO.P,J2,16*%
X90760000Y-95045000D03*
%TO.P,J2,14*%
%TO.N,/IO36*%
X85680000Y-95045000D03*
%TO.P,J2,12*%
%TO.N,/IO38*%
X80600000Y-95045000D03*
%TO.P,J2,10*%
%TO.N,N/C*%
X75520000Y-95045000D03*
%TO.P,J2,8*%
X70440000Y-95045000D03*
%TO.P,J2,6*%
X65360000Y-95045000D03*
%TO.P,J2,4*%
X60280000Y-95045000D03*
%TO.P,J2,2*%
%TO.N,+3V3*%
X55200000Y-95045000D03*
%TO.P,J2,23*%
%TO.N,GND*%
X108540000Y-98355000D03*
%TO.P,J2,21*%
%TO.N,N/C*%
X103460000Y-98355000D03*
%TO.P,J2,19*%
X98380000Y-98355000D03*
%TO.P,J2,17*%
X93300000Y-98355000D03*
%TO.P,J2,15*%
%TO.N,/IO35*%
X88220000Y-98355000D03*
%TO.P,J2,13*%
%TO.N,/IO37*%
X83140000Y-98355000D03*
%TO.P,J2,11*%
%TO.N,/IO39*%
X78060000Y-98355000D03*
%TO.P,J2,9*%
%TO.N,N/C*%
X72980000Y-98355000D03*
%TO.P,J2,7*%
X67900000Y-98355000D03*
%TO.P,J2,5*%
X62820000Y-98355000D03*
%TO.P,J2,3*%
X57740000Y-98355000D03*
%TO.P,J2,1*%
%TO.N,GND*%
X52660000Y-98355000D03*
%TD*%
%TO.P,J5,MP*%
%TO.N,N/C*%
%TA.AperFunction,SMDPad,CuDef*%
G36*
G01*
X109950000Y-107000000D02*
X107050000Y-107000000D01*
G75*
G02*
X106800000Y-106750000I0J250000D01*
G01*
X106800000Y-105750000D01*
G75*
G02*
X107050000Y-105500000I250000J0D01*
G01*
X109950000Y-105500000D01*
G75*
G02*
X110200000Y-105750000I0J-250000D01*
G01*
X110200000Y-106750000D01*
G75*
G02*
X109950000Y-107000000I-250000J0D01*
G01*
G37*
%TD.AperFunction*%
%TA.AperFunction,SMDPad,CuDef*%
G36*
G01*
X109950000Y-117700000D02*
X107050000Y-117700000D01*
G75*
G02*
X106800000Y-117450000I0J250000D01*
G01*
X106800000Y-116450000D01*
G75*
G02*
X107050000Y-116200000I250000J0D01*
G01*
X109950000Y-116200000D01*
G75*
G02*
X110200000Y-116450000I0J-250000D01*
G01*
X110200000Y-117450000D01*
G75*
G02*
X109950000Y-117700000I-250000J0D01*
G01*
G37*
%TD.AperFunction*%
%TO.P,J5,4*%
%TO.N,+5V*%
%TA.AperFunction,SMDPad,CuDef*%
G36*
G01*
X104250000Y-109100000D02*
X101250000Y-109100000D01*
G75*
G02*
X101000000Y-108850000I0J250000D01*
G01*
X101000000Y-108350000D01*
G75*
G02*
X101250000Y-108100000I250000J0D01*
G01*
X104250000Y-108100000D01*
G75*
G02*
X104500000Y-108350000I0J-250000D01*
G01*
X104500000Y-108850000D01*
G75*
G02*
X104250000Y-109100000I-250000J0D01*
G01*
G37*
%TD.AperFunction*%
%TO.P,J5,3*%
%TO.N,/IO17*%
%TA.AperFunction,SMDPad,CuDef*%
G36*
G01*
X104250000Y-111100000D02*
X101250000Y-111100000D01*
G75*
G02*
X101000000Y-110850000I0J250000D01*
G01*
X101000000Y-110350000D01*
G75*
G02*
X101250000Y-110100000I250000J0D01*
G01*
X104250000Y-110100000D01*
G75*
G02*
X104500000Y-110350000I0J-250000D01*
G01*
X104500000Y-110850000D01*
G75*
G02*
X104250000Y-111100000I-250000J0D01*
G01*
G37*
%TD.AperFunction*%
%TO.P,J5,2*%
%TO.N,/IO18*%
%TA.AperFunction,SMDPad,CuDef*%
G36*
G01*
X104250000Y-113100000D02*
X101250000Y-113100000D01*
G75*
G02*
X101000000Y-112850000I0J250000D01*
G01*
X101000000Y-112350000D01*
G75*
G02*
X101250000Y-112100000I250000J0D01*
G01*
X104250000Y-112100000D01*
G75*
G02*
X104500000Y-112350000I0J-250000D01*
G01*
X104500000Y-112850000D01*
G75*
G02*
X104250000Y-113100000I-250000J0D01*
G01*
G37*
%TD.AperFunction*%
%TO.P,J5,1*%
%TO.N,GND*%
%TA.AperFunction,SMDPad,CuDef*%
G36*
G01*
X104250000Y-115100000D02*
X101250000Y-115100000D01*
G75*
G02*
X101000000Y-114850000I0J250000D01*
G01*
X101000000Y-114350000D01*
G75*
G02*
X101250000Y-114100000I250000J0D01*
G01*
X104250000Y-114100000D01*
G75*
G02*
X104500000Y-114350000I0J-250000D01*
G01*
X104500000Y-114850000D01*
G75*
G02*
X104250000Y-115100000I-250000J0D01*
G01*
G37*
%TD.AperFunction*%
%TD*%
%TO.P,J3,MP*%
%TO.N,N/C*%
%TA.AperFunction,SMDPad,CuDef*%
G36*
G01*
X50950000Y-119000000D02*
X53850000Y-119000000D01*
G75*
G02*
X54100000Y-119250000I0J-250000D01*
G01*
X54100000Y-120250000D01*
G75*
G02*
X53850000Y-120500000I-250000J0D01*
G01*
X50950000Y-120500000D01*
G75*
G02*
X50700000Y-120250000I0J250000D01*
G01*
X50700000Y-119250000D01*
G75*
G02*
X50950000Y-119000000I250000J0D01*
G01*
G37*
%TD.AperFunction*%
%TA.AperFunction,SMDPad,CuDef*%
G36*
G01*
X50950000Y-102300000D02*
X53850000Y-102300000D01*
G75*
G02*
X54100000Y-102550000I0J-250000D01*
G01*
X54100000Y-103550000D01*
G75*
G02*
X53850000Y-103800000I-250000J0D01*
G01*
X50950000Y-103800000D01*
G75*
G02*
X50700000Y-103550000I0J250000D01*
G01*
X50700000Y-102550000D01*
G75*
G02*
X50950000Y-102300000I250000J0D01*
G01*
G37*
%TD.AperFunction*%
%TO.P,J3,7*%
%TO.N,+5V*%
%TA.AperFunction,SMDPad,CuDef*%
G36*
G01*
X56650000Y-116900000D02*
X59650000Y-116900000D01*
G75*
G02*
X59900000Y-117150000I0J-250000D01*
G01*
X59900000Y-117650000D01*
G75*
G02*
X59650000Y-117900000I-250000J0D01*
G01*
X56650000Y-117900000D01*
G75*
G02*
X56400000Y-117650000I0J250000D01*
G01*
X56400000Y-117150000D01*
G75*
G02*
X56650000Y-116900000I250000J0D01*
G01*
G37*
%TD.AperFunction*%
%TO.P,J3,6*%
%TO.N,/IO35*%
%TA.AperFunction,SMDPad,CuDef*%
G36*
G01*
X56650000Y-114900000D02*
X59650000Y-114900000D01*
G75*
G02*
X59900000Y-115150000I0J-250000D01*
G01*
X59900000Y-115650000D01*
G75*
G02*
X59650000Y-115900000I-250000J0D01*
G01*
X56650000Y-115900000D01*
G75*
G02*
X56400000Y-115650000I0J250000D01*
G01*
X56400000Y-115150000D01*
G75*
G02*
X56650000Y-114900000I250000J0D01*
G01*
G37*
%TD.AperFunction*%
%TO.P,J3,5*%
%TO.N,/IO36*%
%TA.AperFunction,SMDPad,CuDef*%
G36*
G01*
X56650000Y-112900000D02*
X59650000Y-112900000D01*
G75*
G02*
X59900000Y-113150000I0J-250000D01*
G01*
X59900000Y-113650000D01*
G75*
G02*
X59650000Y-113900000I-250000J0D01*
G01*
X56650000Y-113900000D01*
G75*
G02*
X56400000Y-113650000I0J250000D01*
G01*
X56400000Y-113150000D01*
G75*
G02*
X56650000Y-112900000I250000J0D01*
G01*
G37*
%TD.AperFunction*%
%TO.P,J3,4*%
%TO.N,/IO37*%
%TA.AperFunction,SMDPad,CuDef*%
G36*
G01*
X56650000Y-110900000D02*
X59650000Y-110900000D01*
G75*
G02*
X59900000Y-111150000I0J-250000D01*
G01*
X59900000Y-111650000D01*
G75*
G02*
X59650000Y-111900000I-250000J0D01*
G01*
X56650000Y-111900000D01*
G75*
G02*
X56400000Y-111650000I0J250000D01*
G01*
X56400000Y-111150000D01*
G75*
G02*
X56650000Y-110900000I250000J0D01*
G01*
G37*
%TD.AperFunction*%
%TO.P,J3,3*%
%TO.N,GND*%
%TA.AperFunction,SMDPad,CuDef*%
G36*
G01*
X56650000Y-108900000D02*
X59650000Y-108900000D01*
G75*
G02*
X59900000Y-109150000I0J-250000D01*
G01*
X59900000Y-109650000D01*
G75*
G02*
X59650000Y-109900000I-250000J0D01*
G01*
X56650000Y-109900000D01*
G75*
G02*
X56400000Y-109650000I0J250000D01*
G01*
X56400000Y-109150000D01*
G75*
G02*
X56650000Y-108900000I250000J0D01*
G01*
G37*
%TD.AperFunction*%
%TO.P,J3,2*%
%TO.N,/IO38*%
%TA.AperFunction,SMDPad,CuDef*%
G36*
G01*
X56650000Y-106900000D02*
X59650000Y-106900000D01*
G75*
G02*
X59900000Y-107150000I0J-250000D01*
G01*
X59900000Y-107650000D01*
G75*
G02*
X59650000Y-107900000I-250000J0D01*
G01*
X56650000Y-107900000D01*
G75*
G02*
X56400000Y-107650000I0J250000D01*
G01*
X56400000Y-107150000D01*
G75*
G02*
X56650000Y-106900000I250000J0D01*
G01*
G37*
%TD.AperFunction*%
%TO.P,J3,1*%
%TO.N,/IO39*%
%TA.AperFunction,SMDPad,CuDef*%
G36*
G01*
X56650000Y-104900000D02*
X59650000Y-104900000D01*
G75*
G02*
X59900000Y-105150000I0J-250000D01*
G01*
X59900000Y-105650000D01*
G75*
G02*
X59650000Y-105900000I-250000J0D01*
G01*
X56650000Y-105900000D01*
G75*
G02*
X56400000Y-105650000I0J250000D01*
G01*
X56400000Y-105150000D01*
G75*
G02*
X56650000Y-104900000I250000J0D01*
G01*
G37*
%TD.AperFunction*%
%TD*%
D12*
%TO.N,*%
X99500000Y-114600000D03*
D13*
%TO.N,GND*%
X62700000Y-120400000D03*
X62700000Y-102600000D03*
X98200000Y-120400000D03*
X98300000Y-102600000D03*
D12*
X101800000Y-117700000D03*
X52560000Y-122360000D03*
X52700000Y-100500000D03*
X108540000Y-101460000D03*
X61200000Y-109400000D03*
%TO.N,+5V*%
X61800000Y-117400000D03*
X99500000Y-108600000D03*
%TD*%
D14*
%TO.N,GND*%
X102800000Y-114600000D02*
X102750000Y-114600000D01*
X102750000Y-114600000D02*
X102750000Y-116250000D01*
X102750000Y-114600000D02*
X102750000Y-116750000D01*
X102750000Y-116750000D02*
X101800000Y-117700000D01*
X102599999Y-126425001D02*
X101800000Y-125625002D01*
X106109999Y-126425001D02*
X102599999Y-126425001D01*
X107690000Y-124845000D02*
X106109999Y-126425001D01*
X101800000Y-125625002D02*
X101800000Y-117700000D01*
X108440000Y-124845000D02*
X107690000Y-124845000D01*
X52560000Y-124845000D02*
X52560000Y-122360000D01*
X52660000Y-98355000D02*
X52660000Y-100360000D01*
X52660000Y-100460000D02*
X52700000Y-100500000D01*
X52660000Y-100360000D02*
X52660000Y-100460000D01*
X108540000Y-98355000D02*
X108540000Y-101460000D01*
X58150000Y-109400000D02*
X61200000Y-109400000D01*
%TO.N,+5V*%
X102750000Y-108600000D02*
X104500000Y-108600000D01*
X102750000Y-108600000D02*
X102184999Y-108034999D01*
X102186810Y-108600000D02*
X102750000Y-108600000D01*
X58150000Y-117400000D02*
X61800000Y-117400000D01*
X61800000Y-117400000D02*
X61800000Y-117400000D01*
X102750000Y-108600000D02*
X99600000Y-108600000D01*
X99600000Y-108600000D02*
X99500000Y-108600000D01*
%TO.N,/IO18*%
X104825010Y-112925010D02*
X104825010Y-123379990D01*
X104825010Y-123379990D02*
X103360000Y-124845000D01*
X104500000Y-112600000D02*
X104825010Y-112925010D01*
X102750000Y-112600000D02*
X104500000Y-112600000D01*
%TO.N,/IO17*%
X100820000Y-125044998D02*
X100820000Y-128155000D01*
X99040001Y-123264999D02*
X100820000Y-125044998D01*
X98141997Y-123264999D02*
X99040001Y-123264999D01*
X96224999Y-121348001D02*
X98141997Y-123264999D01*
X96224999Y-115375001D02*
X96224999Y-121348001D01*
X101000000Y-110600000D02*
X96224999Y-115375001D01*
X102750000Y-110600000D02*
X101000000Y-110600000D01*
%TO.N,+3V3*%
X55100000Y-127440000D02*
X55040000Y-127500000D01*
X55200000Y-128055000D02*
X55100000Y-128155000D01*
X55100000Y-117113190D02*
X55100000Y-128155000D01*
X55200000Y-117013190D02*
X55100000Y-117113190D01*
X55200000Y-95045000D02*
X55200000Y-117013190D01*
%TO.N,/IO35*%
X71175000Y-115400000D02*
X88220000Y-98355000D01*
X58150000Y-115400000D02*
X71175000Y-115400000D01*
%TO.N,/IO36*%
X85680000Y-98155002D02*
X85680000Y-95045000D01*
X70435002Y-113400000D02*
X85680000Y-98155002D01*
X58150000Y-113400000D02*
X70435002Y-113400000D01*
%TO.N,/IO37*%
X70095000Y-111400000D02*
X83140000Y-98355000D01*
X58150000Y-111400000D02*
X70095000Y-111400000D01*
%TO.N,/IO38*%
X80600000Y-98155002D02*
X80600000Y-95045000D01*
X71355002Y-107400000D02*
X80600000Y-98155002D01*
X58150000Y-107400000D02*
X71355002Y-107400000D01*
%TO.N,/IO39*%
X75320002Y-98355000D02*
X78060000Y-98355000D01*
X68275002Y-105400000D02*
X75320002Y-98355000D01*
X58150000Y-105400000D02*
X68275002Y-105400000D01*
%TD*%
D15*
%TO.N,+5V*%
X89621928Y-93790000D02*
X89621928Y-96300000D01*
X89634188Y-96424482D01*
X89670498Y-96544180D01*
X89729463Y-96654494D01*
X89808815Y-96751185D01*
X89905506Y-96830537D01*
X90015820Y-96889502D01*
X90135518Y-96925812D01*
X90260000Y-96938072D01*
X91260000Y-96938072D01*
X91384482Y-96925812D01*
X91504180Y-96889502D01*
X91614494Y-96830537D01*
X91711185Y-96751185D01*
X91790537Y-96654494D01*
X91849502Y-96544180D01*
X91885812Y-96424482D01*
X91898072Y-96300000D01*
X91898072Y-93790000D01*
X91897580Y-93785000D01*
X94702420Y-93785000D01*
X94701928Y-93790000D01*
X94701928Y-96300000D01*
X94714188Y-96424482D01*
X94750498Y-96544180D01*
X94809463Y-96654494D01*
X94888815Y-96751185D01*
X94985506Y-96830537D01*
X95095820Y-96889502D01*
X95215518Y-96925812D01*
X95340000Y-96938072D01*
X96340000Y-96938072D01*
X96464482Y-96925812D01*
X96584180Y-96889502D01*
X96694494Y-96830537D01*
X96791185Y-96751185D01*
X96870537Y-96654494D01*
X96929502Y-96544180D01*
X96965812Y-96424482D01*
X96978072Y-96300000D01*
X96978072Y-93790000D01*
X96977580Y-93785000D01*
X99782420Y-93785000D01*
X99781928Y-93790000D01*
X99781928Y-96300000D01*
X99794188Y-96424482D01*
X99830498Y-96544180D01*
X99889463Y-96654494D01*
X99968815Y-96751185D01*
X100065506Y-96830537D01*
X100175820Y-96889502D01*
X100295518Y-96925812D01*
X100420000Y-96938072D01*
X101420000Y-96938072D01*
X101544482Y-96925812D01*
X101664180Y-96889502D01*
X101774494Y-96830537D01*
X101871185Y-96751185D01*
X101950537Y-96654494D01*
X102009502Y-96544180D01*
X102045812Y-96424482D01*
X102058072Y-96300000D01*
X104861928Y-96300000D01*
X104874188Y-96424482D01*
X104910498Y-96544180D01*
X104969463Y-96654494D01*
X105048815Y-96751185D01*
X105145506Y-96830537D01*
X105255820Y-96889502D01*
X105375518Y-96925812D01*
X105500000Y-96938072D01*
X105714250Y-96935000D01*
X105873000Y-96776250D01*
X105873000Y-95172000D01*
X106127000Y-95172000D01*
X106127000Y-96776250D01*
X106285750Y-96935000D01*
X106500000Y-96938072D01*
X106624482Y-96925812D01*
X106744180Y-96889502D01*
X106854494Y-96830537D01*
X106951185Y-96751185D01*
X107030537Y-96654494D01*
X107089502Y-96544180D01*
X107125812Y-96424482D01*
X107138072Y-96300000D01*
X107135000Y-95330750D01*
X106976250Y-95172000D01*
X106127000Y-95172000D01*
X105873000Y-95172000D01*
X105023750Y-95172000D01*
X104865000Y-95330750D01*
X104861928Y-96300000D01*
X102058072Y-96300000D01*
X102058072Y-93790000D01*
X102057580Y-93785000D01*
X104862420Y-93785000D01*
X104861928Y-93790000D01*
X104865000Y-94759250D01*
X105023750Y-94918000D01*
X105873000Y-94918000D01*
X105873000Y-94898000D01*
X106127000Y-94898000D01*
X106127000Y-94918000D01*
X106976250Y-94918000D01*
X107135000Y-94759250D01*
X107138072Y-93790000D01*
X107137580Y-93785000D01*
X110315000Y-93785000D01*
X110315000Y-104942971D01*
X110289850Y-104929528D01*
X110123254Y-104878992D01*
X109950000Y-104861928D01*
X107050000Y-104861928D01*
X106876746Y-104878992D01*
X106710150Y-104929528D01*
X106556614Y-105011595D01*
X106422038Y-105122038D01*
X106311595Y-105256614D01*
X106229528Y-105410150D01*
X106178992Y-105576746D01*
X106161928Y-105750000D01*
X106161928Y-106750000D01*
X106178992Y-106923254D01*
X106229528Y-107089850D01*
X106311595Y-107243386D01*
X106422038Y-107377962D01*
X106556614Y-107488405D01*
X106710150Y-107570472D01*
X106876746Y-107621008D01*
X107050000Y-107638072D01*
X109950000Y-107638072D01*
X110123254Y-107621008D01*
X110289850Y-107570472D01*
X110315000Y-107557029D01*
X110315001Y-115642971D01*
X110289850Y-115629528D01*
X110123254Y-115578992D01*
X109950000Y-115561928D01*
X107050000Y-115561928D01*
X106876746Y-115578992D01*
X106710150Y-115629528D01*
X106556614Y-115711595D01*
X106422038Y-115822038D01*
X106311595Y-115956614D01*
X106229528Y-116110150D01*
X106178992Y-116276746D01*
X106161928Y-116450000D01*
X106161928Y-117450000D01*
X106178992Y-117623254D01*
X106229528Y-117789850D01*
X106311595Y-117943386D01*
X106422038Y-118077962D01*
X106556614Y-118188405D01*
X106710150Y-118270472D01*
X106876746Y-118321008D01*
X107050000Y-118338072D01*
X109950000Y-118338072D01*
X110123254Y-118321008D01*
X110289850Y-118270472D01*
X110315001Y-118257029D01*
X110315001Y-129315000D01*
X106998354Y-129315000D01*
X107025812Y-129224482D01*
X107038072Y-129100000D01*
X107035000Y-128435750D01*
X106876250Y-128277000D01*
X106027000Y-128277000D01*
X106027000Y-128297000D01*
X105773000Y-128297000D01*
X105773000Y-128277000D01*
X104923750Y-128277000D01*
X104765000Y-128435750D01*
X104761928Y-129100000D01*
X104774188Y-129224482D01*
X104801646Y-129315000D01*
X101918354Y-129315000D01*
X101945812Y-129224482D01*
X101958072Y-129100000D01*
X101958072Y-127200000D01*
X101945812Y-127075518D01*
X101909502Y-126955820D01*
X101850537Y-126845506D01*
X101771185Y-126748815D01*
X101674494Y-126669463D01*
X101580000Y-126618954D01*
X101580000Y-126479804D01*
X102036204Y-126936009D01*
X102059998Y-126965002D01*
X102088991Y-126988796D01*
X102088995Y-126988800D01*
X102159684Y-127046812D01*
X102175723Y-127059975D01*
X102307752Y-127130547D01*
X102451013Y-127174004D01*
X102562666Y-127185001D01*
X102562675Y-127185001D01*
X102599998Y-127188677D01*
X102637321Y-127185001D01*
X104763405Y-127185001D01*
X104761928Y-127200000D01*
X104765000Y-127864250D01*
X104923750Y-128023000D01*
X105773000Y-128023000D01*
X105773000Y-128003000D01*
X106027000Y-128003000D01*
X106027000Y-128023000D01*
X106876250Y-128023000D01*
X107035000Y-127864250D01*
X107038072Y-127200000D01*
X107025812Y-127075518D01*
X106989502Y-126955820D01*
X106930537Y-126845506D01*
X106855603Y-126754198D01*
X107430128Y-126179674D01*
X107488815Y-126251185D01*
X107585506Y-126330537D01*
X107695820Y-126389502D01*
X107815518Y-126425812D01*
X107940000Y-126438072D01*
X108940000Y-126438072D01*
X109064482Y-126425812D01*
X109184180Y-126389502D01*
X109294494Y-126330537D01*
X109391185Y-126251185D01*
X109470537Y-126154494D01*
X109529502Y-126044180D01*
X109565812Y-125924482D01*
X109578072Y-125800000D01*
X109578072Y-123900000D01*
X109565812Y-123775518D01*
X109529502Y-123655820D01*
X109470537Y-123545506D01*
X109391185Y-123448815D01*
X109294494Y-123369463D01*
X109184180Y-123310498D01*
X109064482Y-123274188D01*
X108940000Y-123261928D01*
X107940000Y-123261928D01*
X107815518Y-123274188D01*
X107695820Y-123310498D01*
X107585506Y-123369463D01*
X107488815Y-123448815D01*
X107409463Y-123545506D01*
X107350498Y-123655820D01*
X107314188Y-123775518D01*
X107301928Y-123900000D01*
X107301928Y-124190674D01*
X107265724Y-124210026D01*
X107149999Y-124304999D01*
X107126201Y-124333997D01*
X105795198Y-125665001D01*
X104498072Y-125665001D01*
X104498072Y-124781729D01*
X105336013Y-123943789D01*
X105365011Y-123919991D01*
X105391342Y-123887907D01*
X105459984Y-123804267D01*
X105530556Y-123672237D01*
X105535536Y-123655820D01*
X105574013Y-123528976D01*
X105585010Y-123417323D01*
X105585010Y-123417313D01*
X105588686Y-123379991D01*
X105585010Y-123342668D01*
X105585010Y-112962343D01*
X105588687Y-112925010D01*
X105574013Y-112776024D01*
X105530556Y-112632763D01*
X105459984Y-112500734D01*
X105365011Y-112385009D01*
X105336008Y-112361207D01*
X105107710Y-112132909D01*
X105070472Y-112010150D01*
X104988405Y-111856614D01*
X104877962Y-111722038D01*
X104743386Y-111611595D01*
X104721693Y-111600000D01*
X104743386Y-111588405D01*
X104877962Y-111477962D01*
X104988405Y-111343386D01*
X105070472Y-111189850D01*
X105121008Y-111023254D01*
X105138072Y-110850000D01*
X105138072Y-110350000D01*
X105121008Y-110176746D01*
X105070472Y-110010150D01*
X104988405Y-109856614D01*
X104877962Y-109722038D01*
X104801187Y-109659031D01*
X104854494Y-109630537D01*
X104951185Y-109551185D01*
X105030537Y-109454494D01*
X105089502Y-109344180D01*
X105125812Y-109224482D01*
X105138072Y-109100000D01*
X105135000Y-108885750D01*
X104976250Y-108727000D01*
X102877000Y-108727000D01*
X102877000Y-108747000D01*
X102623000Y-108747000D01*
X102623000Y-108727000D01*
X100523750Y-108727000D01*
X100365000Y-108885750D01*
X100361928Y-109100000D01*
X100374188Y-109224482D01*
X100410498Y-109344180D01*
X100469463Y-109454494D01*
X100548815Y-109551185D01*
X100645506Y-109630537D01*
X100698813Y-109659031D01*
X100622038Y-109722038D01*
X100511595Y-109856614D01*
X100429528Y-110010150D01*
X100392290Y-110132908D01*
X95714002Y-114811197D01*
X95684998Y-114835000D01*
X95638017Y-114892247D01*
X95590025Y-114950725D01*
X95551257Y-115023254D01*
X95519453Y-115082755D01*
X95475996Y-115226016D01*
X95464999Y-115337669D01*
X95464999Y-115337679D01*
X95461323Y-115375001D01*
X95464999Y-115412324D01*
X95465000Y-121310669D01*
X95461323Y-121348001D01*
X95465000Y-121385334D01*
X95470660Y-121442795D01*
X95475997Y-121496986D01*
X95519453Y-121640247D01*
X95590025Y-121772277D01*
X95661200Y-121859003D01*
X95684999Y-121888002D01*
X95713997Y-121911800D01*
X97293745Y-123491548D01*
X97249463Y-123545506D01*
X97190498Y-123655820D01*
X97154188Y-123775518D01*
X97141928Y-123900000D01*
X97141928Y-125800000D01*
X97154188Y-125924482D01*
X97190498Y-126044180D01*
X97249463Y-126154494D01*
X97328815Y-126251185D01*
X97425506Y-126330537D01*
X97535820Y-126389502D01*
X97655518Y-126425812D01*
X97780000Y-126438072D01*
X98780000Y-126438072D01*
X98904482Y-126425812D01*
X99024180Y-126389502D01*
X99134494Y-126330537D01*
X99231185Y-126251185D01*
X99310537Y-126154494D01*
X99369502Y-126044180D01*
X99405812Y-125924482D01*
X99418072Y-125800000D01*
X99418072Y-124717872D01*
X100060000Y-125359800D01*
X100060001Y-126618954D01*
X99965506Y-126669463D01*
X99868815Y-126748815D01*
X99789463Y-126845506D01*
X99730498Y-126955820D01*
X99694188Y-127075518D01*
X99681928Y-127200000D01*
X99681928Y-129100000D01*
X99694188Y-129224482D01*
X99721646Y-129315000D01*
X96838354Y-129315000D01*
X96865812Y-129224482D01*
X96878072Y-129100000D01*
X96878072Y-127200000D01*
X96865812Y-127075518D01*
X96829502Y-126955820D01*
X96770537Y-126845506D01*
X96691185Y-126748815D01*
X96594494Y-126669463D01*
X96484180Y-126610498D01*
X96364482Y-126574188D01*
X96240000Y-126561928D01*
X95240000Y-126561928D01*
X95115518Y-126574188D01*
X94995820Y-126610498D01*
X94885506Y-126669463D01*
X94788815Y-126748815D01*
X94709463Y-126845506D01*
X94650498Y-126955820D01*
X94614188Y-127075518D01*
X94601928Y-127200000D01*
X94601928Y-129100000D01*
X94614188Y-129224482D01*
X94641646Y-129315000D01*
X91758354Y-129315000D01*
X91785812Y-129224482D01*
X91798072Y-129100000D01*
X91798072Y-127200000D01*
X91785812Y-127075518D01*
X91749502Y-126955820D01*
X91690537Y-126845506D01*
X91611185Y-126748815D01*
X91514494Y-126669463D01*
X91404180Y-126610498D01*
X91284482Y-126574188D01*
X91160000Y-126561928D01*
X90160000Y-126561928D01*
X90035518Y-126574188D01*
X89915820Y-126610498D01*
X89805506Y-126669463D01*
X89708815Y-126748815D01*
X89629463Y-126845506D01*
X89570498Y-126955820D01*
X89534188Y-127075518D01*
X89521928Y-127200000D01*
X89521928Y-129100000D01*
X89534188Y-129224482D01*
X89561646Y-129315000D01*
X86678354Y-129315000D01*
X86705812Y-129224482D01*
X86718072Y-129100000D01*
X86718072Y-127200000D01*
X86705812Y-127075518D01*
X86669502Y-126955820D01*
X86610537Y-126845506D01*
X86531185Y-126748815D01*
X86434494Y-126669463D01*
X86324180Y-126610498D01*
X86204482Y-126574188D01*
X86080000Y-126561928D01*
X85080000Y-126561928D01*
X84955518Y-126574188D01*
X84835820Y-126610498D01*
X84725506Y-126669463D01*
X84628815Y-126748815D01*
X84549463Y-126845506D01*
X84490498Y-126955820D01*
X84454188Y-127075518D01*
X84441928Y-127200000D01*
X84441928Y-129100000D01*
X84454188Y-129224482D01*
X84481646Y-129315000D01*
X81598354Y-129315000D01*
X81625812Y-129224482D01*
X81638072Y-129100000D01*
X81638072Y-127200000D01*
X81625812Y-127075518D01*
X81589502Y-126955820D01*
X81530537Y-126845506D01*
X81451185Y-126748815D01*
X81354494Y-126669463D01*
X81244180Y-126610498D01*
X81124482Y-126574188D01*
X81000000Y-126561928D01*
X80000000Y-126561928D01*
X79875518Y-126574188D01*
X79755820Y-126610498D01*
X79645506Y-126669463D01*
X79548815Y-126748815D01*
X79469463Y-126845506D01*
X79410498Y-126955820D01*
X79374188Y-127075518D01*
X79361928Y-127200000D01*
X79361928Y-129100000D01*
X79374188Y-129224482D01*
X79401646Y-129315000D01*
X76518354Y-129315000D01*
X76545812Y-129224482D01*
X76558072Y-129100000D01*
X76558072Y-127200000D01*
X76545812Y-127075518D01*
X76509502Y-126955820D01*
X76450537Y-126845506D01*
X76371185Y-126748815D01*
X76274494Y-126669463D01*
X76164180Y-126610498D01*
X76044482Y-126574188D01*
X75920000Y-126561928D01*
X74920000Y-126561928D01*
X74795518Y-126574188D01*
X74675820Y-126610498D01*
X74565506Y-126669463D01*
X74468815Y-126748815D01*
X74389463Y-126845506D01*
X74330498Y-126955820D01*
X74294188Y-127075518D01*
X74281928Y-127200000D01*
X74281928Y-129100000D01*
X74294188Y-129224482D01*
X74321646Y-129315000D01*
X71438354Y-129315000D01*
X71465812Y-129224482D01*
X71478072Y-129100000D01*
X71478072Y-127200000D01*
X71465812Y-127075518D01*
X71429502Y-126955820D01*
X71370537Y-126845506D01*
X71291185Y-126748815D01*
X71194494Y-126669463D01*
X71084180Y-126610498D01*
X70964482Y-126574188D01*
X70840000Y-126561928D01*
X69840000Y-126561928D01*
X69715518Y-126574188D01*
X69595820Y-126610498D01*
X69485506Y-126669463D01*
X69388815Y-126748815D01*
X69309463Y-126845506D01*
X69250498Y-126955820D01*
X69214188Y-127075518D01*
X69201928Y-127200000D01*
X69201928Y-129100000D01*
X69214188Y-129224482D01*
X69241646Y-129315000D01*
X66358354Y-129315000D01*
X66385812Y-129224482D01*
X66398072Y-129100000D01*
X66398072Y-127200000D01*
X66385812Y-127075518D01*
X66349502Y-126955820D01*
X66290537Y-126845506D01*
X66211185Y-126748815D01*
X66114494Y-126669463D01*
X66004180Y-126610498D01*
X65884482Y-126574188D01*
X65760000Y-126561928D01*
X64760000Y-126561928D01*
X64635518Y-126574188D01*
X64515820Y-126610498D01*
X64405506Y-126669463D01*
X64308815Y-126748815D01*
X64229463Y-126845506D01*
X64170498Y-126955820D01*
X64134188Y-127075518D01*
X64121928Y-127200000D01*
X64121928Y-129100000D01*
X64134188Y-129224482D01*
X64161646Y-129315000D01*
X61278354Y-129315000D01*
X61305812Y-129224482D01*
X61318072Y-129100000D01*
X61318072Y-127200000D01*
X61305812Y-127075518D01*
X61269502Y-126955820D01*
X61210537Y-126845506D01*
X61131185Y-126748815D01*
X61034494Y-126669463D01*
X60924180Y-126610498D01*
X60804482Y-126574188D01*
X60680000Y-126561928D01*
X59680000Y-126561928D01*
X59555518Y-126574188D01*
X59435820Y-126610498D01*
X59325506Y-126669463D01*
X59228815Y-126748815D01*
X59149463Y-126845506D01*
X59090498Y-126955820D01*
X59054188Y-127075518D01*
X59041928Y-127200000D01*
X59041928Y-129100000D01*
X59054188Y-129224482D01*
X59081646Y-129315000D01*
X56198354Y-129315000D01*
X56225812Y-129224482D01*
X56238072Y-129100000D01*
X56238072Y-127200000D01*
X56225812Y-127075518D01*
X56189502Y-126955820D01*
X56130537Y-126845506D01*
X56051185Y-126748815D01*
X55954494Y-126669463D01*
X55860000Y-126618954D01*
X55860000Y-123900000D01*
X56501928Y-123900000D01*
X56501928Y-125800000D01*
X56514188Y-125924482D01*
X56550498Y-126044180D01*
X56609463Y-126154494D01*
X56688815Y-126251185D01*
X56785506Y-126330537D01*
X56895820Y-126389502D01*
X57015518Y-126425812D01*
X57140000Y-126438072D01*
X58140000Y-126438072D01*
X58264482Y-126425812D01*
X58384180Y-126389502D01*
X58494494Y-126330537D01*
X58591185Y-126251185D01*
X58670537Y-126154494D01*
X58729502Y-126044180D01*
X58765812Y-125924482D01*
X58778072Y-125800000D01*
X58778072Y-123900000D01*
X61581928Y-123900000D01*
X61581928Y-125800000D01*
X61594188Y-125924482D01*
X61630498Y-126044180D01*
X61689463Y-126154494D01*
X61768815Y-126251185D01*
X61865506Y-126330537D01*
X61975820Y-126389502D01*
X62095518Y-126425812D01*
X62220000Y-126438072D01*
X63220000Y-126438072D01*
X63344482Y-126425812D01*
X63464180Y-126389502D01*
X63574494Y-126330537D01*
X63671185Y-126251185D01*
X63750537Y-126154494D01*
X63809502Y-126044180D01*
X63845812Y-125924482D01*
X63858072Y-125800000D01*
X63858072Y-123900000D01*
X66661928Y-123900000D01*
X66661928Y-125800000D01*
X66674188Y-125924482D01*
X66710498Y-126044180D01*
X66769463Y-126154494D01*
X66848815Y-126251185D01*
X66945506Y-126330537D01*
X67055820Y-126389502D01*
X67175518Y-126425812D01*
X67300000Y-126438072D01*
X68300000Y-126438072D01*
X68424482Y-126425812D01*
X68544180Y-126389502D01*
X68654494Y-126330537D01*
X68751185Y-126251185D01*
X68830537Y-126154494D01*
X68889502Y-126044180D01*
X68925812Y-125924482D01*
X68938072Y-125800000D01*
X68938072Y-123900000D01*
X71741928Y-123900000D01*
X71741928Y-125800000D01*
X71754188Y-125924482D01*
X71790498Y-126044180D01*
X71849463Y-126154494D01*
X71928815Y-126251185D01*
X72025506Y-126330537D01*
X72135820Y-126389502D01*
X72255518Y-126425812D01*
X72380000Y-126438072D01*
X73380000Y-126438072D01*
X73504482Y-126425812D01*
X73624180Y-126389502D01*
X73734494Y-126330537D01*
X73831185Y-126251185D01*
X73910537Y-126154494D01*
X73969502Y-126044180D01*
X74005812Y-125924482D01*
X74018072Y-125800000D01*
X74018072Y-123900000D01*
X76821928Y-123900000D01*
X76821928Y-125800000D01*
X76834188Y-125924482D01*
X76870498Y-126044180D01*
X76929463Y-126154494D01*
X77008815Y-126251185D01*
X77105506Y-126330537D01*
X77215820Y-126389502D01*
X77335518Y-126425812D01*
X77460000Y-126438072D01*
X78460000Y-126438072D01*
X78584482Y-126425812D01*
X78704180Y-126389502D01*
X78814494Y-126330537D01*
X78911185Y-126251185D01*
X78990537Y-126154494D01*
X79049502Y-126044180D01*
X79085812Y-125924482D01*
X79098072Y-125800000D01*
X79098072Y-123900000D01*
X81901928Y-123900000D01*
X81901928Y-125800000D01*
X81914188Y-125924482D01*
X81950498Y-126044180D01*
X82009463Y-126154494D01*
X82088815Y-126251185D01*
X82185506Y-126330537D01*
X82295820Y-126389502D01*
X82415518Y-126425812D01*
X82540000Y-126438072D01*
X83540000Y-126438072D01*
X83664482Y-126425812D01*
X83784180Y-126389502D01*
X83894494Y-126330537D01*
X83991185Y-126251185D01*
X84070537Y-126154494D01*
X84129502Y-126044180D01*
X84165812Y-125924482D01*
X84178072Y-125800000D01*
X84178072Y-123900000D01*
X86981928Y-123900000D01*
X86981928Y-125800000D01*
X86994188Y-125924482D01*
X87030498Y-126044180D01*
X87089463Y-126154494D01*
X87168815Y-126251185D01*
X87265506Y-126330537D01*
X87375820Y-126389502D01*
X87495518Y-126425812D01*
X87620000Y-126438072D01*
X88620000Y-126438072D01*
X88744482Y-126425812D01*
X88864180Y-126389502D01*
X88974494Y-126330537D01*
X89071185Y-126251185D01*
X89150537Y-126154494D01*
X89209502Y-126044180D01*
X89245812Y-125924482D01*
X89258072Y-125800000D01*
X89258072Y-123900000D01*
X92061928Y-123900000D01*
X92061928Y-125800000D01*
X92074188Y-125924482D01*
X92110498Y-126044180D01*
X92169463Y-126154494D01*
X92248815Y-126251185D01*
X92345506Y-126330537D01*
X92455820Y-126389502D01*
X92575518Y-126425812D01*
X92700000Y-126438072D01*
X93700000Y-126438072D01*
X93824482Y-126425812D01*
X93944180Y-126389502D01*
X94054494Y-126330537D01*
X94151185Y-126251185D01*
X94230537Y-126154494D01*
X94289502Y-126044180D01*
X94325812Y-125924482D01*
X94338072Y-125800000D01*
X94338072Y-123900000D01*
X94325812Y-123775518D01*
X94289502Y-123655820D01*
X94230537Y-123545506D01*
X94151185Y-123448815D01*
X94054494Y-123369463D01*
X93944180Y-123310498D01*
X93824482Y-123274188D01*
X93700000Y-123261928D01*
X92700000Y-123261928D01*
X92575518Y-123274188D01*
X92455820Y-123310498D01*
X92345506Y-123369463D01*
X92248815Y-123448815D01*
X92169463Y-123545506D01*
X92110498Y-123655820D01*
X92074188Y-123775518D01*
X92061928Y-123900000D01*
X89258072Y-123900000D01*
X89245812Y-123775518D01*
X89209502Y-123655820D01*
X89150537Y-123545506D01*
X89071185Y-123448815D01*
X88974494Y-123369463D01*
X88864180Y-123310498D01*
X88744482Y-123274188D01*
X88620000Y-123261928D01*
X87620000Y-123261928D01*
X87495518Y-123274188D01*
X87375820Y-123310498D01*
X87265506Y-123369463D01*
X87168815Y-123448815D01*
X87089463Y-123545506D01*
X87030498Y-123655820D01*
X86994188Y-123775518D01*
X86981928Y-123900000D01*
X84178072Y-123900000D01*
X84165812Y-123775518D01*
X84129502Y-123655820D01*
X84070537Y-123545506D01*
X83991185Y-123448815D01*
X83894494Y-123369463D01*
X83784180Y-123310498D01*
X83664482Y-123274188D01*
X83540000Y-123261928D01*
X82540000Y-123261928D01*
X82415518Y-123274188D01*
X82295820Y-123310498D01*
X82185506Y-123369463D01*
X82088815Y-123448815D01*
X82009463Y-123545506D01*
X81950498Y-123655820D01*
X81914188Y-123775518D01*
X81901928Y-123900000D01*
X79098072Y-123900000D01*
X79085812Y-123775518D01*
X79049502Y-123655820D01*
X78990537Y-123545506D01*
X78911185Y-123448815D01*
X78814494Y-123369463D01*
X78704180Y-123310498D01*
X78584482Y-123274188D01*
X78460000Y-123261928D01*
X77460000Y-123261928D01*
X77335518Y-123274188D01*
X77215820Y-123310498D01*
X77105506Y-123369463D01*
X77008815Y-123448815D01*
X76929463Y-123545506D01*
X76870498Y-123655820D01*
X76834188Y-123775518D01*
X76821928Y-123900000D01*
X74018072Y-123900000D01*
X74005812Y-123775518D01*
X73969502Y-123655820D01*
X73910537Y-123545506D01*
X73831185Y-123448815D01*
X73734494Y-123369463D01*
X73624180Y-123310498D01*
X73504482Y-123274188D01*
X73380000Y-123261928D01*
X72380000Y-123261928D01*
X72255518Y-123274188D01*
X72135820Y-123310498D01*
X72025506Y-123369463D01*
X71928815Y-123448815D01*
X71849463Y-123545506D01*
X71790498Y-123655820D01*
X71754188Y-123775518D01*
X71741928Y-123900000D01*
X68938072Y-123900000D01*
X68925812Y-123775518D01*
X68889502Y-123655820D01*
X68830537Y-123545506D01*
X68751185Y-123448815D01*
X68654494Y-123369463D01*
X68544180Y-123310498D01*
X68424482Y-123274188D01*
X68300000Y-123261928D01*
X67300000Y-123261928D01*
X67175518Y-123274188D01*
X67055820Y-123310498D01*
X66945506Y-123369463D01*
X66848815Y-123448815D01*
X66769463Y-123545506D01*
X66710498Y-123655820D01*
X66674188Y-123775518D01*
X66661928Y-123900000D01*
X63858072Y-123900000D01*
X63845812Y-123775518D01*
X63809502Y-123655820D01*
X63750537Y-123545506D01*
X63671185Y-123448815D01*
X63574494Y-123369463D01*
X63464180Y-123310498D01*
X63344482Y-123274188D01*
X63220000Y-123261928D01*
X62220000Y-123261928D01*
X62095518Y-123274188D01*
X61975820Y-123310498D01*
X61865506Y-123369463D01*
X61768815Y-123448815D01*
X61689463Y-123545506D01*
X61630498Y-123655820D01*
X61594188Y-123775518D01*
X61581928Y-123900000D01*
X58778072Y-123900000D01*
X58765812Y-123775518D01*
X58729502Y-123655820D01*
X58670537Y-123545506D01*
X58591185Y-123448815D01*
X58494494Y-123369463D01*
X58384180Y-123310498D01*
X58264482Y-123274188D01*
X58140000Y-123261928D01*
X57140000Y-123261928D01*
X57015518Y-123274188D01*
X56895820Y-123310498D01*
X56785506Y-123369463D01*
X56688815Y-123448815D01*
X56609463Y-123545506D01*
X56550498Y-123655820D01*
X56514188Y-123775518D01*
X56501928Y-123900000D01*
X55860000Y-123900000D01*
X55860000Y-120174947D01*
X60415000Y-120174947D01*
X60415000Y-120625053D01*
X60502811Y-121066510D01*
X60675059Y-121482353D01*
X60925125Y-121856603D01*
X61243397Y-122174875D01*
X61617647Y-122424941D01*
X62033490Y-122597189D01*
X62474947Y-122685000D01*
X62925053Y-122685000D01*
X63366510Y-122597189D01*
X63782353Y-122424941D01*
X64156603Y-122174875D01*
X64474875Y-121856603D01*
X64724941Y-121482353D01*
X64897189Y-121066510D01*
X64985000Y-120625053D01*
X64985000Y-120174947D01*
X64897189Y-119733490D01*
X64724941Y-119317647D01*
X64474875Y-118943397D01*
X64156603Y-118625125D01*
X63782353Y-118375059D01*
X63366510Y-118202811D01*
X62925053Y-118115000D01*
X62474947Y-118115000D01*
X62033490Y-118202811D01*
X61617647Y-118375059D01*
X61243397Y-118625125D01*
X60925125Y-118943397D01*
X60675059Y-119317647D01*
X60502811Y-119733490D01*
X60415000Y-120174947D01*
X55860000Y-120174947D01*
X55860000Y-118236790D01*
X55869463Y-118254494D01*
X55948815Y-118351185D01*
X56045506Y-118430537D01*
X56155820Y-118489502D01*
X56275518Y-118525812D01*
X56400000Y-118538072D01*
X57864250Y-118535000D01*
X58023000Y-118376250D01*
X58023000Y-117527000D01*
X58277000Y-117527000D01*
X58277000Y-118376250D01*
X58435750Y-118535000D01*
X59900000Y-118538072D01*
X60024482Y-118525812D01*
X60144180Y-118489502D01*
X60254494Y-118430537D01*
X60351185Y-118351185D01*
X60430537Y-118254494D01*
X60489502Y-118144180D01*
X60525812Y-118024482D01*
X60538072Y-117900000D01*
X60535000Y-117685750D01*
X60376250Y-117527000D01*
X58277000Y-117527000D01*
X58023000Y-117527000D01*
X58003000Y-117527000D01*
X58003000Y-117273000D01*
X58023000Y-117273000D01*
X58023000Y-117253000D01*
X58277000Y-117253000D01*
X58277000Y-117273000D01*
X60376250Y-117273000D01*
X60535000Y-117114250D01*
X60538072Y-116900000D01*
X60525812Y-116775518D01*
X60489502Y-116655820D01*
X60430537Y-116545506D01*
X60351185Y-116448815D01*
X60254494Y-116369463D01*
X60201187Y-116340969D01*
X60277962Y-116277962D01*
X60374770Y-116160000D01*
X71137678Y-116160000D01*
X71175000Y-116163676D01*
X71212322Y-116160000D01*
X71212333Y-116160000D01*
X71323986Y-116149003D01*
X71467247Y-116105546D01*
X71599276Y-116034974D01*
X71715001Y-115940001D01*
X71738804Y-115910997D01*
X79549801Y-108100000D01*
X100361928Y-108100000D01*
X100365000Y-108314250D01*
X100523750Y-108473000D01*
X102623000Y-108473000D01*
X102623000Y-107623750D01*
X102877000Y-107623750D01*
X102877000Y-108473000D01*
X104976250Y-108473000D01*
X105135000Y-108314250D01*
X105138072Y-108100000D01*
X105125812Y-107975518D01*
X105089502Y-107855820D01*
X105030537Y-107745506D01*
X104951185Y-107648815D01*
X104854494Y-107569463D01*
X104744180Y-107510498D01*
X104624482Y-107474188D01*
X104500000Y-107461928D01*
X103035750Y-107465000D01*
X102877000Y-107623750D01*
X102623000Y-107623750D01*
X102464250Y-107465000D01*
X101000000Y-107461928D01*
X100875518Y-107474188D01*
X100755820Y-107510498D01*
X100645506Y-107569463D01*
X100548815Y-107648815D01*
X100469463Y-107745506D01*
X100410498Y-107855820D01*
X100374188Y-107975518D01*
X100361928Y-108100000D01*
X79549801Y-108100000D01*
X85274854Y-102374947D01*
X96015000Y-102374947D01*
X96015000Y-102825053D01*
X96102811Y-103266510D01*
X96275059Y-103682353D01*
X96525125Y-104056603D01*
X96843397Y-104374875D01*
X97217647Y-104624941D01*
X97633490Y-104797189D01*
X98074947Y-104885000D01*
X98525053Y-104885000D01*
X98966510Y-104797189D01*
X99382353Y-104624941D01*
X99756603Y-104374875D01*
X100074875Y-104056603D01*
X100324941Y-103682353D01*
X100497189Y-103266510D01*
X100585000Y-102825053D01*
X100585000Y-102374947D01*
X100497189Y-101933490D01*
X100324941Y-101517647D01*
X100074875Y-101143397D01*
X99756603Y-100825125D01*
X99382353Y-100575059D01*
X98966510Y-100402811D01*
X98525053Y-100315000D01*
X98074947Y-100315000D01*
X97633490Y-100402811D01*
X97217647Y-100575059D01*
X96843397Y-100825125D01*
X96525125Y-101143397D01*
X96275059Y-101517647D01*
X96102811Y-101933490D01*
X96015000Y-102374947D01*
X85274854Y-102374947D01*
X87459189Y-100190613D01*
X87475820Y-100199502D01*
X87595518Y-100235812D01*
X87720000Y-100248072D01*
X88720000Y-100248072D01*
X88844482Y-100235812D01*
X88964180Y-100199502D01*
X89074494Y-100140537D01*
X89171185Y-100061185D01*
X89250537Y-99964494D01*
X89309502Y-99854180D01*
X89345812Y-99734482D01*
X89358072Y-99610000D01*
X89358072Y-97100000D01*
X92161928Y-97100000D01*
X92161928Y-99610000D01*
X92174188Y-99734482D01*
X92210498Y-99854180D01*
X92269463Y-99964494D01*
X92348815Y-100061185D01*
X92445506Y-100140537D01*
X92555820Y-100199502D01*
X92675518Y-100235812D01*
X92800000Y-100248072D01*
X93800000Y-100248072D01*
X93924482Y-100235812D01*
X94044180Y-100199502D01*
X94154494Y-100140537D01*
X94251185Y-100061185D01*
X94330537Y-99964494D01*
X94389502Y-99854180D01*
X94425812Y-99734482D01*
X94438072Y-99610000D01*
X94438072Y-97100000D01*
X97241928Y-97100000D01*
X97241928Y-99610000D01*
X97254188Y-99734482D01*
X97290498Y-99854180D01*
X97349463Y-99964494D01*
X97428815Y-100061185D01*
X97525506Y-100140537D01*
X97635820Y-100199502D01*
X97755518Y-100235812D01*
X97880000Y-100248072D01*
X98880000Y-100248072D01*
X99004482Y-100235812D01*
X99124180Y-100199502D01*
X99234494Y-100140537D01*
X99331185Y-100061185D01*
X99410537Y-99964494D01*
X99469502Y-99854180D01*
X99505812Y-99734482D01*
X99518072Y-99610000D01*
X99518072Y-97100000D01*
X102321928Y-97100000D01*
X102321928Y-99610000D01*
X102334188Y-99734482D01*
X102370498Y-99854180D01*
X102429463Y-99964494D01*
X102508815Y-100061185D01*
X102605506Y-100140537D01*
X102715820Y-100199502D01*
X102835518Y-100235812D01*
X102960000Y-100248072D01*
X103960000Y-100248072D01*
X104084482Y-100235812D01*
X104204180Y-100199502D01*
X104314494Y-100140537D01*
X104411185Y-100061185D01*
X104490537Y-99964494D01*
X104549502Y-99854180D01*
X104585812Y-99734482D01*
X104598072Y-99610000D01*
X104598072Y-97100000D01*
X107401928Y-97100000D01*
X107401928Y-99610000D01*
X107414188Y-99734482D01*
X107450498Y-99854180D01*
X107509463Y-99964494D01*
X107588815Y-100061185D01*
X107685506Y-100140537D01*
X107780001Y-100191046D01*
X107780001Y-100756288D01*
X107736063Y-100800226D01*
X107622795Y-100969744D01*
X107544774Y-101158102D01*
X107505000Y-101358061D01*
X107505000Y-101561939D01*
X107544774Y-101761898D01*
X107622795Y-101950256D01*
X107736063Y-102119774D01*
X107880226Y-102263937D01*
X108049744Y-102377205D01*
X108238102Y-102455226D01*
X108438061Y-102495000D01*
X108641939Y-102495000D01*
X108841898Y-102455226D01*
X109030256Y-102377205D01*
X109199774Y-102263937D01*
X109343937Y-102119774D01*
X109457205Y-101950256D01*
X109535226Y-101761898D01*
X109575000Y-101561939D01*
X109575000Y-101358061D01*
X109535226Y-101158102D01*
X109457205Y-100969744D01*
X109343937Y-100800226D01*
X109300000Y-100756289D01*
X109300000Y-100191046D01*
X109394494Y-100140537D01*
X109491185Y-100061185D01*
X109570537Y-99964494D01*
X109629502Y-99854180D01*
X109665812Y-99734482D01*
X109678072Y-99610000D01*
X109678072Y-97100000D01*
X109665812Y-96975518D01*
X109629502Y-96855820D01*
X109570537Y-96745506D01*
X109491185Y-96648815D01*
X109394494Y-96569463D01*
X109284180Y-96510498D01*
X109164482Y-96474188D01*
X109040000Y-96461928D01*
X108040000Y-96461928D01*
X107915518Y-96474188D01*
X107795820Y-96510498D01*
X107685506Y-96569463D01*
X107588815Y-96648815D01*
X107509463Y-96745506D01*
X107450498Y-96855820D01*
X107414188Y-96975518D01*
X107401928Y-97100000D01*
X104598072Y-97100000D01*
X104585812Y-96975518D01*
X104549502Y-96855820D01*
X104490537Y-96745506D01*
X104411185Y-96648815D01*
X104314494Y-96569463D01*
X104204180Y-96510498D01*
X104084482Y-96474188D01*
X103960000Y-96461928D01*
X102960000Y-96461928D01*
X102835518Y-96474188D01*
X102715820Y-96510498D01*
X102605506Y-96569463D01*
X102508815Y-96648815D01*
X102429463Y-96745506D01*
X102370498Y-96855820D01*
X102334188Y-96975518D01*
X102321928Y-97100000D01*
X99518072Y-97100000D01*
X99505812Y-96975518D01*
X99469502Y-96855820D01*
X99410537Y-96745506D01*
X99331185Y-96648815D01*
X99234494Y-96569463D01*
X99124180Y-96510498D01*
X99004482Y-96474188D01*
X98880000Y-96461928D01*
X97880000Y-96461928D01*
X97755518Y-96474188D01*
X97635820Y-96510498D01*
X97525506Y-96569463D01*
X97428815Y-96648815D01*
X97349463Y-96745506D01*
X97290498Y-96855820D01*
X97254188Y-96975518D01*
X97241928Y-97100000D01*
X94438072Y-97100000D01*
X94425812Y-96975518D01*
X94389502Y-96855820D01*
X94330537Y-96745506D01*
X94251185Y-96648815D01*
X94154494Y-96569463D01*
X94044180Y-96510498D01*
X93924482Y-96474188D01*
X93800000Y-96461928D01*
X92800000Y-96461928D01*
X92675518Y-96474188D01*
X92555820Y-96510498D01*
X92445506Y-96569463D01*
X92348815Y-96648815D01*
X92269463Y-96745506D01*
X92210498Y-96855820D01*
X92174188Y-96975518D01*
X92161928Y-97100000D01*
X89358072Y-97100000D01*
X89345812Y-96975518D01*
X89309502Y-96855820D01*
X89250537Y-96745506D01*
X89171185Y-96648815D01*
X89074494Y-96569463D01*
X88964180Y-96510498D01*
X88844482Y-96474188D01*
X88720000Y-96461928D01*
X87720000Y-96461928D01*
X87595518Y-96474188D01*
X87475820Y-96510498D01*
X87365506Y-96569463D01*
X87268815Y-96648815D01*
X87189463Y-96745506D01*
X87130498Y-96855820D01*
X87094188Y-96975518D01*
X87081928Y-97100000D01*
X87081928Y-98418270D01*
X70860199Y-114640000D01*
X60374770Y-114640000D01*
X60277962Y-114522038D01*
X60143386Y-114411595D01*
X60121693Y-114400000D01*
X60143386Y-114388405D01*
X60277962Y-114277962D01*
X60374770Y-114160000D01*
X70397680Y-114160000D01*
X70435002Y-114163676D01*
X70472324Y-114160000D01*
X70472335Y-114160000D01*
X70583988Y-114149003D01*
X70727249Y-114105546D01*
X70859278Y-114034974D01*
X70975003Y-113940001D01*
X70998806Y-113910997D01*
X86191004Y-98718800D01*
X86220001Y-98695003D01*
X86259193Y-98647247D01*
X86314974Y-98579279D01*
X86385546Y-98447249D01*
X86385546Y-98447248D01*
X86429003Y-98303988D01*
X86440000Y-98192335D01*
X86440000Y-98192325D01*
X86443676Y-98155002D01*
X86440000Y-98117679D01*
X86440000Y-96881046D01*
X86534494Y-96830537D01*
X86631185Y-96751185D01*
X86710537Y-96654494D01*
X86769502Y-96544180D01*
X86805812Y-96424482D01*
X86818072Y-96300000D01*
X86818072Y-93790000D01*
X86817580Y-93785000D01*
X89622420Y-93785000D01*
X89621928Y-93790000D01*
%TA.AperFunction,Conductor*%
D16*
G36*
X89621928Y-93790000D02*
G01*
X89621928Y-96300000D01*
X89634188Y-96424482D01*
X89670498Y-96544180D01*
X89729463Y-96654494D01*
X89808815Y-96751185D01*
X89905506Y-96830537D01*
X90015820Y-96889502D01*
X90135518Y-96925812D01*
X90260000Y-96938072D01*
X91260000Y-96938072D01*
X91384482Y-96925812D01*
X91504180Y-96889502D01*
X91614494Y-96830537D01*
X91711185Y-96751185D01*
X91790537Y-96654494D01*
X91849502Y-96544180D01*
X91885812Y-96424482D01*
X91898072Y-96300000D01*
X91898072Y-93790000D01*
X91897580Y-93785000D01*
X94702420Y-93785000D01*
X94701928Y-93790000D01*
X94701928Y-96300000D01*
X94714188Y-96424482D01*
X94750498Y-96544180D01*
X94809463Y-96654494D01*
X94888815Y-96751185D01*
X94985506Y-96830537D01*
X95095820Y-96889502D01*
X95215518Y-96925812D01*
X95340000Y-96938072D01*
X96340000Y-96938072D01*
X96464482Y-96925812D01*
X96584180Y-96889502D01*
X96694494Y-96830537D01*
X96791185Y-96751185D01*
X96870537Y-96654494D01*
X96929502Y-96544180D01*
X96965812Y-96424482D01*
X96978072Y-96300000D01*
X96978072Y-93790000D01*
X96977580Y-93785000D01*
X99782420Y-93785000D01*
X99781928Y-93790000D01*
X99781928Y-96300000D01*
X99794188Y-96424482D01*
X99830498Y-96544180D01*
X99889463Y-96654494D01*
X99968815Y-96751185D01*
X100065506Y-96830537D01*
X100175820Y-96889502D01*
X100295518Y-96925812D01*
X100420000Y-96938072D01*
X101420000Y-96938072D01*
X101544482Y-96925812D01*
X101664180Y-96889502D01*
X101774494Y-96830537D01*
X101871185Y-96751185D01*
X101950537Y-96654494D01*
X102009502Y-96544180D01*
X102045812Y-96424482D01*
X102058072Y-96300000D01*
X104861928Y-96300000D01*
X104874188Y-96424482D01*
X104910498Y-96544180D01*
X104969463Y-96654494D01*
X105048815Y-96751185D01*
X105145506Y-96830537D01*
X105255820Y-96889502D01*
X105375518Y-96925812D01*
X105500000Y-96938072D01*
X105714250Y-96935000D01*
X105873000Y-96776250D01*
X105873000Y-95172000D01*
X106127000Y-95172000D01*
X106127000Y-96776250D01*
X106285750Y-96935000D01*
X106500000Y-96938072D01*
X106624482Y-96925812D01*
X106744180Y-96889502D01*
X106854494Y-96830537D01*
X106951185Y-96751185D01*
X107030537Y-96654494D01*
X107089502Y-96544180D01*
X107125812Y-96424482D01*
X107138072Y-96300000D01*
X107135000Y-95330750D01*
X106976250Y-95172000D01*
X106127000Y-95172000D01*
X105873000Y-95172000D01*
X105023750Y-95172000D01*
X104865000Y-95330750D01*
X104861928Y-96300000D01*
X102058072Y-96300000D01*
X102058072Y-93790000D01*
X102057580Y-93785000D01*
X104862420Y-93785000D01*
X104861928Y-93790000D01*
X104865000Y-94759250D01*
X105023750Y-94918000D01*
X105873000Y-94918000D01*
X105873000Y-94898000D01*
X106127000Y-94898000D01*
X106127000Y-94918000D01*
X106976250Y-94918000D01*
X107135000Y-94759250D01*
X107138072Y-93790000D01*
X107137580Y-93785000D01*
X110315000Y-93785000D01*
X110315000Y-104942971D01*
X110289850Y-104929528D01*
X110123254Y-104878992D01*
X109950000Y-104861928D01*
X107050000Y-104861928D01*
X106876746Y-104878992D01*
X106710150Y-104929528D01*
X106556614Y-105011595D01*
X106422038Y-105122038D01*
X106311595Y-105256614D01*
X106229528Y-105410150D01*
X106178992Y-105576746D01*
X106161928Y-105750000D01*
X106161928Y-106750000D01*
X106178992Y-106923254D01*
X106229528Y-107089850D01*
X106311595Y-107243386D01*
X106422038Y-107377962D01*
X106556614Y-107488405D01*
X106710150Y-107570472D01*
X106876746Y-107621008D01*
X107050000Y-107638072D01*
X109950000Y-107638072D01*
X110123254Y-107621008D01*
X110289850Y-107570472D01*
X110315000Y-107557029D01*
X110315001Y-115642971D01*
X110289850Y-115629528D01*
X110123254Y-115578992D01*
X109950000Y-115561928D01*
X107050000Y-115561928D01*
X106876746Y-115578992D01*
X106710150Y-115629528D01*
X106556614Y-115711595D01*
X106422038Y-115822038D01*
X106311595Y-115956614D01*
X106229528Y-116110150D01*
X106178992Y-116276746D01*
X106161928Y-116450000D01*
X106161928Y-117450000D01*
X106178992Y-117623254D01*
X106229528Y-117789850D01*
X106311595Y-117943386D01*
X106422038Y-118077962D01*
X106556614Y-118188405D01*
X106710150Y-118270472D01*
X106876746Y-118321008D01*
X107050000Y-118338072D01*
X109950000Y-118338072D01*
X110123254Y-118321008D01*
X110289850Y-118270472D01*
X110315001Y-118257029D01*
X110315001Y-129315000D01*
X106998354Y-129315000D01*
X107025812Y-129224482D01*
X107038072Y-129100000D01*
X107035000Y-128435750D01*
X106876250Y-128277000D01*
X106027000Y-128277000D01*
X106027000Y-128297000D01*
X105773000Y-128297000D01*
X105773000Y-128277000D01*
X104923750Y-128277000D01*
X104765000Y-128435750D01*
X104761928Y-129100000D01*
X104774188Y-129224482D01*
X104801646Y-129315000D01*
X101918354Y-129315000D01*
X101945812Y-129224482D01*
X101958072Y-129100000D01*
X101958072Y-127200000D01*
X101945812Y-127075518D01*
X101909502Y-126955820D01*
X101850537Y-126845506D01*
X101771185Y-126748815D01*
X101674494Y-126669463D01*
X101580000Y-126618954D01*
X101580000Y-126479804D01*
X102036204Y-126936009D01*
X102059998Y-126965002D01*
X102088991Y-126988796D01*
X102088995Y-126988800D01*
X102159684Y-127046812D01*
X102175723Y-127059975D01*
X102307752Y-127130547D01*
X102451013Y-127174004D01*
X102562666Y-127185001D01*
X102562675Y-127185001D01*
X102599998Y-127188677D01*
X102637321Y-127185001D01*
X104763405Y-127185001D01*
X104761928Y-127200000D01*
X104765000Y-127864250D01*
X104923750Y-128023000D01*
X105773000Y-128023000D01*
X105773000Y-128003000D01*
X106027000Y-128003000D01*
X106027000Y-128023000D01*
X106876250Y-128023000D01*
X107035000Y-127864250D01*
X107038072Y-127200000D01*
X107025812Y-127075518D01*
X106989502Y-126955820D01*
X106930537Y-126845506D01*
X106855603Y-126754198D01*
X107430128Y-126179674D01*
X107488815Y-126251185D01*
X107585506Y-126330537D01*
X107695820Y-126389502D01*
X107815518Y-126425812D01*
X107940000Y-126438072D01*
X108940000Y-126438072D01*
X109064482Y-126425812D01*
X109184180Y-126389502D01*
X109294494Y-126330537D01*
X109391185Y-126251185D01*
X109470537Y-126154494D01*
X109529502Y-126044180D01*
X109565812Y-125924482D01*
X109578072Y-125800000D01*
X109578072Y-123900000D01*
X109565812Y-123775518D01*
X109529502Y-123655820D01*
X109470537Y-123545506D01*
X109391185Y-123448815D01*
X109294494Y-123369463D01*
X109184180Y-123310498D01*
X109064482Y-123274188D01*
X108940000Y-123261928D01*
X107940000Y-123261928D01*
X107815518Y-123274188D01*
X107695820Y-123310498D01*
X107585506Y-123369463D01*
X107488815Y-123448815D01*
X107409463Y-123545506D01*
X107350498Y-123655820D01*
X107314188Y-123775518D01*
X107301928Y-123900000D01*
X107301928Y-124190674D01*
X107265724Y-124210026D01*
X107149999Y-124304999D01*
X107126201Y-124333997D01*
X105795198Y-125665001D01*
X104498072Y-125665001D01*
X104498072Y-124781729D01*
X105336013Y-123943789D01*
X105365011Y-123919991D01*
X105391342Y-123887907D01*
X105459984Y-123804267D01*
X105530556Y-123672237D01*
X105535536Y-123655820D01*
X105574013Y-123528976D01*
X105585010Y-123417323D01*
X105585010Y-123417313D01*
X105588686Y-123379991D01*
X105585010Y-123342668D01*
X105585010Y-112962343D01*
X105588687Y-112925010D01*
X105574013Y-112776024D01*
X105530556Y-112632763D01*
X105459984Y-112500734D01*
X105365011Y-112385009D01*
X105336008Y-112361207D01*
X105107710Y-112132909D01*
X105070472Y-112010150D01*
X104988405Y-111856614D01*
X104877962Y-111722038D01*
X104743386Y-111611595D01*
X104721693Y-111600000D01*
X104743386Y-111588405D01*
X104877962Y-111477962D01*
X104988405Y-111343386D01*
X105070472Y-111189850D01*
X105121008Y-111023254D01*
X105138072Y-110850000D01*
X105138072Y-110350000D01*
X105121008Y-110176746D01*
X105070472Y-110010150D01*
X104988405Y-109856614D01*
X104877962Y-109722038D01*
X104801187Y-109659031D01*
X104854494Y-109630537D01*
X104951185Y-109551185D01*
X105030537Y-109454494D01*
X105089502Y-109344180D01*
X105125812Y-109224482D01*
X105138072Y-109100000D01*
X105135000Y-108885750D01*
X104976250Y-108727000D01*
X102877000Y-108727000D01*
X102877000Y-108747000D01*
X102623000Y-108747000D01*
X102623000Y-108727000D01*
X100523750Y-108727000D01*
X100365000Y-108885750D01*
X100361928Y-109100000D01*
X100374188Y-109224482D01*
X100410498Y-109344180D01*
X100469463Y-109454494D01*
X100548815Y-109551185D01*
X100645506Y-109630537D01*
X100698813Y-109659031D01*
X100622038Y-109722038D01*
X100511595Y-109856614D01*
X100429528Y-110010150D01*
X100392290Y-110132908D01*
X95714002Y-114811197D01*
X95684998Y-114835000D01*
X95638017Y-114892247D01*
X95590025Y-114950725D01*
X95551257Y-115023254D01*
X95519453Y-115082755D01*
X95475996Y-115226016D01*
X95464999Y-115337669D01*
X95464999Y-115337679D01*
X95461323Y-115375001D01*
X95464999Y-115412324D01*
X95465000Y-121310669D01*
X95461323Y-121348001D01*
X95465000Y-121385334D01*
X95470660Y-121442795D01*
X95475997Y-121496986D01*
X95519453Y-121640247D01*
X95590025Y-121772277D01*
X95661200Y-121859003D01*
X95684999Y-121888002D01*
X95713997Y-121911800D01*
X97293745Y-123491548D01*
X97249463Y-123545506D01*
X97190498Y-123655820D01*
X97154188Y-123775518D01*
X97141928Y-123900000D01*
X97141928Y-125800000D01*
X97154188Y-125924482D01*
X97190498Y-126044180D01*
X97249463Y-126154494D01*
X97328815Y-126251185D01*
X97425506Y-126330537D01*
X97535820Y-126389502D01*
X97655518Y-126425812D01*
X97780000Y-126438072D01*
X98780000Y-126438072D01*
X98904482Y-126425812D01*
X99024180Y-126389502D01*
X99134494Y-126330537D01*
X99231185Y-126251185D01*
X99310537Y-126154494D01*
X99369502Y-126044180D01*
X99405812Y-125924482D01*
X99418072Y-125800000D01*
X99418072Y-124717872D01*
X100060000Y-125359800D01*
X100060001Y-126618954D01*
X99965506Y-126669463D01*
X99868815Y-126748815D01*
X99789463Y-126845506D01*
X99730498Y-126955820D01*
X99694188Y-127075518D01*
X99681928Y-127200000D01*
X99681928Y-129100000D01*
X99694188Y-129224482D01*
X99721646Y-129315000D01*
X96838354Y-129315000D01*
X96865812Y-129224482D01*
X96878072Y-129100000D01*
X96878072Y-127200000D01*
X96865812Y-127075518D01*
X96829502Y-126955820D01*
X96770537Y-126845506D01*
X96691185Y-126748815D01*
X96594494Y-126669463D01*
X96484180Y-126610498D01*
X96364482Y-126574188D01*
X96240000Y-126561928D01*
X95240000Y-126561928D01*
X95115518Y-126574188D01*
X94995820Y-126610498D01*
X94885506Y-126669463D01*
X94788815Y-126748815D01*
X94709463Y-126845506D01*
X94650498Y-126955820D01*
X94614188Y-127075518D01*
X94601928Y-127200000D01*
X94601928Y-129100000D01*
X94614188Y-129224482D01*
X94641646Y-129315000D01*
X91758354Y-129315000D01*
X91785812Y-129224482D01*
X91798072Y-129100000D01*
X91798072Y-127200000D01*
X91785812Y-127075518D01*
X91749502Y-126955820D01*
X91690537Y-126845506D01*
X91611185Y-126748815D01*
X91514494Y-126669463D01*
X91404180Y-126610498D01*
X91284482Y-126574188D01*
X91160000Y-126561928D01*
X90160000Y-126561928D01*
X90035518Y-126574188D01*
X89915820Y-126610498D01*
X89805506Y-126669463D01*
X89708815Y-126748815D01*
X89629463Y-126845506D01*
X89570498Y-126955820D01*
X89534188Y-127075518D01*
X89521928Y-127200000D01*
X89521928Y-129100000D01*
X89534188Y-129224482D01*
X89561646Y-129315000D01*
X86678354Y-129315000D01*
X86705812Y-129224482D01*
X86718072Y-129100000D01*
X86718072Y-127200000D01*
X86705812Y-127075518D01*
X86669502Y-126955820D01*
X86610537Y-126845506D01*
X86531185Y-126748815D01*
X86434494Y-126669463D01*
X86324180Y-126610498D01*
X86204482Y-126574188D01*
X86080000Y-126561928D01*
X85080000Y-126561928D01*
X84955518Y-126574188D01*
X84835820Y-126610498D01*
X84725506Y-126669463D01*
X84628815Y-126748815D01*
X84549463Y-126845506D01*
X84490498Y-126955820D01*
X84454188Y-127075518D01*
X84441928Y-127200000D01*
X84441928Y-129100000D01*
X84454188Y-129224482D01*
X84481646Y-129315000D01*
X81598354Y-129315000D01*
X81625812Y-129224482D01*
X81638072Y-129100000D01*
X81638072Y-127200000D01*
X81625812Y-127075518D01*
X81589502Y-126955820D01*
X81530537Y-126845506D01*
X81451185Y-126748815D01*
X81354494Y-126669463D01*
X81244180Y-126610498D01*
X81124482Y-126574188D01*
X81000000Y-126561928D01*
X80000000Y-126561928D01*
X79875518Y-126574188D01*
X79755820Y-126610498D01*
X79645506Y-126669463D01*
X79548815Y-126748815D01*
X79469463Y-126845506D01*
X79410498Y-126955820D01*
X79374188Y-127075518D01*
X79361928Y-127200000D01*
X79361928Y-129100000D01*
X79374188Y-129224482D01*
X79401646Y-129315000D01*
X76518354Y-129315000D01*
X76545812Y-129224482D01*
X76558072Y-129100000D01*
X76558072Y-127200000D01*
X76545812Y-127075518D01*
X76509502Y-126955820D01*
X76450537Y-126845506D01*
X76371185Y-126748815D01*
X76274494Y-126669463D01*
X76164180Y-126610498D01*
X76044482Y-126574188D01*
X75920000Y-126561928D01*
X74920000Y-126561928D01*
X74795518Y-126574188D01*
X74675820Y-126610498D01*
X74565506Y-126669463D01*
X74468815Y-126748815D01*
X74389463Y-126845506D01*
X74330498Y-126955820D01*
X74294188Y-127075518D01*
X74281928Y-127200000D01*
X74281928Y-129100000D01*
X74294188Y-129224482D01*
X74321646Y-129315000D01*
X71438354Y-129315000D01*
X71465812Y-129224482D01*
X71478072Y-129100000D01*
X71478072Y-127200000D01*
X71465812Y-127075518D01*
X71429502Y-126955820D01*
X71370537Y-126845506D01*
X71291185Y-126748815D01*
X71194494Y-126669463D01*
X71084180Y-126610498D01*
X70964482Y-126574188D01*
X70840000Y-126561928D01*
X69840000Y-126561928D01*
X69715518Y-126574188D01*
X69595820Y-126610498D01*
X69485506Y-126669463D01*
X69388815Y-126748815D01*
X69309463Y-126845506D01*
X69250498Y-126955820D01*
X69214188Y-127075518D01*
X69201928Y-127200000D01*
X69201928Y-129100000D01*
X69214188Y-129224482D01*
X69241646Y-129315000D01*
X66358354Y-129315000D01*
X66385812Y-129224482D01*
X66398072Y-129100000D01*
X66398072Y-127200000D01*
X66385812Y-127075518D01*
X66349502Y-126955820D01*
X66290537Y-126845506D01*
X66211185Y-126748815D01*
X66114494Y-126669463D01*
X66004180Y-126610498D01*
X65884482Y-126574188D01*
X65760000Y-126561928D01*
X64760000Y-126561928D01*
X64635518Y-126574188D01*
X64515820Y-126610498D01*
X64405506Y-126669463D01*
X64308815Y-126748815D01*
X64229463Y-126845506D01*
X64170498Y-126955820D01*
X64134188Y-127075518D01*
X64121928Y-127200000D01*
X64121928Y-129100000D01*
X64134188Y-129224482D01*
X64161646Y-129315000D01*
X61278354Y-129315000D01*
X61305812Y-129224482D01*
X61318072Y-129100000D01*
X61318072Y-127200000D01*
X61305812Y-127075518D01*
X61269502Y-126955820D01*
X61210537Y-126845506D01*
X61131185Y-126748815D01*
X61034494Y-126669463D01*
X60924180Y-126610498D01*
X60804482Y-126574188D01*
X60680000Y-126561928D01*
X59680000Y-126561928D01*
X59555518Y-126574188D01*
X59435820Y-126610498D01*
X59325506Y-126669463D01*
X59228815Y-126748815D01*
X59149463Y-126845506D01*
X59090498Y-126955820D01*
X59054188Y-127075518D01*
X59041928Y-127200000D01*
X59041928Y-129100000D01*
X59054188Y-129224482D01*
X59081646Y-129315000D01*
X56198354Y-129315000D01*
X56225812Y-129224482D01*
X56238072Y-129100000D01*
X56238072Y-127200000D01*
X56225812Y-127075518D01*
X56189502Y-126955820D01*
X56130537Y-126845506D01*
X56051185Y-126748815D01*
X55954494Y-126669463D01*
X55860000Y-126618954D01*
X55860000Y-123900000D01*
X56501928Y-123900000D01*
X56501928Y-125800000D01*
X56514188Y-125924482D01*
X56550498Y-126044180D01*
X56609463Y-126154494D01*
X56688815Y-126251185D01*
X56785506Y-126330537D01*
X56895820Y-126389502D01*
X57015518Y-126425812D01*
X57140000Y-126438072D01*
X58140000Y-126438072D01*
X58264482Y-126425812D01*
X58384180Y-126389502D01*
X58494494Y-126330537D01*
X58591185Y-126251185D01*
X58670537Y-126154494D01*
X58729502Y-126044180D01*
X58765812Y-125924482D01*
X58778072Y-125800000D01*
X58778072Y-123900000D01*
X61581928Y-123900000D01*
X61581928Y-125800000D01*
X61594188Y-125924482D01*
X61630498Y-126044180D01*
X61689463Y-126154494D01*
X61768815Y-126251185D01*
X61865506Y-126330537D01*
X61975820Y-126389502D01*
X62095518Y-126425812D01*
X62220000Y-126438072D01*
X63220000Y-126438072D01*
X63344482Y-126425812D01*
X63464180Y-126389502D01*
X63574494Y-126330537D01*
X63671185Y-126251185D01*
X63750537Y-126154494D01*
X63809502Y-126044180D01*
X63845812Y-125924482D01*
X63858072Y-125800000D01*
X63858072Y-123900000D01*
X66661928Y-123900000D01*
X66661928Y-125800000D01*
X66674188Y-125924482D01*
X66710498Y-126044180D01*
X66769463Y-126154494D01*
X66848815Y-126251185D01*
X66945506Y-126330537D01*
X67055820Y-126389502D01*
X67175518Y-126425812D01*
X67300000Y-126438072D01*
X68300000Y-126438072D01*
X68424482Y-126425812D01*
X68544180Y-126389502D01*
X68654494Y-126330537D01*
X68751185Y-126251185D01*
X68830537Y-126154494D01*
X68889502Y-126044180D01*
X68925812Y-125924482D01*
X68938072Y-125800000D01*
X68938072Y-123900000D01*
X71741928Y-123900000D01*
X71741928Y-125800000D01*
X71754188Y-125924482D01*
X71790498Y-126044180D01*
X71849463Y-126154494D01*
X71928815Y-126251185D01*
X72025506Y-126330537D01*
X72135820Y-126389502D01*
X72255518Y-126425812D01*
X72380000Y-126438072D01*
X73380000Y-126438072D01*
X73504482Y-126425812D01*
X73624180Y-126389502D01*
X73734494Y-126330537D01*
X73831185Y-126251185D01*
X73910537Y-126154494D01*
X73969502Y-126044180D01*
X74005812Y-125924482D01*
X74018072Y-125800000D01*
X74018072Y-123900000D01*
X76821928Y-123900000D01*
X76821928Y-125800000D01*
X76834188Y-125924482D01*
X76870498Y-126044180D01*
X76929463Y-126154494D01*
X77008815Y-126251185D01*
X77105506Y-126330537D01*
X77215820Y-126389502D01*
X77335518Y-126425812D01*
X77460000Y-126438072D01*
X78460000Y-126438072D01*
X78584482Y-126425812D01*
X78704180Y-126389502D01*
X78814494Y-126330537D01*
X78911185Y-126251185D01*
X78990537Y-126154494D01*
X79049502Y-126044180D01*
X79085812Y-125924482D01*
X79098072Y-125800000D01*
X79098072Y-123900000D01*
X81901928Y-123900000D01*
X81901928Y-125800000D01*
X81914188Y-125924482D01*
X81950498Y-126044180D01*
X82009463Y-126154494D01*
X82088815Y-126251185D01*
X82185506Y-126330537D01*
X82295820Y-126389502D01*
X82415518Y-126425812D01*
X82540000Y-126438072D01*
X83540000Y-126438072D01*
X83664482Y-126425812D01*
X83784180Y-126389502D01*
X83894494Y-126330537D01*
X83991185Y-126251185D01*
X84070537Y-126154494D01*
X84129502Y-126044180D01*
X84165812Y-125924482D01*
X84178072Y-125800000D01*
X84178072Y-123900000D01*
X86981928Y-123900000D01*
X86981928Y-125800000D01*
X86994188Y-125924482D01*
X87030498Y-126044180D01*
X87089463Y-126154494D01*
X87168815Y-126251185D01*
X87265506Y-126330537D01*
X87375820Y-126389502D01*
X87495518Y-126425812D01*
X87620000Y-126438072D01*
X88620000Y-126438072D01*
X88744482Y-126425812D01*
X88864180Y-126389502D01*
X88974494Y-126330537D01*
X89071185Y-126251185D01*
X89150537Y-126154494D01*
X89209502Y-126044180D01*
X89245812Y-125924482D01*
X89258072Y-125800000D01*
X89258072Y-123900000D01*
X92061928Y-123900000D01*
X92061928Y-125800000D01*
X92074188Y-125924482D01*
X92110498Y-126044180D01*
X92169463Y-126154494D01*
X92248815Y-126251185D01*
X92345506Y-126330537D01*
X92455820Y-126389502D01*
X92575518Y-126425812D01*
X92700000Y-126438072D01*
X93700000Y-126438072D01*
X93824482Y-126425812D01*
X93944180Y-126389502D01*
X94054494Y-126330537D01*
X94151185Y-126251185D01*
X94230537Y-126154494D01*
X94289502Y-126044180D01*
X94325812Y-125924482D01*
X94338072Y-125800000D01*
X94338072Y-123900000D01*
X94325812Y-123775518D01*
X94289502Y-123655820D01*
X94230537Y-123545506D01*
X94151185Y-123448815D01*
X94054494Y-123369463D01*
X93944180Y-123310498D01*
X93824482Y-123274188D01*
X93700000Y-123261928D01*
X92700000Y-123261928D01*
X92575518Y-123274188D01*
X92455820Y-123310498D01*
X92345506Y-123369463D01*
X92248815Y-123448815D01*
X92169463Y-123545506D01*
X92110498Y-123655820D01*
X92074188Y-123775518D01*
X92061928Y-123900000D01*
X89258072Y-123900000D01*
X89245812Y-123775518D01*
X89209502Y-123655820D01*
X89150537Y-123545506D01*
X89071185Y-123448815D01*
X88974494Y-123369463D01*
X88864180Y-123310498D01*
X88744482Y-123274188D01*
X88620000Y-123261928D01*
X87620000Y-123261928D01*
X87495518Y-123274188D01*
X87375820Y-123310498D01*
X87265506Y-123369463D01*
X87168815Y-123448815D01*
X87089463Y-123545506D01*
X87030498Y-123655820D01*
X86994188Y-123775518D01*
X86981928Y-123900000D01*
X84178072Y-123900000D01*
X84165812Y-123775518D01*
X84129502Y-123655820D01*
X84070537Y-123545506D01*
X83991185Y-123448815D01*
X83894494Y-123369463D01*
X83784180Y-123310498D01*
X83664482Y-123274188D01*
X83540000Y-123261928D01*
X82540000Y-123261928D01*
X82415518Y-123274188D01*
X82295820Y-123310498D01*
X82185506Y-123369463D01*
X82088815Y-123448815D01*
X82009463Y-123545506D01*
X81950498Y-123655820D01*
X81914188Y-123775518D01*
X81901928Y-123900000D01*
X79098072Y-123900000D01*
X79085812Y-123775518D01*
X79049502Y-123655820D01*
X78990537Y-123545506D01*
X78911185Y-123448815D01*
X78814494Y-123369463D01*
X78704180Y-123310498D01*
X78584482Y-123274188D01*
X78460000Y-123261928D01*
X77460000Y-123261928D01*
X77335518Y-123274188D01*
X77215820Y-123310498D01*
X77105506Y-123369463D01*
X77008815Y-123448815D01*
X76929463Y-123545506D01*
X76870498Y-123655820D01*
X76834188Y-123775518D01*
X76821928Y-123900000D01*
X74018072Y-123900000D01*
X74005812Y-123775518D01*
X73969502Y-123655820D01*
X73910537Y-123545506D01*
X73831185Y-123448815D01*
X73734494Y-123369463D01*
X73624180Y-123310498D01*
X73504482Y-123274188D01*
X73380000Y-123261928D01*
X72380000Y-123261928D01*
X72255518Y-123274188D01*
X72135820Y-123310498D01*
X72025506Y-123369463D01*
X71928815Y-123448815D01*
X71849463Y-123545506D01*
X71790498Y-123655820D01*
X71754188Y-123775518D01*
X71741928Y-123900000D01*
X68938072Y-123900000D01*
X68925812Y-123775518D01*
X68889502Y-123655820D01*
X68830537Y-123545506D01*
X68751185Y-123448815D01*
X68654494Y-123369463D01*
X68544180Y-123310498D01*
X68424482Y-123274188D01*
X68300000Y-123261928D01*
X67300000Y-123261928D01*
X67175518Y-123274188D01*
X67055820Y-123310498D01*
X66945506Y-123369463D01*
X66848815Y-123448815D01*
X66769463Y-123545506D01*
X66710498Y-123655820D01*
X66674188Y-123775518D01*
X66661928Y-123900000D01*
X63858072Y-123900000D01*
X63845812Y-123775518D01*
X63809502Y-123655820D01*
X63750537Y-123545506D01*
X63671185Y-123448815D01*
X63574494Y-123369463D01*
X63464180Y-123310498D01*
X63344482Y-123274188D01*
X63220000Y-123261928D01*
X62220000Y-123261928D01*
X62095518Y-123274188D01*
X61975820Y-123310498D01*
X61865506Y-123369463D01*
X61768815Y-123448815D01*
X61689463Y-123545506D01*
X61630498Y-123655820D01*
X61594188Y-123775518D01*
X61581928Y-123900000D01*
X58778072Y-123900000D01*
X58765812Y-123775518D01*
X58729502Y-123655820D01*
X58670537Y-123545506D01*
X58591185Y-123448815D01*
X58494494Y-123369463D01*
X58384180Y-123310498D01*
X58264482Y-123274188D01*
X58140000Y-123261928D01*
X57140000Y-123261928D01*
X57015518Y-123274188D01*
X56895820Y-123310498D01*
X56785506Y-123369463D01*
X56688815Y-123448815D01*
X56609463Y-123545506D01*
X56550498Y-123655820D01*
X56514188Y-123775518D01*
X56501928Y-123900000D01*
X55860000Y-123900000D01*
X55860000Y-120174947D01*
X60415000Y-120174947D01*
X60415000Y-120625053D01*
X60502811Y-121066510D01*
X60675059Y-121482353D01*
X60925125Y-121856603D01*
X61243397Y-122174875D01*
X61617647Y-122424941D01*
X62033490Y-122597189D01*
X62474947Y-122685000D01*
X62925053Y-122685000D01*
X63366510Y-122597189D01*
X63782353Y-122424941D01*
X64156603Y-122174875D01*
X64474875Y-121856603D01*
X64724941Y-121482353D01*
X64897189Y-121066510D01*
X64985000Y-120625053D01*
X64985000Y-120174947D01*
X64897189Y-119733490D01*
X64724941Y-119317647D01*
X64474875Y-118943397D01*
X64156603Y-118625125D01*
X63782353Y-118375059D01*
X63366510Y-118202811D01*
X62925053Y-118115000D01*
X62474947Y-118115000D01*
X62033490Y-118202811D01*
X61617647Y-118375059D01*
X61243397Y-118625125D01*
X60925125Y-118943397D01*
X60675059Y-119317647D01*
X60502811Y-119733490D01*
X60415000Y-120174947D01*
X55860000Y-120174947D01*
X55860000Y-118236790D01*
X55869463Y-118254494D01*
X55948815Y-118351185D01*
X56045506Y-118430537D01*
X56155820Y-118489502D01*
X56275518Y-118525812D01*
X56400000Y-118538072D01*
X57864250Y-118535000D01*
X58023000Y-118376250D01*
X58023000Y-117527000D01*
X58277000Y-117527000D01*
X58277000Y-118376250D01*
X58435750Y-118535000D01*
X59900000Y-118538072D01*
X60024482Y-118525812D01*
X60144180Y-118489502D01*
X60254494Y-118430537D01*
X60351185Y-118351185D01*
X60430537Y-118254494D01*
X60489502Y-118144180D01*
X60525812Y-118024482D01*
X60538072Y-117900000D01*
X60535000Y-117685750D01*
X60376250Y-117527000D01*
X58277000Y-117527000D01*
X58023000Y-117527000D01*
X58003000Y-117527000D01*
X58003000Y-117273000D01*
X58023000Y-117273000D01*
X58023000Y-117253000D01*
X58277000Y-117253000D01*
X58277000Y-117273000D01*
X60376250Y-117273000D01*
X60535000Y-117114250D01*
X60538072Y-116900000D01*
X60525812Y-116775518D01*
X60489502Y-116655820D01*
X60430537Y-116545506D01*
X60351185Y-116448815D01*
X60254494Y-116369463D01*
X60201187Y-116340969D01*
X60277962Y-116277962D01*
X60374770Y-116160000D01*
X71137678Y-116160000D01*
X71175000Y-116163676D01*
X71212322Y-116160000D01*
X71212333Y-116160000D01*
X71323986Y-116149003D01*
X71467247Y-116105546D01*
X71599276Y-116034974D01*
X71715001Y-115940001D01*
X71738804Y-115910997D01*
X79549801Y-108100000D01*
X100361928Y-108100000D01*
X100365000Y-108314250D01*
X100523750Y-108473000D01*
X102623000Y-108473000D01*
X102623000Y-107623750D01*
X102877000Y-107623750D01*
X102877000Y-108473000D01*
X104976250Y-108473000D01*
X105135000Y-108314250D01*
X105138072Y-108100000D01*
X105125812Y-107975518D01*
X105089502Y-107855820D01*
X105030537Y-107745506D01*
X104951185Y-107648815D01*
X104854494Y-107569463D01*
X104744180Y-107510498D01*
X104624482Y-107474188D01*
X104500000Y-107461928D01*
X103035750Y-107465000D01*
X102877000Y-107623750D01*
X102623000Y-107623750D01*
X102464250Y-107465000D01*
X101000000Y-107461928D01*
X100875518Y-107474188D01*
X100755820Y-107510498D01*
X100645506Y-107569463D01*
X100548815Y-107648815D01*
X100469463Y-107745506D01*
X100410498Y-107855820D01*
X100374188Y-107975518D01*
X100361928Y-108100000D01*
X79549801Y-108100000D01*
X85274854Y-102374947D01*
X96015000Y-102374947D01*
X96015000Y-102825053D01*
X96102811Y-103266510D01*
X96275059Y-103682353D01*
X96525125Y-104056603D01*
X96843397Y-104374875D01*
X97217647Y-104624941D01*
X97633490Y-104797189D01*
X98074947Y-104885000D01*
X98525053Y-104885000D01*
X98966510Y-104797189D01*
X99382353Y-104624941D01*
X99756603Y-104374875D01*
X100074875Y-104056603D01*
X100324941Y-103682353D01*
X100497189Y-103266510D01*
X100585000Y-102825053D01*
X100585000Y-102374947D01*
X100497189Y-101933490D01*
X100324941Y-101517647D01*
X100074875Y-101143397D01*
X99756603Y-100825125D01*
X99382353Y-100575059D01*
X98966510Y-100402811D01*
X98525053Y-100315000D01*
X98074947Y-100315000D01*
X97633490Y-100402811D01*
X97217647Y-100575059D01*
X96843397Y-100825125D01*
X96525125Y-101143397D01*
X96275059Y-101517647D01*
X96102811Y-101933490D01*
X96015000Y-102374947D01*
X85274854Y-102374947D01*
X87459189Y-100190613D01*
X87475820Y-100199502D01*
X87595518Y-100235812D01*
X87720000Y-100248072D01*
X88720000Y-100248072D01*
X88844482Y-100235812D01*
X88964180Y-100199502D01*
X89074494Y-100140537D01*
X89171185Y-100061185D01*
X89250537Y-99964494D01*
X89309502Y-99854180D01*
X89345812Y-99734482D01*
X89358072Y-99610000D01*
X89358072Y-97100000D01*
X92161928Y-97100000D01*
X92161928Y-99610000D01*
X92174188Y-99734482D01*
X92210498Y-99854180D01*
X92269463Y-99964494D01*
X92348815Y-100061185D01*
X92445506Y-100140537D01*
X92555820Y-100199502D01*
X92675518Y-100235812D01*
X92800000Y-100248072D01*
X93800000Y-100248072D01*
X93924482Y-100235812D01*
X94044180Y-100199502D01*
X94154494Y-100140537D01*
X94251185Y-100061185D01*
X94330537Y-99964494D01*
X94389502Y-99854180D01*
X94425812Y-99734482D01*
X94438072Y-99610000D01*
X94438072Y-97100000D01*
X97241928Y-97100000D01*
X97241928Y-99610000D01*
X97254188Y-99734482D01*
X97290498Y-99854180D01*
X97349463Y-99964494D01*
X97428815Y-100061185D01*
X97525506Y-100140537D01*
X97635820Y-100199502D01*
X97755518Y-100235812D01*
X97880000Y-100248072D01*
X98880000Y-100248072D01*
X99004482Y-100235812D01*
X99124180Y-100199502D01*
X99234494Y-100140537D01*
X99331185Y-100061185D01*
X99410537Y-99964494D01*
X99469502Y-99854180D01*
X99505812Y-99734482D01*
X99518072Y-99610000D01*
X99518072Y-97100000D01*
X102321928Y-97100000D01*
X102321928Y-99610000D01*
X102334188Y-99734482D01*
X102370498Y-99854180D01*
X102429463Y-99964494D01*
X102508815Y-100061185D01*
X102605506Y-100140537D01*
X102715820Y-100199502D01*
X102835518Y-100235812D01*
X102960000Y-100248072D01*
X103960000Y-100248072D01*
X104084482Y-100235812D01*
X104204180Y-100199502D01*
X104314494Y-100140537D01*
X104411185Y-100061185D01*
X104490537Y-99964494D01*
X104549502Y-99854180D01*
X104585812Y-99734482D01*
X104598072Y-99610000D01*
X104598072Y-97100000D01*
X107401928Y-97100000D01*
X107401928Y-99610000D01*
X107414188Y-99734482D01*
X107450498Y-99854180D01*
X107509463Y-99964494D01*
X107588815Y-100061185D01*
X107685506Y-100140537D01*
X107780001Y-100191046D01*
X107780001Y-100756288D01*
X107736063Y-100800226D01*
X107622795Y-100969744D01*
X107544774Y-101158102D01*
X107505000Y-101358061D01*
X107505000Y-101561939D01*
X107544774Y-101761898D01*
X107622795Y-101950256D01*
X107736063Y-102119774D01*
X107880226Y-102263937D01*
X108049744Y-102377205D01*
X108238102Y-102455226D01*
X108438061Y-102495000D01*
X108641939Y-102495000D01*
X108841898Y-102455226D01*
X109030256Y-102377205D01*
X109199774Y-102263937D01*
X109343937Y-102119774D01*
X109457205Y-101950256D01*
X109535226Y-101761898D01*
X109575000Y-101561939D01*
X109575000Y-101358061D01*
X109535226Y-101158102D01*
X109457205Y-100969744D01*
X109343937Y-100800226D01*
X109300000Y-100756289D01*
X109300000Y-100191046D01*
X109394494Y-100140537D01*
X109491185Y-100061185D01*
X109570537Y-99964494D01*
X109629502Y-99854180D01*
X109665812Y-99734482D01*
X109678072Y-99610000D01*
X109678072Y-97100000D01*
X109665812Y-96975518D01*
X109629502Y-96855820D01*
X109570537Y-96745506D01*
X109491185Y-96648815D01*
X109394494Y-96569463D01*
X109284180Y-96510498D01*
X109164482Y-96474188D01*
X109040000Y-96461928D01*
X108040000Y-96461928D01*
X107915518Y-96474188D01*
X107795820Y-96510498D01*
X107685506Y-96569463D01*
X107588815Y-96648815D01*
X107509463Y-96745506D01*
X107450498Y-96855820D01*
X107414188Y-96975518D01*
X107401928Y-97100000D01*
X104598072Y-97100000D01*
X104585812Y-96975518D01*
X104549502Y-96855820D01*
X104490537Y-96745506D01*
X104411185Y-96648815D01*
X104314494Y-96569463D01*
X104204180Y-96510498D01*
X104084482Y-96474188D01*
X103960000Y-96461928D01*
X102960000Y-96461928D01*
X102835518Y-96474188D01*
X102715820Y-96510498D01*
X102605506Y-96569463D01*
X102508815Y-96648815D01*
X102429463Y-96745506D01*
X102370498Y-96855820D01*
X102334188Y-96975518D01*
X102321928Y-97100000D01*
X99518072Y-97100000D01*
X99505812Y-96975518D01*
X99469502Y-96855820D01*
X99410537Y-96745506D01*
X99331185Y-96648815D01*
X99234494Y-96569463D01*
X99124180Y-96510498D01*
X99004482Y-96474188D01*
X98880000Y-96461928D01*
X97880000Y-96461928D01*
X97755518Y-96474188D01*
X97635820Y-96510498D01*
X97525506Y-96569463D01*
X97428815Y-96648815D01*
X97349463Y-96745506D01*
X97290498Y-96855820D01*
X97254188Y-96975518D01*
X97241928Y-97100000D01*
X94438072Y-97100000D01*
X94425812Y-96975518D01*
X94389502Y-96855820D01*
X94330537Y-96745506D01*
X94251185Y-96648815D01*
X94154494Y-96569463D01*
X94044180Y-96510498D01*
X93924482Y-96474188D01*
X93800000Y-96461928D01*
X92800000Y-96461928D01*
X92675518Y-96474188D01*
X92555820Y-96510498D01*
X92445506Y-96569463D01*
X92348815Y-96648815D01*
X92269463Y-96745506D01*
X92210498Y-96855820D01*
X92174188Y-96975518D01*
X92161928Y-97100000D01*
X89358072Y-97100000D01*
X89345812Y-96975518D01*
X89309502Y-96855820D01*
X89250537Y-96745506D01*
X89171185Y-96648815D01*
X89074494Y-96569463D01*
X88964180Y-96510498D01*
X88844482Y-96474188D01*
X88720000Y-96461928D01*
X87720000Y-96461928D01*
X87595518Y-96474188D01*
X87475820Y-96510498D01*
X87365506Y-96569463D01*
X87268815Y-96648815D01*
X87189463Y-96745506D01*
X87130498Y-96855820D01*
X87094188Y-96975518D01*
X87081928Y-97100000D01*
X87081928Y-98418270D01*
X70860199Y-114640000D01*
X60374770Y-114640000D01*
X60277962Y-114522038D01*
X60143386Y-114411595D01*
X60121693Y-114400000D01*
X60143386Y-114388405D01*
X60277962Y-114277962D01*
X60374770Y-114160000D01*
X70397680Y-114160000D01*
X70435002Y-114163676D01*
X70472324Y-114160000D01*
X70472335Y-114160000D01*
X70583988Y-114149003D01*
X70727249Y-114105546D01*
X70859278Y-114034974D01*
X70975003Y-113940001D01*
X70998806Y-113910997D01*
X86191004Y-98718800D01*
X86220001Y-98695003D01*
X86259193Y-98647247D01*
X86314974Y-98579279D01*
X86385546Y-98447249D01*
X86385546Y-98447248D01*
X86429003Y-98303988D01*
X86440000Y-98192335D01*
X86440000Y-98192325D01*
X86443676Y-98155002D01*
X86440000Y-98117679D01*
X86440000Y-96881046D01*
X86534494Y-96830537D01*
X86631185Y-96751185D01*
X86710537Y-96654494D01*
X86769502Y-96544180D01*
X86805812Y-96424482D01*
X86818072Y-96300000D01*
X86818072Y-93790000D01*
X86817580Y-93785000D01*
X89622420Y-93785000D01*
X89621928Y-93790000D01*
G37*
%TD.AperFunction*%
%TD*%
D17*
X99500000Y-114600000D03*
X62700000Y-120400000D03*
X62700000Y-102600000D03*
X98200000Y-120400000D03*
X98300000Y-102600000D03*
X101800000Y-117700000D03*
X52560000Y-122360000D03*
X52700000Y-100500000D03*
X108540000Y-101460000D03*
X61200000Y-109400000D03*
X61800000Y-117400000D03*
X99500000Y-108600000D03*
M02*
