M48
; DRILL file {KiCad (5.1.10-1-10_14)} date Monday, June 07, 2021 at 03:14:56 PM
; FORMAT={-:-/ absolute / metric / decimal}
; #@! TF.CreationDate,2021-06-07T15:14:56+08:00
; #@! TF.GenerationSoftware,Kicad,Pcbnew,(5.1.10-1-10_14)
; #@! TF.FileFunction,Plated,1,2,PTH
FMAT,2
METRIC
T1C0.400
T2C0.750
T3C1.000
T4C3.250
%
G90
G05
T1
X100.6Y-116.7
X100.76Y-118.24
T2
X57.5Y-108.6
X57.5Y-110.6
X57.5Y-112.6
X57.5Y-114.6
X57.5Y-116.6
X57.5Y-118.6
X57.5Y-120.6
X103.9Y-112.0
X103.9Y-114.0
X103.9Y-116.0
X103.9Y-118.0
T3
X52.5Y-127.5
X52.56Y-101.8
X55.04Y-127.5
X55.1Y-101.8
X57.58Y-127.5
X57.64Y-101.8
X60.12Y-127.5
X60.18Y-101.8
X62.66Y-127.5
X62.72Y-101.8
X65.2Y-127.5
X65.26Y-101.8
X67.74Y-127.5
X67.8Y-101.8
X70.28Y-127.5
X70.34Y-101.8
X72.82Y-127.5
X72.88Y-101.8
X75.36Y-127.5
X75.42Y-101.8
X77.9Y-127.5
X77.96Y-101.8
X80.44Y-127.5
X80.5Y-101.8
X82.98Y-127.5
X83.04Y-101.8
X85.52Y-127.5
X85.58Y-101.8
X88.06Y-127.5
X88.12Y-101.8
X90.6Y-127.5
X90.66Y-101.8
X93.14Y-127.5
X93.2Y-101.8
X95.68Y-127.5
X95.74Y-101.8
X98.22Y-127.5
X98.28Y-101.8
X100.76Y-127.5
X100.82Y-101.8
X103.3Y-127.5
X103.36Y-101.8
X105.84Y-127.5
X105.9Y-101.8
X108.38Y-127.5
X108.44Y-101.8
T4
X63.7Y-105.6
X63.7Y-123.5
X108.2Y-123.7
X108.4Y-105.74
T0
M30
