%TF.GenerationSoftware,KiCad,Pcbnew,(5.1.10-1-10_14)*%
%TF.CreationDate,2021-06-07T15:14:56+08:00*%
%TF.ProjectId,ultrasonic,756c7472-6173-46f6-9e69-632e6b696361,rev?*%
%TF.SameCoordinates,Original*%
%TF.FileFunction,Copper,L2,Bot*%
%TF.FilePolarity,Positive*%
%FSLAX46Y46*%
G04 Gerber Fmt 4.6, Leading zero omitted, Abs format (unit mm)*
G04 Created by KiCad (PCBNEW (5.1.10-1-10_14)) date 2021-06-07 15:14:56*
%MOMM*%
%LPD*%
G01*
G04 APERTURE LIST*
%TA.AperFunction,ComponentPad*%
%ADD10O,1.750000X1.200000*%
%TD*%
%TA.AperFunction,ComponentPad*%
%ADD11O,1.700000X1.700000*%
%TD*%
%TA.AperFunction,ComponentPad*%
%ADD12R,1.700000X1.700000*%
%TD*%
%TA.AperFunction,ViaPad*%
%ADD13C,3.300000*%
%TD*%
%TA.AperFunction,ViaPad*%
%ADD14C,0.800000*%
%TD*%
%TA.AperFunction,Conductor*%
%ADD15C,0.250000*%
%TD*%
%TA.AperFunction,Conductor*%
%ADD16C,0.254000*%
%TD*%
%TA.AperFunction,Conductor*%
%ADD17C,0.350000*%
%TD*%
%ADD18C,0.350000*%
G04 APERTURE END LIST*
D10*
%TO.P,J3,7*%
%TO.N,+5V*%
X57500000Y-120600000D03*
%TO.P,J3,6*%
%TO.N,/IO35*%
X57500000Y-118600000D03*
%TO.P,J3,5*%
%TO.N,/IO36*%
X57500000Y-116600000D03*
%TO.P,J3,4*%
%TO.N,/IO37*%
X57500000Y-114600000D03*
%TO.P,J3,3*%
%TO.N,GND*%
X57500000Y-112600000D03*
%TO.P,J3,2*%
%TO.N,/IO38*%
X57500000Y-110600000D03*
%TO.P,J3,1*%
%TO.N,/IO39*%
%TA.AperFunction,ComponentPad*%
G36*
G01*
X56874999Y-108000000D02*
X58125001Y-108000000D01*
G75*
G02*
X58375000Y-108249999I0J-249999D01*
G01*
X58375000Y-108950001D01*
G75*
G02*
X58125001Y-109200000I-249999J0D01*
G01*
X56874999Y-109200000D01*
G75*
G02*
X56625000Y-108950001I0J249999D01*
G01*
X56625000Y-108249999D01*
G75*
G02*
X56874999Y-108000000I249999J0D01*
G01*
G37*
%TD.AperFunction*%
%TD*%
%TO.P,J5,4*%
%TO.N,+5V*%
X103900000Y-112000000D03*
%TO.P,J5,3*%
%TO.N,/IO18*%
X103900000Y-114000000D03*
%TO.P,J5,2*%
%TO.N,/IO17*%
X103900000Y-116000000D03*
%TO.P,J5,1*%
%TO.N,GND*%
%TA.AperFunction,ComponentPad*%
G36*
G01*
X104525001Y-118600000D02*
X103274999Y-118600000D01*
G75*
G02*
X103025000Y-118350001I0J249999D01*
G01*
X103025000Y-117649999D01*
G75*
G02*
X103274999Y-117400000I249999J0D01*
G01*
X104525001Y-117400000D01*
G75*
G02*
X104775000Y-117649999I0J-249999D01*
G01*
X104775000Y-118350001D01*
G75*
G02*
X104525001Y-118600000I-249999J0D01*
G01*
G37*
%TD.AperFunction*%
%TD*%
D11*
%TO.P,J2,23*%
%TO.N,GND*%
X108440000Y-101800000D03*
%TO.P,J2,22*%
%TO.N,+5V*%
X105900000Y-101800000D03*
%TO.P,J2,21*%
%TO.N,N/C*%
X103360000Y-101800000D03*
%TO.P,J2,20*%
X100820000Y-101800000D03*
%TO.P,J2,19*%
X98280000Y-101800000D03*
%TO.P,J2,18*%
X95740000Y-101800000D03*
%TO.P,J2,17*%
X93200000Y-101800000D03*
%TO.P,J2,16*%
X90660000Y-101800000D03*
%TO.P,J2,15*%
%TO.N,/IO35*%
X88120000Y-101800000D03*
%TO.P,J2,14*%
%TO.N,/IO36*%
X85580000Y-101800000D03*
%TO.P,J2,13*%
%TO.N,/IO37*%
X83040000Y-101800000D03*
%TO.P,J2,12*%
%TO.N,/IO38*%
X80500000Y-101800000D03*
%TO.P,J2,11*%
%TO.N,/IO39*%
X77960000Y-101800000D03*
%TO.P,J2,10*%
%TO.N,N/C*%
X75420000Y-101800000D03*
%TO.P,J2,9*%
X72880000Y-101800000D03*
%TO.P,J2,8*%
X70340000Y-101800000D03*
%TO.P,J2,7*%
X67800000Y-101800000D03*
%TO.P,J2,6*%
X65260000Y-101800000D03*
%TO.P,J2,5*%
X62720000Y-101800000D03*
%TO.P,J2,4*%
X60180000Y-101800000D03*
%TO.P,J2,3*%
X57640000Y-101800000D03*
%TO.P,J2,2*%
%TO.N,+3V3*%
X55100000Y-101800000D03*
D12*
%TO.P,J2,1*%
%TO.N,GND*%
X52560000Y-101800000D03*
%TD*%
D11*
%TO.P,J1,23*%
%TO.N,GND*%
X108380000Y-127500000D03*
%TO.P,J1,22*%
%TO.N,+5V*%
X105840000Y-127500000D03*
%TO.P,J1,21*%
%TO.N,/IO18*%
X103300000Y-127500000D03*
%TO.P,J1,20*%
%TO.N,/IO17*%
X100760000Y-127500000D03*
%TO.P,J1,19*%
%TO.N,N/C*%
X98220000Y-127500000D03*
%TO.P,J1,18*%
X95680000Y-127500000D03*
%TO.P,J1,17*%
X93140000Y-127500000D03*
%TO.P,J1,16*%
X90600000Y-127500000D03*
%TO.P,J1,15*%
X88060000Y-127500000D03*
%TO.P,J1,14*%
X85520000Y-127500000D03*
%TO.P,J1,13*%
X82980000Y-127500000D03*
%TO.P,J1,12*%
X80440000Y-127500000D03*
%TO.P,J1,11*%
X77900000Y-127500000D03*
%TO.P,J1,10*%
X75360000Y-127500000D03*
%TO.P,J1,9*%
X72820000Y-127500000D03*
%TO.P,J1,8*%
X70280000Y-127500000D03*
%TO.P,J1,7*%
X67740000Y-127500000D03*
%TO.P,J1,6*%
X65200000Y-127500000D03*
%TO.P,J1,5*%
X62660000Y-127500000D03*
%TO.P,J1,4*%
X60120000Y-127500000D03*
%TO.P,J1,3*%
X57580000Y-127500000D03*
%TO.P,J1,2*%
%TO.N,+3V3*%
X55040000Y-127500000D03*
D12*
%TO.P,J1,1*%
%TO.N,GND*%
X52500000Y-127500000D03*
%TD*%
D13*
%TO.N,GND*%
X63700000Y-105600000D03*
X63700000Y-123500000D03*
X108400000Y-105740000D03*
X108200000Y-123700000D03*
D14*
%TO.N,/IO18*%
X100600000Y-116700000D03*
%TO.N,/IO17*%
X100760000Y-118240000D03*
%TD*%
D15*
%TO.N,GND*%
X108380000Y-122480000D02*
X103900000Y-118000000D01*
X108380000Y-127500000D02*
X108380000Y-122480000D01*
X57500000Y-112600000D02*
X98500000Y-112600000D01*
X98650000Y-111590000D02*
X98650000Y-112750000D01*
X108440000Y-101800000D02*
X98650000Y-111590000D01*
X98650000Y-112750000D02*
X103900000Y-118000000D01*
X98500000Y-112600000D02*
X98650000Y-112750000D01*
X52500000Y-117600000D02*
X52500000Y-123200000D01*
X57500000Y-112600000D02*
X52500000Y-117600000D01*
X52560000Y-108785000D02*
X52560000Y-105740000D01*
X56375000Y-112600000D02*
X52560000Y-108785000D01*
X57500000Y-112600000D02*
X56375000Y-112600000D01*
X52560000Y-105740000D02*
X52560000Y-101800000D01*
X52500000Y-123200000D02*
X52500000Y-127500000D01*
%TO.N,/IO18*%
X103300000Y-119706998D02*
X101100000Y-117506998D01*
X103300000Y-127500000D02*
X103300000Y-119706998D01*
X101100000Y-117200000D02*
X100600000Y-116700000D01*
X101100000Y-117506998D02*
X101100000Y-117200000D01*
%TO.N,/IO17*%
X100760000Y-118260000D02*
X100760000Y-118240000D01*
X100760000Y-118240000D02*
X100760000Y-118240000D01*
X100760000Y-118340000D02*
X100760000Y-118260000D01*
X100760000Y-118240000D02*
X100760000Y-127500000D01*
%TD*%
D16*
%TO.N,GND*%
X110315000Y-129315000D02*
X50685000Y-129315000D01*
X50685000Y-128350000D01*
X51011928Y-128350000D01*
X51024188Y-128474482D01*
X51060498Y-128594180D01*
X51119463Y-128704494D01*
X51198815Y-128801185D01*
X51295506Y-128880537D01*
X51405820Y-128939502D01*
X51525518Y-128975812D01*
X51650000Y-128988072D01*
X52214250Y-128985000D01*
X52373000Y-128826250D01*
X52373000Y-127627000D01*
X51173750Y-127627000D01*
X51015000Y-127785750D01*
X51011928Y-128350000D01*
X50685000Y-128350000D01*
X50685000Y-126650000D01*
X51011928Y-126650000D01*
X51015000Y-127214250D01*
X51173750Y-127373000D01*
X52373000Y-127373000D01*
X52373000Y-126173750D01*
X52627000Y-126173750D01*
X52627000Y-127373000D01*
X52647000Y-127373000D01*
X52647000Y-127627000D01*
X52627000Y-127627000D01*
X52627000Y-128826250D01*
X52785750Y-128985000D01*
X53350000Y-128988072D01*
X53474482Y-128975812D01*
X53594180Y-128939502D01*
X53704494Y-128880537D01*
X53801185Y-128801185D01*
X53880537Y-128704494D01*
X53939502Y-128594180D01*
X53961513Y-128521620D01*
X54093368Y-128653475D01*
X54336589Y-128815990D01*
X54606842Y-128927932D01*
X54893740Y-128985000D01*
X55186260Y-128985000D01*
X55473158Y-128927932D01*
X55743411Y-128815990D01*
X55986632Y-128653475D01*
X56193475Y-128446632D01*
X56310000Y-128272240D01*
X56426525Y-128446632D01*
X56633368Y-128653475D01*
X56876589Y-128815990D01*
X57146842Y-128927932D01*
X57433740Y-128985000D01*
X57726260Y-128985000D01*
X58013158Y-128927932D01*
X58283411Y-128815990D01*
X58526632Y-128653475D01*
X58733475Y-128446632D01*
X58850000Y-128272240D01*
X58966525Y-128446632D01*
X59173368Y-128653475D01*
X59416589Y-128815990D01*
X59686842Y-128927932D01*
X59973740Y-128985000D01*
X60266260Y-128985000D01*
X60553158Y-128927932D01*
X60823411Y-128815990D01*
X61066632Y-128653475D01*
X61273475Y-128446632D01*
X61390000Y-128272240D01*
X61506525Y-128446632D01*
X61713368Y-128653475D01*
X61956589Y-128815990D01*
X62226842Y-128927932D01*
X62513740Y-128985000D01*
X62806260Y-128985000D01*
X63093158Y-128927932D01*
X63363411Y-128815990D01*
X63606632Y-128653475D01*
X63813475Y-128446632D01*
X63930000Y-128272240D01*
X64046525Y-128446632D01*
X64253368Y-128653475D01*
X64496589Y-128815990D01*
X64766842Y-128927932D01*
X65053740Y-128985000D01*
X65346260Y-128985000D01*
X65633158Y-128927932D01*
X65903411Y-128815990D01*
X66146632Y-128653475D01*
X66353475Y-128446632D01*
X66470000Y-128272240D01*
X66586525Y-128446632D01*
X66793368Y-128653475D01*
X67036589Y-128815990D01*
X67306842Y-128927932D01*
X67593740Y-128985000D01*
X67886260Y-128985000D01*
X68173158Y-128927932D01*
X68443411Y-128815990D01*
X68686632Y-128653475D01*
X68893475Y-128446632D01*
X69010000Y-128272240D01*
X69126525Y-128446632D01*
X69333368Y-128653475D01*
X69576589Y-128815990D01*
X69846842Y-128927932D01*
X70133740Y-128985000D01*
X70426260Y-128985000D01*
X70713158Y-128927932D01*
X70983411Y-128815990D01*
X71226632Y-128653475D01*
X71433475Y-128446632D01*
X71550000Y-128272240D01*
X71666525Y-128446632D01*
X71873368Y-128653475D01*
X72116589Y-128815990D01*
X72386842Y-128927932D01*
X72673740Y-128985000D01*
X72966260Y-128985000D01*
X73253158Y-128927932D01*
X73523411Y-128815990D01*
X73766632Y-128653475D01*
X73973475Y-128446632D01*
X74090000Y-128272240D01*
X74206525Y-128446632D01*
X74413368Y-128653475D01*
X74656589Y-128815990D01*
X74926842Y-128927932D01*
X75213740Y-128985000D01*
X75506260Y-128985000D01*
X75793158Y-128927932D01*
X76063411Y-128815990D01*
X76306632Y-128653475D01*
X76513475Y-128446632D01*
X76630000Y-128272240D01*
X76746525Y-128446632D01*
X76953368Y-128653475D01*
X77196589Y-128815990D01*
X77466842Y-128927932D01*
X77753740Y-128985000D01*
X78046260Y-128985000D01*
X78333158Y-128927932D01*
X78603411Y-128815990D01*
X78846632Y-128653475D01*
X79053475Y-128446632D01*
X79170000Y-128272240D01*
X79286525Y-128446632D01*
X79493368Y-128653475D01*
X79736589Y-128815990D01*
X80006842Y-128927932D01*
X80293740Y-128985000D01*
X80586260Y-128985000D01*
X80873158Y-128927932D01*
X81143411Y-128815990D01*
X81386632Y-128653475D01*
X81593475Y-128446632D01*
X81710000Y-128272240D01*
X81826525Y-128446632D01*
X82033368Y-128653475D01*
X82276589Y-128815990D01*
X82546842Y-128927932D01*
X82833740Y-128985000D01*
X83126260Y-128985000D01*
X83413158Y-128927932D01*
X83683411Y-128815990D01*
X83926632Y-128653475D01*
X84133475Y-128446632D01*
X84250000Y-128272240D01*
X84366525Y-128446632D01*
X84573368Y-128653475D01*
X84816589Y-128815990D01*
X85086842Y-128927932D01*
X85373740Y-128985000D01*
X85666260Y-128985000D01*
X85953158Y-128927932D01*
X86223411Y-128815990D01*
X86466632Y-128653475D01*
X86673475Y-128446632D01*
X86790000Y-128272240D01*
X86906525Y-128446632D01*
X87113368Y-128653475D01*
X87356589Y-128815990D01*
X87626842Y-128927932D01*
X87913740Y-128985000D01*
X88206260Y-128985000D01*
X88493158Y-128927932D01*
X88763411Y-128815990D01*
X89006632Y-128653475D01*
X89213475Y-128446632D01*
X89330000Y-128272240D01*
X89446525Y-128446632D01*
X89653368Y-128653475D01*
X89896589Y-128815990D01*
X90166842Y-128927932D01*
X90453740Y-128985000D01*
X90746260Y-128985000D01*
X91033158Y-128927932D01*
X91303411Y-128815990D01*
X91546632Y-128653475D01*
X91753475Y-128446632D01*
X91870000Y-128272240D01*
X91986525Y-128446632D01*
X92193368Y-128653475D01*
X92436589Y-128815990D01*
X92706842Y-128927932D01*
X92993740Y-128985000D01*
X93286260Y-128985000D01*
X93573158Y-128927932D01*
X93843411Y-128815990D01*
X94086632Y-128653475D01*
X94293475Y-128446632D01*
X94410000Y-128272240D01*
X94526525Y-128446632D01*
X94733368Y-128653475D01*
X94976589Y-128815990D01*
X95246842Y-128927932D01*
X95533740Y-128985000D01*
X95826260Y-128985000D01*
X96113158Y-128927932D01*
X96383411Y-128815990D01*
X96626632Y-128653475D01*
X96833475Y-128446632D01*
X96950000Y-128272240D01*
X97066525Y-128446632D01*
X97273368Y-128653475D01*
X97516589Y-128815990D01*
X97786842Y-128927932D01*
X98073740Y-128985000D01*
X98366260Y-128985000D01*
X98653158Y-128927932D01*
X98923411Y-128815990D01*
X99166632Y-128653475D01*
X99373475Y-128446632D01*
X99490000Y-128272240D01*
X99606525Y-128446632D01*
X99813368Y-128653475D01*
X100056589Y-128815990D01*
X100326842Y-128927932D01*
X100613740Y-128985000D01*
X100906260Y-128985000D01*
X101193158Y-128927932D01*
X101463411Y-128815990D01*
X101706632Y-128653475D01*
X101913475Y-128446632D01*
X102030000Y-128272240D01*
X102146525Y-128446632D01*
X102353368Y-128653475D01*
X102596589Y-128815990D01*
X102866842Y-128927932D01*
X103153740Y-128985000D01*
X103446260Y-128985000D01*
X103733158Y-128927932D01*
X104003411Y-128815990D01*
X104246632Y-128653475D01*
X104453475Y-128446632D01*
X104570000Y-128272240D01*
X104686525Y-128446632D01*
X104893368Y-128653475D01*
X105136589Y-128815990D01*
X105406842Y-128927932D01*
X105693740Y-128985000D01*
X105986260Y-128985000D01*
X106273158Y-128927932D01*
X106543411Y-128815990D01*
X106786632Y-128653475D01*
X106993475Y-128446632D01*
X107115195Y-128264466D01*
X107184822Y-128381355D01*
X107379731Y-128597588D01*
X107613080Y-128771641D01*
X107875901Y-128896825D01*
X108023110Y-128941476D01*
X108253000Y-128820155D01*
X108253000Y-127627000D01*
X108507000Y-127627000D01*
X108507000Y-128820155D01*
X108736890Y-128941476D01*
X108884099Y-128896825D01*
X109146920Y-128771641D01*
X109380269Y-128597588D01*
X109575178Y-128381355D01*
X109724157Y-128131252D01*
X109821481Y-127856891D01*
X109700814Y-127627000D01*
X108507000Y-127627000D01*
X108253000Y-127627000D01*
X108233000Y-127627000D01*
X108233000Y-127373000D01*
X108253000Y-127373000D01*
X108253000Y-126179845D01*
X108507000Y-126179845D01*
X108507000Y-127373000D01*
X109700814Y-127373000D01*
X109821481Y-127143109D01*
X109724157Y-126868748D01*
X109575178Y-126618645D01*
X109380269Y-126402412D01*
X109146920Y-126228359D01*
X108884099Y-126103175D01*
X108736890Y-126058524D01*
X108507000Y-126179845D01*
X108253000Y-126179845D01*
X108023110Y-126058524D01*
X107875901Y-126103175D01*
X107613080Y-126228359D01*
X107379731Y-126402412D01*
X107184822Y-126618645D01*
X107115195Y-126735534D01*
X106993475Y-126553368D01*
X106786632Y-126346525D01*
X106543411Y-126184010D01*
X106273158Y-126072068D01*
X105986260Y-126015000D01*
X105693740Y-126015000D01*
X105406842Y-126072068D01*
X105136589Y-126184010D01*
X104893368Y-126346525D01*
X104686525Y-126553368D01*
X104570000Y-126727760D01*
X104453475Y-126553368D01*
X104246632Y-126346525D01*
X104060000Y-126221822D01*
X104060000Y-119744321D01*
X104063676Y-119706998D01*
X104060000Y-119669675D01*
X104060000Y-119669665D01*
X104049003Y-119558012D01*
X104005546Y-119414751D01*
X103934974Y-119282722D01*
X103840001Y-119166997D01*
X103811003Y-119143199D01*
X103758527Y-119090723D01*
X103773000Y-119076250D01*
X103773000Y-118127000D01*
X104027000Y-118127000D01*
X104027000Y-119076250D01*
X104185750Y-119235000D01*
X104775000Y-119238072D01*
X104899482Y-119225812D01*
X105019180Y-119189502D01*
X105129494Y-119130537D01*
X105226185Y-119051185D01*
X105305537Y-118954494D01*
X105364502Y-118844180D01*
X105400812Y-118724482D01*
X105413072Y-118600000D01*
X105410000Y-118285750D01*
X105251250Y-118127000D01*
X104027000Y-118127000D01*
X103773000Y-118127000D01*
X103753000Y-118127000D01*
X103753000Y-117873000D01*
X103773000Y-117873000D01*
X103773000Y-117853000D01*
X104027000Y-117853000D01*
X104027000Y-117873000D01*
X105251250Y-117873000D01*
X105410000Y-117714250D01*
X105413072Y-117400000D01*
X105400812Y-117275518D01*
X105364502Y-117155820D01*
X105305537Y-117045506D01*
X105226185Y-116948815D01*
X105129494Y-116869463D01*
X105080564Y-116843309D01*
X105206833Y-116689449D01*
X105321511Y-116474901D01*
X105392130Y-116242102D01*
X105415975Y-116000000D01*
X105392130Y-115757898D01*
X105321511Y-115525099D01*
X105206833Y-115310551D01*
X105052502Y-115122498D01*
X104903238Y-115000000D01*
X105052502Y-114877502D01*
X105206833Y-114689449D01*
X105321511Y-114474901D01*
X105392130Y-114242102D01*
X105415975Y-114000000D01*
X105392130Y-113757898D01*
X105321511Y-113525099D01*
X105206833Y-113310551D01*
X105052502Y-113122498D01*
X104903238Y-113000000D01*
X105052502Y-112877502D01*
X105206833Y-112689449D01*
X105321511Y-112474901D01*
X105392130Y-112242102D01*
X105415975Y-112000000D01*
X105392130Y-111757898D01*
X105321511Y-111525099D01*
X105206833Y-111310551D01*
X105052502Y-111122498D01*
X104864449Y-110968167D01*
X104649901Y-110853489D01*
X104417102Y-110782870D01*
X104235665Y-110765000D01*
X103564335Y-110765000D01*
X103382898Y-110782870D01*
X103150099Y-110853489D01*
X102935551Y-110968167D01*
X102747498Y-111122498D01*
X102593167Y-111310551D01*
X102478489Y-111525099D01*
X102407870Y-111757898D01*
X102384025Y-112000000D01*
X102407870Y-112242102D01*
X102478489Y-112474901D01*
X102593167Y-112689449D01*
X102747498Y-112877502D01*
X102896762Y-113000000D01*
X102747498Y-113122498D01*
X102593167Y-113310551D01*
X102478489Y-113525099D01*
X102407870Y-113757898D01*
X102384025Y-114000000D01*
X102407870Y-114242102D01*
X102478489Y-114474901D01*
X102593167Y-114689449D01*
X102747498Y-114877502D01*
X102896762Y-115000000D01*
X102747498Y-115122498D01*
X102593167Y-115310551D01*
X102478489Y-115525099D01*
X102407870Y-115757898D01*
X102384025Y-116000000D01*
X102407870Y-116242102D01*
X102478489Y-116474901D01*
X102593167Y-116689449D01*
X102719436Y-116843309D01*
X102670506Y-116869463D01*
X102573815Y-116948815D01*
X102494463Y-117045506D01*
X102435498Y-117155820D01*
X102399188Y-117275518D01*
X102386928Y-117400000D01*
X102390000Y-117714250D01*
X102548748Y-117872998D01*
X102540802Y-117872998D01*
X101863225Y-117195422D01*
X101860000Y-117162675D01*
X101860000Y-117162668D01*
X101849003Y-117051015D01*
X101843185Y-117031833D01*
X101805546Y-116907753D01*
X101734974Y-116775724D01*
X101708382Y-116743322D01*
X101640001Y-116659999D01*
X101635000Y-116655895D01*
X101635000Y-116598061D01*
X101595226Y-116398102D01*
X101517205Y-116209744D01*
X101403937Y-116040226D01*
X101259774Y-115896063D01*
X101090256Y-115782795D01*
X100901898Y-115704774D01*
X100701939Y-115665000D01*
X100498061Y-115665000D01*
X100298102Y-115704774D01*
X100109744Y-115782795D01*
X99940226Y-115896063D01*
X99796063Y-116040226D01*
X99682795Y-116209744D01*
X99604774Y-116398102D01*
X99565000Y-116598061D01*
X99565000Y-116801939D01*
X99604774Y-117001898D01*
X99682795Y-117190256D01*
X99796063Y-117359774D01*
X99940226Y-117503937D01*
X99995452Y-117540837D01*
X99956063Y-117580226D01*
X99842795Y-117749744D01*
X99764774Y-117938102D01*
X99725000Y-118138061D01*
X99725000Y-118341939D01*
X99764774Y-118541898D01*
X99842795Y-118730256D01*
X99956063Y-118899774D01*
X100000000Y-118943711D01*
X100000001Y-126221821D01*
X99813368Y-126346525D01*
X99606525Y-126553368D01*
X99490000Y-126727760D01*
X99373475Y-126553368D01*
X99166632Y-126346525D01*
X98923411Y-126184010D01*
X98653158Y-126072068D01*
X98366260Y-126015000D01*
X98073740Y-126015000D01*
X97786842Y-126072068D01*
X97516589Y-126184010D01*
X97273368Y-126346525D01*
X97066525Y-126553368D01*
X96950000Y-126727760D01*
X96833475Y-126553368D01*
X96626632Y-126346525D01*
X96383411Y-126184010D01*
X96113158Y-126072068D01*
X95826260Y-126015000D01*
X95533740Y-126015000D01*
X95246842Y-126072068D01*
X94976589Y-126184010D01*
X94733368Y-126346525D01*
X94526525Y-126553368D01*
X94410000Y-126727760D01*
X94293475Y-126553368D01*
X94086632Y-126346525D01*
X93843411Y-126184010D01*
X93573158Y-126072068D01*
X93286260Y-126015000D01*
X92993740Y-126015000D01*
X92706842Y-126072068D01*
X92436589Y-126184010D01*
X92193368Y-126346525D01*
X91986525Y-126553368D01*
X91870000Y-126727760D01*
X91753475Y-126553368D01*
X91546632Y-126346525D01*
X91303411Y-126184010D01*
X91033158Y-126072068D01*
X90746260Y-126015000D01*
X90453740Y-126015000D01*
X90166842Y-126072068D01*
X89896589Y-126184010D01*
X89653368Y-126346525D01*
X89446525Y-126553368D01*
X89330000Y-126727760D01*
X89213475Y-126553368D01*
X89006632Y-126346525D01*
X88763411Y-126184010D01*
X88493158Y-126072068D01*
X88206260Y-126015000D01*
X87913740Y-126015000D01*
X87626842Y-126072068D01*
X87356589Y-126184010D01*
X87113368Y-126346525D01*
X86906525Y-126553368D01*
X86790000Y-126727760D01*
X86673475Y-126553368D01*
X86466632Y-126346525D01*
X86223411Y-126184010D01*
X85953158Y-126072068D01*
X85666260Y-126015000D01*
X85373740Y-126015000D01*
X85086842Y-126072068D01*
X84816589Y-126184010D01*
X84573368Y-126346525D01*
X84366525Y-126553368D01*
X84250000Y-126727760D01*
X84133475Y-126553368D01*
X83926632Y-126346525D01*
X83683411Y-126184010D01*
X83413158Y-126072068D01*
X83126260Y-126015000D01*
X82833740Y-126015000D01*
X82546842Y-126072068D01*
X82276589Y-126184010D01*
X82033368Y-126346525D01*
X81826525Y-126553368D01*
X81710000Y-126727760D01*
X81593475Y-126553368D01*
X81386632Y-126346525D01*
X81143411Y-126184010D01*
X80873158Y-126072068D01*
X80586260Y-126015000D01*
X80293740Y-126015000D01*
X80006842Y-126072068D01*
X79736589Y-126184010D01*
X79493368Y-126346525D01*
X79286525Y-126553368D01*
X79170000Y-126727760D01*
X79053475Y-126553368D01*
X78846632Y-126346525D01*
X78603411Y-126184010D01*
X78333158Y-126072068D01*
X78046260Y-126015000D01*
X77753740Y-126015000D01*
X77466842Y-126072068D01*
X77196589Y-126184010D01*
X76953368Y-126346525D01*
X76746525Y-126553368D01*
X76630000Y-126727760D01*
X76513475Y-126553368D01*
X76306632Y-126346525D01*
X76063411Y-126184010D01*
X75793158Y-126072068D01*
X75506260Y-126015000D01*
X75213740Y-126015000D01*
X74926842Y-126072068D01*
X74656589Y-126184010D01*
X74413368Y-126346525D01*
X74206525Y-126553368D01*
X74090000Y-126727760D01*
X73973475Y-126553368D01*
X73766632Y-126346525D01*
X73523411Y-126184010D01*
X73253158Y-126072068D01*
X72966260Y-126015000D01*
X72673740Y-126015000D01*
X72386842Y-126072068D01*
X72116589Y-126184010D01*
X71873368Y-126346525D01*
X71666525Y-126553368D01*
X71550000Y-126727760D01*
X71433475Y-126553368D01*
X71226632Y-126346525D01*
X70983411Y-126184010D01*
X70713158Y-126072068D01*
X70426260Y-126015000D01*
X70133740Y-126015000D01*
X69846842Y-126072068D01*
X69576589Y-126184010D01*
X69333368Y-126346525D01*
X69126525Y-126553368D01*
X69010000Y-126727760D01*
X68893475Y-126553368D01*
X68686632Y-126346525D01*
X68443411Y-126184010D01*
X68173158Y-126072068D01*
X67886260Y-126015000D01*
X67593740Y-126015000D01*
X67306842Y-126072068D01*
X67036589Y-126184010D01*
X66793368Y-126346525D01*
X66586525Y-126553368D01*
X66470000Y-126727760D01*
X66353475Y-126553368D01*
X66146632Y-126346525D01*
X65903411Y-126184010D01*
X65633158Y-126072068D01*
X65346260Y-126015000D01*
X65053740Y-126015000D01*
X64766842Y-126072068D01*
X64496589Y-126184010D01*
X64253368Y-126346525D01*
X64046525Y-126553368D01*
X63930000Y-126727760D01*
X63813475Y-126553368D01*
X63606632Y-126346525D01*
X63363411Y-126184010D01*
X63093158Y-126072068D01*
X62806260Y-126015000D01*
X62513740Y-126015000D01*
X62226842Y-126072068D01*
X61956589Y-126184010D01*
X61713368Y-126346525D01*
X61506525Y-126553368D01*
X61390000Y-126727760D01*
X61273475Y-126553368D01*
X61066632Y-126346525D01*
X60823411Y-126184010D01*
X60553158Y-126072068D01*
X60266260Y-126015000D01*
X59973740Y-126015000D01*
X59686842Y-126072068D01*
X59416589Y-126184010D01*
X59173368Y-126346525D01*
X58966525Y-126553368D01*
X58850000Y-126727760D01*
X58733475Y-126553368D01*
X58526632Y-126346525D01*
X58283411Y-126184010D01*
X58013158Y-126072068D01*
X57726260Y-126015000D01*
X57433740Y-126015000D01*
X57146842Y-126072068D01*
X56876589Y-126184010D01*
X56633368Y-126346525D01*
X56426525Y-126553368D01*
X56310000Y-126727760D01*
X56193475Y-126553368D01*
X55986632Y-126346525D01*
X55743411Y-126184010D01*
X55473158Y-126072068D01*
X55186260Y-126015000D01*
X54893740Y-126015000D01*
X54606842Y-126072068D01*
X54336589Y-126184010D01*
X54093368Y-126346525D01*
X53961513Y-126478380D01*
X53939502Y-126405820D01*
X53880537Y-126295506D01*
X53801185Y-126198815D01*
X53704494Y-126119463D01*
X53594180Y-126060498D01*
X53474482Y-126024188D01*
X53350000Y-126011928D01*
X52785750Y-126015000D01*
X52627000Y-126173750D01*
X52373000Y-126173750D01*
X52214250Y-126015000D01*
X51650000Y-126011928D01*
X51525518Y-126024188D01*
X51405820Y-126060498D01*
X51295506Y-126119463D01*
X51198815Y-126198815D01*
X51119463Y-126295506D01*
X51060498Y-126405820D01*
X51024188Y-126525518D01*
X51011928Y-126650000D01*
X50685000Y-126650000D01*
X50685000Y-114600000D01*
X55984025Y-114600000D01*
X56007870Y-114842102D01*
X56078489Y-115074901D01*
X56193167Y-115289449D01*
X56347498Y-115477502D01*
X56496762Y-115600000D01*
X56347498Y-115722498D01*
X56193167Y-115910551D01*
X56078489Y-116125099D01*
X56007870Y-116357898D01*
X55984025Y-116600000D01*
X56007870Y-116842102D01*
X56078489Y-117074901D01*
X56193167Y-117289449D01*
X56347498Y-117477502D01*
X56496762Y-117600000D01*
X56347498Y-117722498D01*
X56193167Y-117910551D01*
X56078489Y-118125099D01*
X56007870Y-118357898D01*
X55984025Y-118600000D01*
X56007870Y-118842102D01*
X56078489Y-119074901D01*
X56193167Y-119289449D01*
X56347498Y-119477502D01*
X56496762Y-119600000D01*
X56347498Y-119722498D01*
X56193167Y-119910551D01*
X56078489Y-120125099D01*
X56007870Y-120357898D01*
X55984025Y-120600000D01*
X56007870Y-120842102D01*
X56078489Y-121074901D01*
X56193167Y-121289449D01*
X56347498Y-121477502D01*
X56535551Y-121631833D01*
X56750099Y-121746511D01*
X56982898Y-121817130D01*
X57164335Y-121835000D01*
X57835665Y-121835000D01*
X58017102Y-121817130D01*
X58249901Y-121746511D01*
X58464449Y-121631833D01*
X58652502Y-121477502D01*
X58806833Y-121289449D01*
X58921511Y-121074901D01*
X58992130Y-120842102D01*
X59015975Y-120600000D01*
X58992130Y-120357898D01*
X58921511Y-120125099D01*
X58806833Y-119910551D01*
X58652502Y-119722498D01*
X58503238Y-119600000D01*
X58652502Y-119477502D01*
X58806833Y-119289449D01*
X58921511Y-119074901D01*
X58992130Y-118842102D01*
X59015975Y-118600000D01*
X58992130Y-118357898D01*
X58921511Y-118125099D01*
X58806833Y-117910551D01*
X58652502Y-117722498D01*
X58503238Y-117600000D01*
X58652502Y-117477502D01*
X58806833Y-117289449D01*
X58921511Y-117074901D01*
X58992130Y-116842102D01*
X59015975Y-116600000D01*
X58992130Y-116357898D01*
X58921511Y-116125099D01*
X58806833Y-115910551D01*
X58652502Y-115722498D01*
X58503238Y-115600000D01*
X58652502Y-115477502D01*
X58806833Y-115289449D01*
X58921511Y-115074901D01*
X58992130Y-114842102D01*
X59015975Y-114600000D01*
X58992130Y-114357898D01*
X58921511Y-114125099D01*
X58806833Y-113910551D01*
X58652502Y-113722498D01*
X58502652Y-113599519D01*
X58566725Y-113556307D01*
X58738078Y-113383474D01*
X58872421Y-113180533D01*
X58964591Y-112955282D01*
X58968462Y-112917609D01*
X58843731Y-112727000D01*
X57627000Y-112727000D01*
X57627000Y-112747000D01*
X57373000Y-112747000D01*
X57373000Y-112727000D01*
X56156269Y-112727000D01*
X56031538Y-112917609D01*
X56035409Y-112955282D01*
X56127579Y-113180533D01*
X56261922Y-113383474D01*
X56433275Y-113556307D01*
X56497348Y-113599519D01*
X56347498Y-113722498D01*
X56193167Y-113910551D01*
X56078489Y-114125099D01*
X56007870Y-114357898D01*
X55984025Y-114600000D01*
X50685000Y-114600000D01*
X50685000Y-110600000D01*
X55984025Y-110600000D01*
X56007870Y-110842102D01*
X56078489Y-111074901D01*
X56193167Y-111289449D01*
X56347498Y-111477502D01*
X56497348Y-111600481D01*
X56433275Y-111643693D01*
X56261922Y-111816526D01*
X56127579Y-112019467D01*
X56035409Y-112244718D01*
X56031538Y-112282391D01*
X56156269Y-112473000D01*
X57373000Y-112473000D01*
X57373000Y-112453000D01*
X57627000Y-112453000D01*
X57627000Y-112473000D01*
X58843731Y-112473000D01*
X58968462Y-112282391D01*
X58964591Y-112244718D01*
X58872421Y-112019467D01*
X58738078Y-111816526D01*
X58566725Y-111643693D01*
X58502652Y-111600481D01*
X58652502Y-111477502D01*
X58806833Y-111289449D01*
X58921511Y-111074901D01*
X58992130Y-110842102D01*
X59015975Y-110600000D01*
X58992130Y-110357898D01*
X58921511Y-110125099D01*
X58806833Y-109910551D01*
X58652502Y-109722498D01*
X58613889Y-109690809D01*
X58618387Y-109688405D01*
X58752962Y-109577962D01*
X58863405Y-109443387D01*
X58945472Y-109289851D01*
X58996008Y-109123255D01*
X59013072Y-108950001D01*
X59013072Y-108249999D01*
X58996008Y-108076745D01*
X58945472Y-107910149D01*
X58863405Y-107756613D01*
X58752962Y-107622038D01*
X58618387Y-107511595D01*
X58464851Y-107429528D01*
X58298255Y-107378992D01*
X58125001Y-107361928D01*
X56874999Y-107361928D01*
X56701745Y-107378992D01*
X56535149Y-107429528D01*
X56381613Y-107511595D01*
X56247038Y-107622038D01*
X56136595Y-107756613D01*
X56054528Y-107910149D01*
X56003992Y-108076745D01*
X55986928Y-108249999D01*
X55986928Y-108950001D01*
X56003992Y-109123255D01*
X56054528Y-109289851D01*
X56136595Y-109443387D01*
X56247038Y-109577962D01*
X56381613Y-109688405D01*
X56386111Y-109690809D01*
X56347498Y-109722498D01*
X56193167Y-109910551D01*
X56078489Y-110125099D01*
X56007870Y-110357898D01*
X55984025Y-110600000D01*
X50685000Y-110600000D01*
X50685000Y-102650000D01*
X51071928Y-102650000D01*
X51084188Y-102774482D01*
X51120498Y-102894180D01*
X51179463Y-103004494D01*
X51258815Y-103101185D01*
X51355506Y-103180537D01*
X51465820Y-103239502D01*
X51585518Y-103275812D01*
X51710000Y-103288072D01*
X52274250Y-103285000D01*
X52433000Y-103126250D01*
X52433000Y-101927000D01*
X51233750Y-101927000D01*
X51075000Y-102085750D01*
X51071928Y-102650000D01*
X50685000Y-102650000D01*
X50685000Y-100950000D01*
X51071928Y-100950000D01*
X51075000Y-101514250D01*
X51233750Y-101673000D01*
X52433000Y-101673000D01*
X52433000Y-100473750D01*
X52687000Y-100473750D01*
X52687000Y-101673000D01*
X52707000Y-101673000D01*
X52707000Y-101927000D01*
X52687000Y-101927000D01*
X52687000Y-103126250D01*
X52845750Y-103285000D01*
X53410000Y-103288072D01*
X53534482Y-103275812D01*
X53654180Y-103239502D01*
X53764494Y-103180537D01*
X53861185Y-103101185D01*
X53940537Y-103004494D01*
X53999502Y-102894180D01*
X54021513Y-102821620D01*
X54153368Y-102953475D01*
X54396589Y-103115990D01*
X54666842Y-103227932D01*
X54953740Y-103285000D01*
X55246260Y-103285000D01*
X55533158Y-103227932D01*
X55803411Y-103115990D01*
X56046632Y-102953475D01*
X56253475Y-102746632D01*
X56370000Y-102572240D01*
X56486525Y-102746632D01*
X56693368Y-102953475D01*
X56936589Y-103115990D01*
X57206842Y-103227932D01*
X57493740Y-103285000D01*
X57786260Y-103285000D01*
X58073158Y-103227932D01*
X58343411Y-103115990D01*
X58586632Y-102953475D01*
X58793475Y-102746632D01*
X58910000Y-102572240D01*
X59026525Y-102746632D01*
X59233368Y-102953475D01*
X59476589Y-103115990D01*
X59746842Y-103227932D01*
X60033740Y-103285000D01*
X60326260Y-103285000D01*
X60613158Y-103227932D01*
X60883411Y-103115990D01*
X61126632Y-102953475D01*
X61333475Y-102746632D01*
X61450000Y-102572240D01*
X61566525Y-102746632D01*
X61773368Y-102953475D01*
X62016589Y-103115990D01*
X62286842Y-103227932D01*
X62573740Y-103285000D01*
X62866260Y-103285000D01*
X63153158Y-103227932D01*
X63423411Y-103115990D01*
X63666632Y-102953475D01*
X63873475Y-102746632D01*
X63990000Y-102572240D01*
X64106525Y-102746632D01*
X64313368Y-102953475D01*
X64556589Y-103115990D01*
X64826842Y-103227932D01*
X65113740Y-103285000D01*
X65406260Y-103285000D01*
X65693158Y-103227932D01*
X65963411Y-103115990D01*
X66206632Y-102953475D01*
X66413475Y-102746632D01*
X66530000Y-102572240D01*
X66646525Y-102746632D01*
X66853368Y-102953475D01*
X67096589Y-103115990D01*
X67366842Y-103227932D01*
X67653740Y-103285000D01*
X67946260Y-103285000D01*
X68233158Y-103227932D01*
X68503411Y-103115990D01*
X68746632Y-102953475D01*
X68953475Y-102746632D01*
X69070000Y-102572240D01*
X69186525Y-102746632D01*
X69393368Y-102953475D01*
X69636589Y-103115990D01*
X69906842Y-103227932D01*
X70193740Y-103285000D01*
X70486260Y-103285000D01*
X70773158Y-103227932D01*
X71043411Y-103115990D01*
X71286632Y-102953475D01*
X71493475Y-102746632D01*
X71610000Y-102572240D01*
X71726525Y-102746632D01*
X71933368Y-102953475D01*
X72176589Y-103115990D01*
X72446842Y-103227932D01*
X72733740Y-103285000D01*
X73026260Y-103285000D01*
X73313158Y-103227932D01*
X73583411Y-103115990D01*
X73826632Y-102953475D01*
X74033475Y-102746632D01*
X74150000Y-102572240D01*
X74266525Y-102746632D01*
X74473368Y-102953475D01*
X74716589Y-103115990D01*
X74986842Y-103227932D01*
X75273740Y-103285000D01*
X75566260Y-103285000D01*
X75853158Y-103227932D01*
X76123411Y-103115990D01*
X76366632Y-102953475D01*
X76573475Y-102746632D01*
X76690000Y-102572240D01*
X76806525Y-102746632D01*
X77013368Y-102953475D01*
X77256589Y-103115990D01*
X77526842Y-103227932D01*
X77813740Y-103285000D01*
X78106260Y-103285000D01*
X78393158Y-103227932D01*
X78663411Y-103115990D01*
X78906632Y-102953475D01*
X79113475Y-102746632D01*
X79230000Y-102572240D01*
X79346525Y-102746632D01*
X79553368Y-102953475D01*
X79796589Y-103115990D01*
X80066842Y-103227932D01*
X80353740Y-103285000D01*
X80646260Y-103285000D01*
X80933158Y-103227932D01*
X81203411Y-103115990D01*
X81446632Y-102953475D01*
X81653475Y-102746632D01*
X81770000Y-102572240D01*
X81886525Y-102746632D01*
X82093368Y-102953475D01*
X82336589Y-103115990D01*
X82606842Y-103227932D01*
X82893740Y-103285000D01*
X83186260Y-103285000D01*
X83473158Y-103227932D01*
X83743411Y-103115990D01*
X83986632Y-102953475D01*
X84193475Y-102746632D01*
X84310000Y-102572240D01*
X84426525Y-102746632D01*
X84633368Y-102953475D01*
X84876589Y-103115990D01*
X85146842Y-103227932D01*
X85433740Y-103285000D01*
X85726260Y-103285000D01*
X86013158Y-103227932D01*
X86283411Y-103115990D01*
X86526632Y-102953475D01*
X86733475Y-102746632D01*
X86850000Y-102572240D01*
X86966525Y-102746632D01*
X87173368Y-102953475D01*
X87416589Y-103115990D01*
X87686842Y-103227932D01*
X87973740Y-103285000D01*
X88266260Y-103285000D01*
X88553158Y-103227932D01*
X88823411Y-103115990D01*
X89066632Y-102953475D01*
X89273475Y-102746632D01*
X89390000Y-102572240D01*
X89506525Y-102746632D01*
X89713368Y-102953475D01*
X89956589Y-103115990D01*
X90226842Y-103227932D01*
X90513740Y-103285000D01*
X90806260Y-103285000D01*
X91093158Y-103227932D01*
X91363411Y-103115990D01*
X91606632Y-102953475D01*
X91813475Y-102746632D01*
X91930000Y-102572240D01*
X92046525Y-102746632D01*
X92253368Y-102953475D01*
X92496589Y-103115990D01*
X92766842Y-103227932D01*
X93053740Y-103285000D01*
X93346260Y-103285000D01*
X93633158Y-103227932D01*
X93903411Y-103115990D01*
X94146632Y-102953475D01*
X94353475Y-102746632D01*
X94470000Y-102572240D01*
X94586525Y-102746632D01*
X94793368Y-102953475D01*
X95036589Y-103115990D01*
X95306842Y-103227932D01*
X95593740Y-103285000D01*
X95886260Y-103285000D01*
X96173158Y-103227932D01*
X96443411Y-103115990D01*
X96686632Y-102953475D01*
X96893475Y-102746632D01*
X97010000Y-102572240D01*
X97126525Y-102746632D01*
X97333368Y-102953475D01*
X97576589Y-103115990D01*
X97846842Y-103227932D01*
X98133740Y-103285000D01*
X98426260Y-103285000D01*
X98713158Y-103227932D01*
X98983411Y-103115990D01*
X99226632Y-102953475D01*
X99433475Y-102746632D01*
X99550000Y-102572240D01*
X99666525Y-102746632D01*
X99873368Y-102953475D01*
X100116589Y-103115990D01*
X100386842Y-103227932D01*
X100673740Y-103285000D01*
X100966260Y-103285000D01*
X101253158Y-103227932D01*
X101523411Y-103115990D01*
X101766632Y-102953475D01*
X101973475Y-102746632D01*
X102090000Y-102572240D01*
X102206525Y-102746632D01*
X102413368Y-102953475D01*
X102656589Y-103115990D01*
X102926842Y-103227932D01*
X103213740Y-103285000D01*
X103506260Y-103285000D01*
X103793158Y-103227932D01*
X104063411Y-103115990D01*
X104306632Y-102953475D01*
X104513475Y-102746632D01*
X104630000Y-102572240D01*
X104746525Y-102746632D01*
X104953368Y-102953475D01*
X105196589Y-103115990D01*
X105466842Y-103227932D01*
X105753740Y-103285000D01*
X106046260Y-103285000D01*
X106333158Y-103227932D01*
X106603411Y-103115990D01*
X106846632Y-102953475D01*
X107053475Y-102746632D01*
X107175195Y-102564466D01*
X107244822Y-102681355D01*
X107439731Y-102897588D01*
X107673080Y-103071641D01*
X107935901Y-103196825D01*
X108083110Y-103241476D01*
X108313000Y-103120155D01*
X108313000Y-101927000D01*
X108567000Y-101927000D01*
X108567000Y-103120155D01*
X108796890Y-103241476D01*
X108944099Y-103196825D01*
X109206920Y-103071641D01*
X109440269Y-102897588D01*
X109635178Y-102681355D01*
X109784157Y-102431252D01*
X109881481Y-102156891D01*
X109760814Y-101927000D01*
X108567000Y-101927000D01*
X108313000Y-101927000D01*
X108293000Y-101927000D01*
X108293000Y-101673000D01*
X108313000Y-101673000D01*
X108313000Y-100479845D01*
X108567000Y-100479845D01*
X108567000Y-101673000D01*
X109760814Y-101673000D01*
X109881481Y-101443109D01*
X109784157Y-101168748D01*
X109635178Y-100918645D01*
X109440269Y-100702412D01*
X109206920Y-100528359D01*
X108944099Y-100403175D01*
X108796890Y-100358524D01*
X108567000Y-100479845D01*
X108313000Y-100479845D01*
X108083110Y-100358524D01*
X107935901Y-100403175D01*
X107673080Y-100528359D01*
X107439731Y-100702412D01*
X107244822Y-100918645D01*
X107175195Y-101035534D01*
X107053475Y-100853368D01*
X106846632Y-100646525D01*
X106603411Y-100484010D01*
X106333158Y-100372068D01*
X106046260Y-100315000D01*
X105753740Y-100315000D01*
X105466842Y-100372068D01*
X105196589Y-100484010D01*
X104953368Y-100646525D01*
X104746525Y-100853368D01*
X104630000Y-101027760D01*
X104513475Y-100853368D01*
X104306632Y-100646525D01*
X104063411Y-100484010D01*
X103793158Y-100372068D01*
X103506260Y-100315000D01*
X103213740Y-100315000D01*
X102926842Y-100372068D01*
X102656589Y-100484010D01*
X102413368Y-100646525D01*
X102206525Y-100853368D01*
X102090000Y-101027760D01*
X101973475Y-100853368D01*
X101766632Y-100646525D01*
X101523411Y-100484010D01*
X101253158Y-100372068D01*
X100966260Y-100315000D01*
X100673740Y-100315000D01*
X100386842Y-100372068D01*
X100116589Y-100484010D01*
X99873368Y-100646525D01*
X99666525Y-100853368D01*
X99550000Y-101027760D01*
X99433475Y-100853368D01*
X99226632Y-100646525D01*
X98983411Y-100484010D01*
X98713158Y-100372068D01*
X98426260Y-100315000D01*
X98133740Y-100315000D01*
X97846842Y-100372068D01*
X97576589Y-100484010D01*
X97333368Y-100646525D01*
X97126525Y-100853368D01*
X97010000Y-101027760D01*
X96893475Y-100853368D01*
X96686632Y-100646525D01*
X96443411Y-100484010D01*
X96173158Y-100372068D01*
X95886260Y-100315000D01*
X95593740Y-100315000D01*
X95306842Y-100372068D01*
X95036589Y-100484010D01*
X94793368Y-100646525D01*
X94586525Y-100853368D01*
X94470000Y-101027760D01*
X94353475Y-100853368D01*
X94146632Y-100646525D01*
X93903411Y-100484010D01*
X93633158Y-100372068D01*
X93346260Y-100315000D01*
X93053740Y-100315000D01*
X92766842Y-100372068D01*
X92496589Y-100484010D01*
X92253368Y-100646525D01*
X92046525Y-100853368D01*
X91930000Y-101027760D01*
X91813475Y-100853368D01*
X91606632Y-100646525D01*
X91363411Y-100484010D01*
X91093158Y-100372068D01*
X90806260Y-100315000D01*
X90513740Y-100315000D01*
X90226842Y-100372068D01*
X89956589Y-100484010D01*
X89713368Y-100646525D01*
X89506525Y-100853368D01*
X89390000Y-101027760D01*
X89273475Y-100853368D01*
X89066632Y-100646525D01*
X88823411Y-100484010D01*
X88553158Y-100372068D01*
X88266260Y-100315000D01*
X87973740Y-100315000D01*
X87686842Y-100372068D01*
X87416589Y-100484010D01*
X87173368Y-100646525D01*
X86966525Y-100853368D01*
X86850000Y-101027760D01*
X86733475Y-100853368D01*
X86526632Y-100646525D01*
X86283411Y-100484010D01*
X86013158Y-100372068D01*
X85726260Y-100315000D01*
X85433740Y-100315000D01*
X85146842Y-100372068D01*
X84876589Y-100484010D01*
X84633368Y-100646525D01*
X84426525Y-100853368D01*
X84310000Y-101027760D01*
X84193475Y-100853368D01*
X83986632Y-100646525D01*
X83743411Y-100484010D01*
X83473158Y-100372068D01*
X83186260Y-100315000D01*
X82893740Y-100315000D01*
X82606842Y-100372068D01*
X82336589Y-100484010D01*
X82093368Y-100646525D01*
X81886525Y-100853368D01*
X81770000Y-101027760D01*
X81653475Y-100853368D01*
X81446632Y-100646525D01*
X81203411Y-100484010D01*
X80933158Y-100372068D01*
X80646260Y-100315000D01*
X80353740Y-100315000D01*
X80066842Y-100372068D01*
X79796589Y-100484010D01*
X79553368Y-100646525D01*
X79346525Y-100853368D01*
X79230000Y-101027760D01*
X79113475Y-100853368D01*
X78906632Y-100646525D01*
X78663411Y-100484010D01*
X78393158Y-100372068D01*
X78106260Y-100315000D01*
X77813740Y-100315000D01*
X77526842Y-100372068D01*
X77256589Y-100484010D01*
X77013368Y-100646525D01*
X76806525Y-100853368D01*
X76690000Y-101027760D01*
X76573475Y-100853368D01*
X76366632Y-100646525D01*
X76123411Y-100484010D01*
X75853158Y-100372068D01*
X75566260Y-100315000D01*
X75273740Y-100315000D01*
X74986842Y-100372068D01*
X74716589Y-100484010D01*
X74473368Y-100646525D01*
X74266525Y-100853368D01*
X74150000Y-101027760D01*
X74033475Y-100853368D01*
X73826632Y-100646525D01*
X73583411Y-100484010D01*
X73313158Y-100372068D01*
X73026260Y-100315000D01*
X72733740Y-100315000D01*
X72446842Y-100372068D01*
X72176589Y-100484010D01*
X71933368Y-100646525D01*
X71726525Y-100853368D01*
X71610000Y-101027760D01*
X71493475Y-100853368D01*
X71286632Y-100646525D01*
X71043411Y-100484010D01*
X70773158Y-100372068D01*
X70486260Y-100315000D01*
X70193740Y-100315000D01*
X69906842Y-100372068D01*
X69636589Y-100484010D01*
X69393368Y-100646525D01*
X69186525Y-100853368D01*
X69070000Y-101027760D01*
X68953475Y-100853368D01*
X68746632Y-100646525D01*
X68503411Y-100484010D01*
X68233158Y-100372068D01*
X67946260Y-100315000D01*
X67653740Y-100315000D01*
X67366842Y-100372068D01*
X67096589Y-100484010D01*
X66853368Y-100646525D01*
X66646525Y-100853368D01*
X66530000Y-101027760D01*
X66413475Y-100853368D01*
X66206632Y-100646525D01*
X65963411Y-100484010D01*
X65693158Y-100372068D01*
X65406260Y-100315000D01*
X65113740Y-100315000D01*
X64826842Y-100372068D01*
X64556589Y-100484010D01*
X64313368Y-100646525D01*
X64106525Y-100853368D01*
X63990000Y-101027760D01*
X63873475Y-100853368D01*
X63666632Y-100646525D01*
X63423411Y-100484010D01*
X63153158Y-100372068D01*
X62866260Y-100315000D01*
X62573740Y-100315000D01*
X62286842Y-100372068D01*
X62016589Y-100484010D01*
X61773368Y-100646525D01*
X61566525Y-100853368D01*
X61450000Y-101027760D01*
X61333475Y-100853368D01*
X61126632Y-100646525D01*
X60883411Y-100484010D01*
X60613158Y-100372068D01*
X60326260Y-100315000D01*
X60033740Y-100315000D01*
X59746842Y-100372068D01*
X59476589Y-100484010D01*
X59233368Y-100646525D01*
X59026525Y-100853368D01*
X58910000Y-101027760D01*
X58793475Y-100853368D01*
X58586632Y-100646525D01*
X58343411Y-100484010D01*
X58073158Y-100372068D01*
X57786260Y-100315000D01*
X57493740Y-100315000D01*
X57206842Y-100372068D01*
X56936589Y-100484010D01*
X56693368Y-100646525D01*
X56486525Y-100853368D01*
X56370000Y-101027760D01*
X56253475Y-100853368D01*
X56046632Y-100646525D01*
X55803411Y-100484010D01*
X55533158Y-100372068D01*
X55246260Y-100315000D01*
X54953740Y-100315000D01*
X54666842Y-100372068D01*
X54396589Y-100484010D01*
X54153368Y-100646525D01*
X54021513Y-100778380D01*
X53999502Y-100705820D01*
X53940537Y-100595506D01*
X53861185Y-100498815D01*
X53764494Y-100419463D01*
X53654180Y-100360498D01*
X53534482Y-100324188D01*
X53410000Y-100311928D01*
X52845750Y-100315000D01*
X52687000Y-100473750D01*
X52433000Y-100473750D01*
X52274250Y-100315000D01*
X51710000Y-100311928D01*
X51585518Y-100324188D01*
X51465820Y-100360498D01*
X51355506Y-100419463D01*
X51258815Y-100498815D01*
X51179463Y-100595506D01*
X51120498Y-100705820D01*
X51084188Y-100825518D01*
X51071928Y-100950000D01*
X50685000Y-100950000D01*
X50685000Y-100185000D01*
X110315001Y-100185000D01*
X110315000Y-129315000D01*
%TA.AperFunction,Conductor*%
D17*
G36*
X110315000Y-129315000D02*
G01*
X50685000Y-129315000D01*
X50685000Y-128350000D01*
X51011928Y-128350000D01*
X51024188Y-128474482D01*
X51060498Y-128594180D01*
X51119463Y-128704494D01*
X51198815Y-128801185D01*
X51295506Y-128880537D01*
X51405820Y-128939502D01*
X51525518Y-128975812D01*
X51650000Y-128988072D01*
X52214250Y-128985000D01*
X52373000Y-128826250D01*
X52373000Y-127627000D01*
X51173750Y-127627000D01*
X51015000Y-127785750D01*
X51011928Y-128350000D01*
X50685000Y-128350000D01*
X50685000Y-126650000D01*
X51011928Y-126650000D01*
X51015000Y-127214250D01*
X51173750Y-127373000D01*
X52373000Y-127373000D01*
X52373000Y-126173750D01*
X52627000Y-126173750D01*
X52627000Y-127373000D01*
X52647000Y-127373000D01*
X52647000Y-127627000D01*
X52627000Y-127627000D01*
X52627000Y-128826250D01*
X52785750Y-128985000D01*
X53350000Y-128988072D01*
X53474482Y-128975812D01*
X53594180Y-128939502D01*
X53704494Y-128880537D01*
X53801185Y-128801185D01*
X53880537Y-128704494D01*
X53939502Y-128594180D01*
X53961513Y-128521620D01*
X54093368Y-128653475D01*
X54336589Y-128815990D01*
X54606842Y-128927932D01*
X54893740Y-128985000D01*
X55186260Y-128985000D01*
X55473158Y-128927932D01*
X55743411Y-128815990D01*
X55986632Y-128653475D01*
X56193475Y-128446632D01*
X56310000Y-128272240D01*
X56426525Y-128446632D01*
X56633368Y-128653475D01*
X56876589Y-128815990D01*
X57146842Y-128927932D01*
X57433740Y-128985000D01*
X57726260Y-128985000D01*
X58013158Y-128927932D01*
X58283411Y-128815990D01*
X58526632Y-128653475D01*
X58733475Y-128446632D01*
X58850000Y-128272240D01*
X58966525Y-128446632D01*
X59173368Y-128653475D01*
X59416589Y-128815990D01*
X59686842Y-128927932D01*
X59973740Y-128985000D01*
X60266260Y-128985000D01*
X60553158Y-128927932D01*
X60823411Y-128815990D01*
X61066632Y-128653475D01*
X61273475Y-128446632D01*
X61390000Y-128272240D01*
X61506525Y-128446632D01*
X61713368Y-128653475D01*
X61956589Y-128815990D01*
X62226842Y-128927932D01*
X62513740Y-128985000D01*
X62806260Y-128985000D01*
X63093158Y-128927932D01*
X63363411Y-128815990D01*
X63606632Y-128653475D01*
X63813475Y-128446632D01*
X63930000Y-128272240D01*
X64046525Y-128446632D01*
X64253368Y-128653475D01*
X64496589Y-128815990D01*
X64766842Y-128927932D01*
X65053740Y-128985000D01*
X65346260Y-128985000D01*
X65633158Y-128927932D01*
X65903411Y-128815990D01*
X66146632Y-128653475D01*
X66353475Y-128446632D01*
X66470000Y-128272240D01*
X66586525Y-128446632D01*
X66793368Y-128653475D01*
X67036589Y-128815990D01*
X67306842Y-128927932D01*
X67593740Y-128985000D01*
X67886260Y-128985000D01*
X68173158Y-128927932D01*
X68443411Y-128815990D01*
X68686632Y-128653475D01*
X68893475Y-128446632D01*
X69010000Y-128272240D01*
X69126525Y-128446632D01*
X69333368Y-128653475D01*
X69576589Y-128815990D01*
X69846842Y-128927932D01*
X70133740Y-128985000D01*
X70426260Y-128985000D01*
X70713158Y-128927932D01*
X70983411Y-128815990D01*
X71226632Y-128653475D01*
X71433475Y-128446632D01*
X71550000Y-128272240D01*
X71666525Y-128446632D01*
X71873368Y-128653475D01*
X72116589Y-128815990D01*
X72386842Y-128927932D01*
X72673740Y-128985000D01*
X72966260Y-128985000D01*
X73253158Y-128927932D01*
X73523411Y-128815990D01*
X73766632Y-128653475D01*
X73973475Y-128446632D01*
X74090000Y-128272240D01*
X74206525Y-128446632D01*
X74413368Y-128653475D01*
X74656589Y-128815990D01*
X74926842Y-128927932D01*
X75213740Y-128985000D01*
X75506260Y-128985000D01*
X75793158Y-128927932D01*
X76063411Y-128815990D01*
X76306632Y-128653475D01*
X76513475Y-128446632D01*
X76630000Y-128272240D01*
X76746525Y-128446632D01*
X76953368Y-128653475D01*
X77196589Y-128815990D01*
X77466842Y-128927932D01*
X77753740Y-128985000D01*
X78046260Y-128985000D01*
X78333158Y-128927932D01*
X78603411Y-128815990D01*
X78846632Y-128653475D01*
X79053475Y-128446632D01*
X79170000Y-128272240D01*
X79286525Y-128446632D01*
X79493368Y-128653475D01*
X79736589Y-128815990D01*
X80006842Y-128927932D01*
X80293740Y-128985000D01*
X80586260Y-128985000D01*
X80873158Y-128927932D01*
X81143411Y-128815990D01*
X81386632Y-128653475D01*
X81593475Y-128446632D01*
X81710000Y-128272240D01*
X81826525Y-128446632D01*
X82033368Y-128653475D01*
X82276589Y-128815990D01*
X82546842Y-128927932D01*
X82833740Y-128985000D01*
X83126260Y-128985000D01*
X83413158Y-128927932D01*
X83683411Y-128815990D01*
X83926632Y-128653475D01*
X84133475Y-128446632D01*
X84250000Y-128272240D01*
X84366525Y-128446632D01*
X84573368Y-128653475D01*
X84816589Y-128815990D01*
X85086842Y-128927932D01*
X85373740Y-128985000D01*
X85666260Y-128985000D01*
X85953158Y-128927932D01*
X86223411Y-128815990D01*
X86466632Y-128653475D01*
X86673475Y-128446632D01*
X86790000Y-128272240D01*
X86906525Y-128446632D01*
X87113368Y-128653475D01*
X87356589Y-128815990D01*
X87626842Y-128927932D01*
X87913740Y-128985000D01*
X88206260Y-128985000D01*
X88493158Y-128927932D01*
X88763411Y-128815990D01*
X89006632Y-128653475D01*
X89213475Y-128446632D01*
X89330000Y-128272240D01*
X89446525Y-128446632D01*
X89653368Y-128653475D01*
X89896589Y-128815990D01*
X90166842Y-128927932D01*
X90453740Y-128985000D01*
X90746260Y-128985000D01*
X91033158Y-128927932D01*
X91303411Y-128815990D01*
X91546632Y-128653475D01*
X91753475Y-128446632D01*
X91870000Y-128272240D01*
X91986525Y-128446632D01*
X92193368Y-128653475D01*
X92436589Y-128815990D01*
X92706842Y-128927932D01*
X92993740Y-128985000D01*
X93286260Y-128985000D01*
X93573158Y-128927932D01*
X93843411Y-128815990D01*
X94086632Y-128653475D01*
X94293475Y-128446632D01*
X94410000Y-128272240D01*
X94526525Y-128446632D01*
X94733368Y-128653475D01*
X94976589Y-128815990D01*
X95246842Y-128927932D01*
X95533740Y-128985000D01*
X95826260Y-128985000D01*
X96113158Y-128927932D01*
X96383411Y-128815990D01*
X96626632Y-128653475D01*
X96833475Y-128446632D01*
X96950000Y-128272240D01*
X97066525Y-128446632D01*
X97273368Y-128653475D01*
X97516589Y-128815990D01*
X97786842Y-128927932D01*
X98073740Y-128985000D01*
X98366260Y-128985000D01*
X98653158Y-128927932D01*
X98923411Y-128815990D01*
X99166632Y-128653475D01*
X99373475Y-128446632D01*
X99490000Y-128272240D01*
X99606525Y-128446632D01*
X99813368Y-128653475D01*
X100056589Y-128815990D01*
X100326842Y-128927932D01*
X100613740Y-128985000D01*
X100906260Y-128985000D01*
X101193158Y-128927932D01*
X101463411Y-128815990D01*
X101706632Y-128653475D01*
X101913475Y-128446632D01*
X102030000Y-128272240D01*
X102146525Y-128446632D01*
X102353368Y-128653475D01*
X102596589Y-128815990D01*
X102866842Y-128927932D01*
X103153740Y-128985000D01*
X103446260Y-128985000D01*
X103733158Y-128927932D01*
X104003411Y-128815990D01*
X104246632Y-128653475D01*
X104453475Y-128446632D01*
X104570000Y-128272240D01*
X104686525Y-128446632D01*
X104893368Y-128653475D01*
X105136589Y-128815990D01*
X105406842Y-128927932D01*
X105693740Y-128985000D01*
X105986260Y-128985000D01*
X106273158Y-128927932D01*
X106543411Y-128815990D01*
X106786632Y-128653475D01*
X106993475Y-128446632D01*
X107115195Y-128264466D01*
X107184822Y-128381355D01*
X107379731Y-128597588D01*
X107613080Y-128771641D01*
X107875901Y-128896825D01*
X108023110Y-128941476D01*
X108253000Y-128820155D01*
X108253000Y-127627000D01*
X108507000Y-127627000D01*
X108507000Y-128820155D01*
X108736890Y-128941476D01*
X108884099Y-128896825D01*
X109146920Y-128771641D01*
X109380269Y-128597588D01*
X109575178Y-128381355D01*
X109724157Y-128131252D01*
X109821481Y-127856891D01*
X109700814Y-127627000D01*
X108507000Y-127627000D01*
X108253000Y-127627000D01*
X108233000Y-127627000D01*
X108233000Y-127373000D01*
X108253000Y-127373000D01*
X108253000Y-126179845D01*
X108507000Y-126179845D01*
X108507000Y-127373000D01*
X109700814Y-127373000D01*
X109821481Y-127143109D01*
X109724157Y-126868748D01*
X109575178Y-126618645D01*
X109380269Y-126402412D01*
X109146920Y-126228359D01*
X108884099Y-126103175D01*
X108736890Y-126058524D01*
X108507000Y-126179845D01*
X108253000Y-126179845D01*
X108023110Y-126058524D01*
X107875901Y-126103175D01*
X107613080Y-126228359D01*
X107379731Y-126402412D01*
X107184822Y-126618645D01*
X107115195Y-126735534D01*
X106993475Y-126553368D01*
X106786632Y-126346525D01*
X106543411Y-126184010D01*
X106273158Y-126072068D01*
X105986260Y-126015000D01*
X105693740Y-126015000D01*
X105406842Y-126072068D01*
X105136589Y-126184010D01*
X104893368Y-126346525D01*
X104686525Y-126553368D01*
X104570000Y-126727760D01*
X104453475Y-126553368D01*
X104246632Y-126346525D01*
X104060000Y-126221822D01*
X104060000Y-119744321D01*
X104063676Y-119706998D01*
X104060000Y-119669675D01*
X104060000Y-119669665D01*
X104049003Y-119558012D01*
X104005546Y-119414751D01*
X103934974Y-119282722D01*
X103840001Y-119166997D01*
X103811003Y-119143199D01*
X103758527Y-119090723D01*
X103773000Y-119076250D01*
X103773000Y-118127000D01*
X104027000Y-118127000D01*
X104027000Y-119076250D01*
X104185750Y-119235000D01*
X104775000Y-119238072D01*
X104899482Y-119225812D01*
X105019180Y-119189502D01*
X105129494Y-119130537D01*
X105226185Y-119051185D01*
X105305537Y-118954494D01*
X105364502Y-118844180D01*
X105400812Y-118724482D01*
X105413072Y-118600000D01*
X105410000Y-118285750D01*
X105251250Y-118127000D01*
X104027000Y-118127000D01*
X103773000Y-118127000D01*
X103753000Y-118127000D01*
X103753000Y-117873000D01*
X103773000Y-117873000D01*
X103773000Y-117853000D01*
X104027000Y-117853000D01*
X104027000Y-117873000D01*
X105251250Y-117873000D01*
X105410000Y-117714250D01*
X105413072Y-117400000D01*
X105400812Y-117275518D01*
X105364502Y-117155820D01*
X105305537Y-117045506D01*
X105226185Y-116948815D01*
X105129494Y-116869463D01*
X105080564Y-116843309D01*
X105206833Y-116689449D01*
X105321511Y-116474901D01*
X105392130Y-116242102D01*
X105415975Y-116000000D01*
X105392130Y-115757898D01*
X105321511Y-115525099D01*
X105206833Y-115310551D01*
X105052502Y-115122498D01*
X104903238Y-115000000D01*
X105052502Y-114877502D01*
X105206833Y-114689449D01*
X105321511Y-114474901D01*
X105392130Y-114242102D01*
X105415975Y-114000000D01*
X105392130Y-113757898D01*
X105321511Y-113525099D01*
X105206833Y-113310551D01*
X105052502Y-113122498D01*
X104903238Y-113000000D01*
X105052502Y-112877502D01*
X105206833Y-112689449D01*
X105321511Y-112474901D01*
X105392130Y-112242102D01*
X105415975Y-112000000D01*
X105392130Y-111757898D01*
X105321511Y-111525099D01*
X105206833Y-111310551D01*
X105052502Y-111122498D01*
X104864449Y-110968167D01*
X104649901Y-110853489D01*
X104417102Y-110782870D01*
X104235665Y-110765000D01*
X103564335Y-110765000D01*
X103382898Y-110782870D01*
X103150099Y-110853489D01*
X102935551Y-110968167D01*
X102747498Y-111122498D01*
X102593167Y-111310551D01*
X102478489Y-111525099D01*
X102407870Y-111757898D01*
X102384025Y-112000000D01*
X102407870Y-112242102D01*
X102478489Y-112474901D01*
X102593167Y-112689449D01*
X102747498Y-112877502D01*
X102896762Y-113000000D01*
X102747498Y-113122498D01*
X102593167Y-113310551D01*
X102478489Y-113525099D01*
X102407870Y-113757898D01*
X102384025Y-114000000D01*
X102407870Y-114242102D01*
X102478489Y-114474901D01*
X102593167Y-114689449D01*
X102747498Y-114877502D01*
X102896762Y-115000000D01*
X102747498Y-115122498D01*
X102593167Y-115310551D01*
X102478489Y-115525099D01*
X102407870Y-115757898D01*
X102384025Y-116000000D01*
X102407870Y-116242102D01*
X102478489Y-116474901D01*
X102593167Y-116689449D01*
X102719436Y-116843309D01*
X102670506Y-116869463D01*
X102573815Y-116948815D01*
X102494463Y-117045506D01*
X102435498Y-117155820D01*
X102399188Y-117275518D01*
X102386928Y-117400000D01*
X102390000Y-117714250D01*
X102548748Y-117872998D01*
X102540802Y-117872998D01*
X101863225Y-117195422D01*
X101860000Y-117162675D01*
X101860000Y-117162668D01*
X101849003Y-117051015D01*
X101843185Y-117031833D01*
X101805546Y-116907753D01*
X101734974Y-116775724D01*
X101708382Y-116743322D01*
X101640001Y-116659999D01*
X101635000Y-116655895D01*
X101635000Y-116598061D01*
X101595226Y-116398102D01*
X101517205Y-116209744D01*
X101403937Y-116040226D01*
X101259774Y-115896063D01*
X101090256Y-115782795D01*
X100901898Y-115704774D01*
X100701939Y-115665000D01*
X100498061Y-115665000D01*
X100298102Y-115704774D01*
X100109744Y-115782795D01*
X99940226Y-115896063D01*
X99796063Y-116040226D01*
X99682795Y-116209744D01*
X99604774Y-116398102D01*
X99565000Y-116598061D01*
X99565000Y-116801939D01*
X99604774Y-117001898D01*
X99682795Y-117190256D01*
X99796063Y-117359774D01*
X99940226Y-117503937D01*
X99995452Y-117540837D01*
X99956063Y-117580226D01*
X99842795Y-117749744D01*
X99764774Y-117938102D01*
X99725000Y-118138061D01*
X99725000Y-118341939D01*
X99764774Y-118541898D01*
X99842795Y-118730256D01*
X99956063Y-118899774D01*
X100000000Y-118943711D01*
X100000001Y-126221821D01*
X99813368Y-126346525D01*
X99606525Y-126553368D01*
X99490000Y-126727760D01*
X99373475Y-126553368D01*
X99166632Y-126346525D01*
X98923411Y-126184010D01*
X98653158Y-126072068D01*
X98366260Y-126015000D01*
X98073740Y-126015000D01*
X97786842Y-126072068D01*
X97516589Y-126184010D01*
X97273368Y-126346525D01*
X97066525Y-126553368D01*
X96950000Y-126727760D01*
X96833475Y-126553368D01*
X96626632Y-126346525D01*
X96383411Y-126184010D01*
X96113158Y-126072068D01*
X95826260Y-126015000D01*
X95533740Y-126015000D01*
X95246842Y-126072068D01*
X94976589Y-126184010D01*
X94733368Y-126346525D01*
X94526525Y-126553368D01*
X94410000Y-126727760D01*
X94293475Y-126553368D01*
X94086632Y-126346525D01*
X93843411Y-126184010D01*
X93573158Y-126072068D01*
X93286260Y-126015000D01*
X92993740Y-126015000D01*
X92706842Y-126072068D01*
X92436589Y-126184010D01*
X92193368Y-126346525D01*
X91986525Y-126553368D01*
X91870000Y-126727760D01*
X91753475Y-126553368D01*
X91546632Y-126346525D01*
X91303411Y-126184010D01*
X91033158Y-126072068D01*
X90746260Y-126015000D01*
X90453740Y-126015000D01*
X90166842Y-126072068D01*
X89896589Y-126184010D01*
X89653368Y-126346525D01*
X89446525Y-126553368D01*
X89330000Y-126727760D01*
X89213475Y-126553368D01*
X89006632Y-126346525D01*
X88763411Y-126184010D01*
X88493158Y-126072068D01*
X88206260Y-126015000D01*
X87913740Y-126015000D01*
X87626842Y-126072068D01*
X87356589Y-126184010D01*
X87113368Y-126346525D01*
X86906525Y-126553368D01*
X86790000Y-126727760D01*
X86673475Y-126553368D01*
X86466632Y-126346525D01*
X86223411Y-126184010D01*
X85953158Y-126072068D01*
X85666260Y-126015000D01*
X85373740Y-126015000D01*
X85086842Y-126072068D01*
X84816589Y-126184010D01*
X84573368Y-126346525D01*
X84366525Y-126553368D01*
X84250000Y-126727760D01*
X84133475Y-126553368D01*
X83926632Y-126346525D01*
X83683411Y-126184010D01*
X83413158Y-126072068D01*
X83126260Y-126015000D01*
X82833740Y-126015000D01*
X82546842Y-126072068D01*
X82276589Y-126184010D01*
X82033368Y-126346525D01*
X81826525Y-126553368D01*
X81710000Y-126727760D01*
X81593475Y-126553368D01*
X81386632Y-126346525D01*
X81143411Y-126184010D01*
X80873158Y-126072068D01*
X80586260Y-126015000D01*
X80293740Y-126015000D01*
X80006842Y-126072068D01*
X79736589Y-126184010D01*
X79493368Y-126346525D01*
X79286525Y-126553368D01*
X79170000Y-126727760D01*
X79053475Y-126553368D01*
X78846632Y-126346525D01*
X78603411Y-126184010D01*
X78333158Y-126072068D01*
X78046260Y-126015000D01*
X77753740Y-126015000D01*
X77466842Y-126072068D01*
X77196589Y-126184010D01*
X76953368Y-126346525D01*
X76746525Y-126553368D01*
X76630000Y-126727760D01*
X76513475Y-126553368D01*
X76306632Y-126346525D01*
X76063411Y-126184010D01*
X75793158Y-126072068D01*
X75506260Y-126015000D01*
X75213740Y-126015000D01*
X74926842Y-126072068D01*
X74656589Y-126184010D01*
X74413368Y-126346525D01*
X74206525Y-126553368D01*
X74090000Y-126727760D01*
X73973475Y-126553368D01*
X73766632Y-126346525D01*
X73523411Y-126184010D01*
X73253158Y-126072068D01*
X72966260Y-126015000D01*
X72673740Y-126015000D01*
X72386842Y-126072068D01*
X72116589Y-126184010D01*
X71873368Y-126346525D01*
X71666525Y-126553368D01*
X71550000Y-126727760D01*
X71433475Y-126553368D01*
X71226632Y-126346525D01*
X70983411Y-126184010D01*
X70713158Y-126072068D01*
X70426260Y-126015000D01*
X70133740Y-126015000D01*
X69846842Y-126072068D01*
X69576589Y-126184010D01*
X69333368Y-126346525D01*
X69126525Y-126553368D01*
X69010000Y-126727760D01*
X68893475Y-126553368D01*
X68686632Y-126346525D01*
X68443411Y-126184010D01*
X68173158Y-126072068D01*
X67886260Y-126015000D01*
X67593740Y-126015000D01*
X67306842Y-126072068D01*
X67036589Y-126184010D01*
X66793368Y-126346525D01*
X66586525Y-126553368D01*
X66470000Y-126727760D01*
X66353475Y-126553368D01*
X66146632Y-126346525D01*
X65903411Y-126184010D01*
X65633158Y-126072068D01*
X65346260Y-126015000D01*
X65053740Y-126015000D01*
X64766842Y-126072068D01*
X64496589Y-126184010D01*
X64253368Y-126346525D01*
X64046525Y-126553368D01*
X63930000Y-126727760D01*
X63813475Y-126553368D01*
X63606632Y-126346525D01*
X63363411Y-126184010D01*
X63093158Y-126072068D01*
X62806260Y-126015000D01*
X62513740Y-126015000D01*
X62226842Y-126072068D01*
X61956589Y-126184010D01*
X61713368Y-126346525D01*
X61506525Y-126553368D01*
X61390000Y-126727760D01*
X61273475Y-126553368D01*
X61066632Y-126346525D01*
X60823411Y-126184010D01*
X60553158Y-126072068D01*
X60266260Y-126015000D01*
X59973740Y-126015000D01*
X59686842Y-126072068D01*
X59416589Y-126184010D01*
X59173368Y-126346525D01*
X58966525Y-126553368D01*
X58850000Y-126727760D01*
X58733475Y-126553368D01*
X58526632Y-126346525D01*
X58283411Y-126184010D01*
X58013158Y-126072068D01*
X57726260Y-126015000D01*
X57433740Y-126015000D01*
X57146842Y-126072068D01*
X56876589Y-126184010D01*
X56633368Y-126346525D01*
X56426525Y-126553368D01*
X56310000Y-126727760D01*
X56193475Y-126553368D01*
X55986632Y-126346525D01*
X55743411Y-126184010D01*
X55473158Y-126072068D01*
X55186260Y-126015000D01*
X54893740Y-126015000D01*
X54606842Y-126072068D01*
X54336589Y-126184010D01*
X54093368Y-126346525D01*
X53961513Y-126478380D01*
X53939502Y-126405820D01*
X53880537Y-126295506D01*
X53801185Y-126198815D01*
X53704494Y-126119463D01*
X53594180Y-126060498D01*
X53474482Y-126024188D01*
X53350000Y-126011928D01*
X52785750Y-126015000D01*
X52627000Y-126173750D01*
X52373000Y-126173750D01*
X52214250Y-126015000D01*
X51650000Y-126011928D01*
X51525518Y-126024188D01*
X51405820Y-126060498D01*
X51295506Y-126119463D01*
X51198815Y-126198815D01*
X51119463Y-126295506D01*
X51060498Y-126405820D01*
X51024188Y-126525518D01*
X51011928Y-126650000D01*
X50685000Y-126650000D01*
X50685000Y-114600000D01*
X55984025Y-114600000D01*
X56007870Y-114842102D01*
X56078489Y-115074901D01*
X56193167Y-115289449D01*
X56347498Y-115477502D01*
X56496762Y-115600000D01*
X56347498Y-115722498D01*
X56193167Y-115910551D01*
X56078489Y-116125099D01*
X56007870Y-116357898D01*
X55984025Y-116600000D01*
X56007870Y-116842102D01*
X56078489Y-117074901D01*
X56193167Y-117289449D01*
X56347498Y-117477502D01*
X56496762Y-117600000D01*
X56347498Y-117722498D01*
X56193167Y-117910551D01*
X56078489Y-118125099D01*
X56007870Y-118357898D01*
X55984025Y-118600000D01*
X56007870Y-118842102D01*
X56078489Y-119074901D01*
X56193167Y-119289449D01*
X56347498Y-119477502D01*
X56496762Y-119600000D01*
X56347498Y-119722498D01*
X56193167Y-119910551D01*
X56078489Y-120125099D01*
X56007870Y-120357898D01*
X55984025Y-120600000D01*
X56007870Y-120842102D01*
X56078489Y-121074901D01*
X56193167Y-121289449D01*
X56347498Y-121477502D01*
X56535551Y-121631833D01*
X56750099Y-121746511D01*
X56982898Y-121817130D01*
X57164335Y-121835000D01*
X57835665Y-121835000D01*
X58017102Y-121817130D01*
X58249901Y-121746511D01*
X58464449Y-121631833D01*
X58652502Y-121477502D01*
X58806833Y-121289449D01*
X58921511Y-121074901D01*
X58992130Y-120842102D01*
X59015975Y-120600000D01*
X58992130Y-120357898D01*
X58921511Y-120125099D01*
X58806833Y-119910551D01*
X58652502Y-119722498D01*
X58503238Y-119600000D01*
X58652502Y-119477502D01*
X58806833Y-119289449D01*
X58921511Y-119074901D01*
X58992130Y-118842102D01*
X59015975Y-118600000D01*
X58992130Y-118357898D01*
X58921511Y-118125099D01*
X58806833Y-117910551D01*
X58652502Y-117722498D01*
X58503238Y-117600000D01*
X58652502Y-117477502D01*
X58806833Y-117289449D01*
X58921511Y-117074901D01*
X58992130Y-116842102D01*
X59015975Y-116600000D01*
X58992130Y-116357898D01*
X58921511Y-116125099D01*
X58806833Y-115910551D01*
X58652502Y-115722498D01*
X58503238Y-115600000D01*
X58652502Y-115477502D01*
X58806833Y-115289449D01*
X58921511Y-115074901D01*
X58992130Y-114842102D01*
X59015975Y-114600000D01*
X58992130Y-114357898D01*
X58921511Y-114125099D01*
X58806833Y-113910551D01*
X58652502Y-113722498D01*
X58502652Y-113599519D01*
X58566725Y-113556307D01*
X58738078Y-113383474D01*
X58872421Y-113180533D01*
X58964591Y-112955282D01*
X58968462Y-112917609D01*
X58843731Y-112727000D01*
X57627000Y-112727000D01*
X57627000Y-112747000D01*
X57373000Y-112747000D01*
X57373000Y-112727000D01*
X56156269Y-112727000D01*
X56031538Y-112917609D01*
X56035409Y-112955282D01*
X56127579Y-113180533D01*
X56261922Y-113383474D01*
X56433275Y-113556307D01*
X56497348Y-113599519D01*
X56347498Y-113722498D01*
X56193167Y-113910551D01*
X56078489Y-114125099D01*
X56007870Y-114357898D01*
X55984025Y-114600000D01*
X50685000Y-114600000D01*
X50685000Y-110600000D01*
X55984025Y-110600000D01*
X56007870Y-110842102D01*
X56078489Y-111074901D01*
X56193167Y-111289449D01*
X56347498Y-111477502D01*
X56497348Y-111600481D01*
X56433275Y-111643693D01*
X56261922Y-111816526D01*
X56127579Y-112019467D01*
X56035409Y-112244718D01*
X56031538Y-112282391D01*
X56156269Y-112473000D01*
X57373000Y-112473000D01*
X57373000Y-112453000D01*
X57627000Y-112453000D01*
X57627000Y-112473000D01*
X58843731Y-112473000D01*
X58968462Y-112282391D01*
X58964591Y-112244718D01*
X58872421Y-112019467D01*
X58738078Y-111816526D01*
X58566725Y-111643693D01*
X58502652Y-111600481D01*
X58652502Y-111477502D01*
X58806833Y-111289449D01*
X58921511Y-111074901D01*
X58992130Y-110842102D01*
X59015975Y-110600000D01*
X58992130Y-110357898D01*
X58921511Y-110125099D01*
X58806833Y-109910551D01*
X58652502Y-109722498D01*
X58613889Y-109690809D01*
X58618387Y-109688405D01*
X58752962Y-109577962D01*
X58863405Y-109443387D01*
X58945472Y-109289851D01*
X58996008Y-109123255D01*
X59013072Y-108950001D01*
X59013072Y-108249999D01*
X58996008Y-108076745D01*
X58945472Y-107910149D01*
X58863405Y-107756613D01*
X58752962Y-107622038D01*
X58618387Y-107511595D01*
X58464851Y-107429528D01*
X58298255Y-107378992D01*
X58125001Y-107361928D01*
X56874999Y-107361928D01*
X56701745Y-107378992D01*
X56535149Y-107429528D01*
X56381613Y-107511595D01*
X56247038Y-107622038D01*
X56136595Y-107756613D01*
X56054528Y-107910149D01*
X56003992Y-108076745D01*
X55986928Y-108249999D01*
X55986928Y-108950001D01*
X56003992Y-109123255D01*
X56054528Y-109289851D01*
X56136595Y-109443387D01*
X56247038Y-109577962D01*
X56381613Y-109688405D01*
X56386111Y-109690809D01*
X56347498Y-109722498D01*
X56193167Y-109910551D01*
X56078489Y-110125099D01*
X56007870Y-110357898D01*
X55984025Y-110600000D01*
X50685000Y-110600000D01*
X50685000Y-102650000D01*
X51071928Y-102650000D01*
X51084188Y-102774482D01*
X51120498Y-102894180D01*
X51179463Y-103004494D01*
X51258815Y-103101185D01*
X51355506Y-103180537D01*
X51465820Y-103239502D01*
X51585518Y-103275812D01*
X51710000Y-103288072D01*
X52274250Y-103285000D01*
X52433000Y-103126250D01*
X52433000Y-101927000D01*
X51233750Y-101927000D01*
X51075000Y-102085750D01*
X51071928Y-102650000D01*
X50685000Y-102650000D01*
X50685000Y-100950000D01*
X51071928Y-100950000D01*
X51075000Y-101514250D01*
X51233750Y-101673000D01*
X52433000Y-101673000D01*
X52433000Y-100473750D01*
X52687000Y-100473750D01*
X52687000Y-101673000D01*
X52707000Y-101673000D01*
X52707000Y-101927000D01*
X52687000Y-101927000D01*
X52687000Y-103126250D01*
X52845750Y-103285000D01*
X53410000Y-103288072D01*
X53534482Y-103275812D01*
X53654180Y-103239502D01*
X53764494Y-103180537D01*
X53861185Y-103101185D01*
X53940537Y-103004494D01*
X53999502Y-102894180D01*
X54021513Y-102821620D01*
X54153368Y-102953475D01*
X54396589Y-103115990D01*
X54666842Y-103227932D01*
X54953740Y-103285000D01*
X55246260Y-103285000D01*
X55533158Y-103227932D01*
X55803411Y-103115990D01*
X56046632Y-102953475D01*
X56253475Y-102746632D01*
X56370000Y-102572240D01*
X56486525Y-102746632D01*
X56693368Y-102953475D01*
X56936589Y-103115990D01*
X57206842Y-103227932D01*
X57493740Y-103285000D01*
X57786260Y-103285000D01*
X58073158Y-103227932D01*
X58343411Y-103115990D01*
X58586632Y-102953475D01*
X58793475Y-102746632D01*
X58910000Y-102572240D01*
X59026525Y-102746632D01*
X59233368Y-102953475D01*
X59476589Y-103115990D01*
X59746842Y-103227932D01*
X60033740Y-103285000D01*
X60326260Y-103285000D01*
X60613158Y-103227932D01*
X60883411Y-103115990D01*
X61126632Y-102953475D01*
X61333475Y-102746632D01*
X61450000Y-102572240D01*
X61566525Y-102746632D01*
X61773368Y-102953475D01*
X62016589Y-103115990D01*
X62286842Y-103227932D01*
X62573740Y-103285000D01*
X62866260Y-103285000D01*
X63153158Y-103227932D01*
X63423411Y-103115990D01*
X63666632Y-102953475D01*
X63873475Y-102746632D01*
X63990000Y-102572240D01*
X64106525Y-102746632D01*
X64313368Y-102953475D01*
X64556589Y-103115990D01*
X64826842Y-103227932D01*
X65113740Y-103285000D01*
X65406260Y-103285000D01*
X65693158Y-103227932D01*
X65963411Y-103115990D01*
X66206632Y-102953475D01*
X66413475Y-102746632D01*
X66530000Y-102572240D01*
X66646525Y-102746632D01*
X66853368Y-102953475D01*
X67096589Y-103115990D01*
X67366842Y-103227932D01*
X67653740Y-103285000D01*
X67946260Y-103285000D01*
X68233158Y-103227932D01*
X68503411Y-103115990D01*
X68746632Y-102953475D01*
X68953475Y-102746632D01*
X69070000Y-102572240D01*
X69186525Y-102746632D01*
X69393368Y-102953475D01*
X69636589Y-103115990D01*
X69906842Y-103227932D01*
X70193740Y-103285000D01*
X70486260Y-103285000D01*
X70773158Y-103227932D01*
X71043411Y-103115990D01*
X71286632Y-102953475D01*
X71493475Y-102746632D01*
X71610000Y-102572240D01*
X71726525Y-102746632D01*
X71933368Y-102953475D01*
X72176589Y-103115990D01*
X72446842Y-103227932D01*
X72733740Y-103285000D01*
X73026260Y-103285000D01*
X73313158Y-103227932D01*
X73583411Y-103115990D01*
X73826632Y-102953475D01*
X74033475Y-102746632D01*
X74150000Y-102572240D01*
X74266525Y-102746632D01*
X74473368Y-102953475D01*
X74716589Y-103115990D01*
X74986842Y-103227932D01*
X75273740Y-103285000D01*
X75566260Y-103285000D01*
X75853158Y-103227932D01*
X76123411Y-103115990D01*
X76366632Y-102953475D01*
X76573475Y-102746632D01*
X76690000Y-102572240D01*
X76806525Y-102746632D01*
X77013368Y-102953475D01*
X77256589Y-103115990D01*
X77526842Y-103227932D01*
X77813740Y-103285000D01*
X78106260Y-103285000D01*
X78393158Y-103227932D01*
X78663411Y-103115990D01*
X78906632Y-102953475D01*
X79113475Y-102746632D01*
X79230000Y-102572240D01*
X79346525Y-102746632D01*
X79553368Y-102953475D01*
X79796589Y-103115990D01*
X80066842Y-103227932D01*
X80353740Y-103285000D01*
X80646260Y-103285000D01*
X80933158Y-103227932D01*
X81203411Y-103115990D01*
X81446632Y-102953475D01*
X81653475Y-102746632D01*
X81770000Y-102572240D01*
X81886525Y-102746632D01*
X82093368Y-102953475D01*
X82336589Y-103115990D01*
X82606842Y-103227932D01*
X82893740Y-103285000D01*
X83186260Y-103285000D01*
X83473158Y-103227932D01*
X83743411Y-103115990D01*
X83986632Y-102953475D01*
X84193475Y-102746632D01*
X84310000Y-102572240D01*
X84426525Y-102746632D01*
X84633368Y-102953475D01*
X84876589Y-103115990D01*
X85146842Y-103227932D01*
X85433740Y-103285000D01*
X85726260Y-103285000D01*
X86013158Y-103227932D01*
X86283411Y-103115990D01*
X86526632Y-102953475D01*
X86733475Y-102746632D01*
X86850000Y-102572240D01*
X86966525Y-102746632D01*
X87173368Y-102953475D01*
X87416589Y-103115990D01*
X87686842Y-103227932D01*
X87973740Y-103285000D01*
X88266260Y-103285000D01*
X88553158Y-103227932D01*
X88823411Y-103115990D01*
X89066632Y-102953475D01*
X89273475Y-102746632D01*
X89390000Y-102572240D01*
X89506525Y-102746632D01*
X89713368Y-102953475D01*
X89956589Y-103115990D01*
X90226842Y-103227932D01*
X90513740Y-103285000D01*
X90806260Y-103285000D01*
X91093158Y-103227932D01*
X91363411Y-103115990D01*
X91606632Y-102953475D01*
X91813475Y-102746632D01*
X91930000Y-102572240D01*
X92046525Y-102746632D01*
X92253368Y-102953475D01*
X92496589Y-103115990D01*
X92766842Y-103227932D01*
X93053740Y-103285000D01*
X93346260Y-103285000D01*
X93633158Y-103227932D01*
X93903411Y-103115990D01*
X94146632Y-102953475D01*
X94353475Y-102746632D01*
X94470000Y-102572240D01*
X94586525Y-102746632D01*
X94793368Y-102953475D01*
X95036589Y-103115990D01*
X95306842Y-103227932D01*
X95593740Y-103285000D01*
X95886260Y-103285000D01*
X96173158Y-103227932D01*
X96443411Y-103115990D01*
X96686632Y-102953475D01*
X96893475Y-102746632D01*
X97010000Y-102572240D01*
X97126525Y-102746632D01*
X97333368Y-102953475D01*
X97576589Y-103115990D01*
X97846842Y-103227932D01*
X98133740Y-103285000D01*
X98426260Y-103285000D01*
X98713158Y-103227932D01*
X98983411Y-103115990D01*
X99226632Y-102953475D01*
X99433475Y-102746632D01*
X99550000Y-102572240D01*
X99666525Y-102746632D01*
X99873368Y-102953475D01*
X100116589Y-103115990D01*
X100386842Y-103227932D01*
X100673740Y-103285000D01*
X100966260Y-103285000D01*
X101253158Y-103227932D01*
X101523411Y-103115990D01*
X101766632Y-102953475D01*
X101973475Y-102746632D01*
X102090000Y-102572240D01*
X102206525Y-102746632D01*
X102413368Y-102953475D01*
X102656589Y-103115990D01*
X102926842Y-103227932D01*
X103213740Y-103285000D01*
X103506260Y-103285000D01*
X103793158Y-103227932D01*
X104063411Y-103115990D01*
X104306632Y-102953475D01*
X104513475Y-102746632D01*
X104630000Y-102572240D01*
X104746525Y-102746632D01*
X104953368Y-102953475D01*
X105196589Y-103115990D01*
X105466842Y-103227932D01*
X105753740Y-103285000D01*
X106046260Y-103285000D01*
X106333158Y-103227932D01*
X106603411Y-103115990D01*
X106846632Y-102953475D01*
X107053475Y-102746632D01*
X107175195Y-102564466D01*
X107244822Y-102681355D01*
X107439731Y-102897588D01*
X107673080Y-103071641D01*
X107935901Y-103196825D01*
X108083110Y-103241476D01*
X108313000Y-103120155D01*
X108313000Y-101927000D01*
X108567000Y-101927000D01*
X108567000Y-103120155D01*
X108796890Y-103241476D01*
X108944099Y-103196825D01*
X109206920Y-103071641D01*
X109440269Y-102897588D01*
X109635178Y-102681355D01*
X109784157Y-102431252D01*
X109881481Y-102156891D01*
X109760814Y-101927000D01*
X108567000Y-101927000D01*
X108313000Y-101927000D01*
X108293000Y-101927000D01*
X108293000Y-101673000D01*
X108313000Y-101673000D01*
X108313000Y-100479845D01*
X108567000Y-100479845D01*
X108567000Y-101673000D01*
X109760814Y-101673000D01*
X109881481Y-101443109D01*
X109784157Y-101168748D01*
X109635178Y-100918645D01*
X109440269Y-100702412D01*
X109206920Y-100528359D01*
X108944099Y-100403175D01*
X108796890Y-100358524D01*
X108567000Y-100479845D01*
X108313000Y-100479845D01*
X108083110Y-100358524D01*
X107935901Y-100403175D01*
X107673080Y-100528359D01*
X107439731Y-100702412D01*
X107244822Y-100918645D01*
X107175195Y-101035534D01*
X107053475Y-100853368D01*
X106846632Y-100646525D01*
X106603411Y-100484010D01*
X106333158Y-100372068D01*
X106046260Y-100315000D01*
X105753740Y-100315000D01*
X105466842Y-100372068D01*
X105196589Y-100484010D01*
X104953368Y-100646525D01*
X104746525Y-100853368D01*
X104630000Y-101027760D01*
X104513475Y-100853368D01*
X104306632Y-100646525D01*
X104063411Y-100484010D01*
X103793158Y-100372068D01*
X103506260Y-100315000D01*
X103213740Y-100315000D01*
X102926842Y-100372068D01*
X102656589Y-100484010D01*
X102413368Y-100646525D01*
X102206525Y-100853368D01*
X102090000Y-101027760D01*
X101973475Y-100853368D01*
X101766632Y-100646525D01*
X101523411Y-100484010D01*
X101253158Y-100372068D01*
X100966260Y-100315000D01*
X100673740Y-100315000D01*
X100386842Y-100372068D01*
X100116589Y-100484010D01*
X99873368Y-100646525D01*
X99666525Y-100853368D01*
X99550000Y-101027760D01*
X99433475Y-100853368D01*
X99226632Y-100646525D01*
X98983411Y-100484010D01*
X98713158Y-100372068D01*
X98426260Y-100315000D01*
X98133740Y-100315000D01*
X97846842Y-100372068D01*
X97576589Y-100484010D01*
X97333368Y-100646525D01*
X97126525Y-100853368D01*
X97010000Y-101027760D01*
X96893475Y-100853368D01*
X96686632Y-100646525D01*
X96443411Y-100484010D01*
X96173158Y-100372068D01*
X95886260Y-100315000D01*
X95593740Y-100315000D01*
X95306842Y-100372068D01*
X95036589Y-100484010D01*
X94793368Y-100646525D01*
X94586525Y-100853368D01*
X94470000Y-101027760D01*
X94353475Y-100853368D01*
X94146632Y-100646525D01*
X93903411Y-100484010D01*
X93633158Y-100372068D01*
X93346260Y-100315000D01*
X93053740Y-100315000D01*
X92766842Y-100372068D01*
X92496589Y-100484010D01*
X92253368Y-100646525D01*
X92046525Y-100853368D01*
X91930000Y-101027760D01*
X91813475Y-100853368D01*
X91606632Y-100646525D01*
X91363411Y-100484010D01*
X91093158Y-100372068D01*
X90806260Y-100315000D01*
X90513740Y-100315000D01*
X90226842Y-100372068D01*
X89956589Y-100484010D01*
X89713368Y-100646525D01*
X89506525Y-100853368D01*
X89390000Y-101027760D01*
X89273475Y-100853368D01*
X89066632Y-100646525D01*
X88823411Y-100484010D01*
X88553158Y-100372068D01*
X88266260Y-100315000D01*
X87973740Y-100315000D01*
X87686842Y-100372068D01*
X87416589Y-100484010D01*
X87173368Y-100646525D01*
X86966525Y-100853368D01*
X86850000Y-101027760D01*
X86733475Y-100853368D01*
X86526632Y-100646525D01*
X86283411Y-100484010D01*
X86013158Y-100372068D01*
X85726260Y-100315000D01*
X85433740Y-100315000D01*
X85146842Y-100372068D01*
X84876589Y-100484010D01*
X84633368Y-100646525D01*
X84426525Y-100853368D01*
X84310000Y-101027760D01*
X84193475Y-100853368D01*
X83986632Y-100646525D01*
X83743411Y-100484010D01*
X83473158Y-100372068D01*
X83186260Y-100315000D01*
X82893740Y-100315000D01*
X82606842Y-100372068D01*
X82336589Y-100484010D01*
X82093368Y-100646525D01*
X81886525Y-100853368D01*
X81770000Y-101027760D01*
X81653475Y-100853368D01*
X81446632Y-100646525D01*
X81203411Y-100484010D01*
X80933158Y-100372068D01*
X80646260Y-100315000D01*
X80353740Y-100315000D01*
X80066842Y-100372068D01*
X79796589Y-100484010D01*
X79553368Y-100646525D01*
X79346525Y-100853368D01*
X79230000Y-101027760D01*
X79113475Y-100853368D01*
X78906632Y-100646525D01*
X78663411Y-100484010D01*
X78393158Y-100372068D01*
X78106260Y-100315000D01*
X77813740Y-100315000D01*
X77526842Y-100372068D01*
X77256589Y-100484010D01*
X77013368Y-100646525D01*
X76806525Y-100853368D01*
X76690000Y-101027760D01*
X76573475Y-100853368D01*
X76366632Y-100646525D01*
X76123411Y-100484010D01*
X75853158Y-100372068D01*
X75566260Y-100315000D01*
X75273740Y-100315000D01*
X74986842Y-100372068D01*
X74716589Y-100484010D01*
X74473368Y-100646525D01*
X74266525Y-100853368D01*
X74150000Y-101027760D01*
X74033475Y-100853368D01*
X73826632Y-100646525D01*
X73583411Y-100484010D01*
X73313158Y-100372068D01*
X73026260Y-100315000D01*
X72733740Y-100315000D01*
X72446842Y-100372068D01*
X72176589Y-100484010D01*
X71933368Y-100646525D01*
X71726525Y-100853368D01*
X71610000Y-101027760D01*
X71493475Y-100853368D01*
X71286632Y-100646525D01*
X71043411Y-100484010D01*
X70773158Y-100372068D01*
X70486260Y-100315000D01*
X70193740Y-100315000D01*
X69906842Y-100372068D01*
X69636589Y-100484010D01*
X69393368Y-100646525D01*
X69186525Y-100853368D01*
X69070000Y-101027760D01*
X68953475Y-100853368D01*
X68746632Y-100646525D01*
X68503411Y-100484010D01*
X68233158Y-100372068D01*
X67946260Y-100315000D01*
X67653740Y-100315000D01*
X67366842Y-100372068D01*
X67096589Y-100484010D01*
X66853368Y-100646525D01*
X66646525Y-100853368D01*
X66530000Y-101027760D01*
X66413475Y-100853368D01*
X66206632Y-100646525D01*
X65963411Y-100484010D01*
X65693158Y-100372068D01*
X65406260Y-100315000D01*
X65113740Y-100315000D01*
X64826842Y-100372068D01*
X64556589Y-100484010D01*
X64313368Y-100646525D01*
X64106525Y-100853368D01*
X63990000Y-101027760D01*
X63873475Y-100853368D01*
X63666632Y-100646525D01*
X63423411Y-100484010D01*
X63153158Y-100372068D01*
X62866260Y-100315000D01*
X62573740Y-100315000D01*
X62286842Y-100372068D01*
X62016589Y-100484010D01*
X61773368Y-100646525D01*
X61566525Y-100853368D01*
X61450000Y-101027760D01*
X61333475Y-100853368D01*
X61126632Y-100646525D01*
X60883411Y-100484010D01*
X60613158Y-100372068D01*
X60326260Y-100315000D01*
X60033740Y-100315000D01*
X59746842Y-100372068D01*
X59476589Y-100484010D01*
X59233368Y-100646525D01*
X59026525Y-100853368D01*
X58910000Y-101027760D01*
X58793475Y-100853368D01*
X58586632Y-100646525D01*
X58343411Y-100484010D01*
X58073158Y-100372068D01*
X57786260Y-100315000D01*
X57493740Y-100315000D01*
X57206842Y-100372068D01*
X56936589Y-100484010D01*
X56693368Y-100646525D01*
X56486525Y-100853368D01*
X56370000Y-101027760D01*
X56253475Y-100853368D01*
X56046632Y-100646525D01*
X55803411Y-100484010D01*
X55533158Y-100372068D01*
X55246260Y-100315000D01*
X54953740Y-100315000D01*
X54666842Y-100372068D01*
X54396589Y-100484010D01*
X54153368Y-100646525D01*
X54021513Y-100778380D01*
X53999502Y-100705820D01*
X53940537Y-100595506D01*
X53861185Y-100498815D01*
X53764494Y-100419463D01*
X53654180Y-100360498D01*
X53534482Y-100324188D01*
X53410000Y-100311928D01*
X52845750Y-100315000D01*
X52687000Y-100473750D01*
X52433000Y-100473750D01*
X52274250Y-100315000D01*
X51710000Y-100311928D01*
X51585518Y-100324188D01*
X51465820Y-100360498D01*
X51355506Y-100419463D01*
X51258815Y-100498815D01*
X51179463Y-100595506D01*
X51120498Y-100705820D01*
X51084188Y-100825518D01*
X51071928Y-100950000D01*
X50685000Y-100950000D01*
X50685000Y-100185000D01*
X110315001Y-100185000D01*
X110315000Y-129315000D01*
G37*
%TD.AperFunction*%
%TD*%
D18*
X63700000Y-105600000D03*
X63700000Y-123500000D03*
X108400000Y-105740000D03*
X108200000Y-123700000D03*
X100600000Y-116700000D03*
X100760000Y-118240000D03*
X57500000Y-120600000D03*
X57500000Y-118600000D03*
X57500000Y-116600000D03*
X57500000Y-114600000D03*
X57500000Y-112600000D03*
X57500000Y-110600000D03*
X57500000Y-108600000D03*
X103900000Y-112000000D03*
X103900000Y-114000000D03*
X103900000Y-116000000D03*
X103900000Y-118000000D03*
X108440000Y-101800000D03*
X105900000Y-101800000D03*
X103360000Y-101800000D03*
X100820000Y-101800000D03*
X98280000Y-101800000D03*
X95740000Y-101800000D03*
X93200000Y-101800000D03*
X90660000Y-101800000D03*
X88120000Y-101800000D03*
X85580000Y-101800000D03*
X83040000Y-101800000D03*
X80500000Y-101800000D03*
X77960000Y-101800000D03*
X75420000Y-101800000D03*
X72880000Y-101800000D03*
X70340000Y-101800000D03*
X67800000Y-101800000D03*
X65260000Y-101800000D03*
X62720000Y-101800000D03*
X60180000Y-101800000D03*
X57640000Y-101800000D03*
X55100000Y-101800000D03*
X52560000Y-101800000D03*
X108380000Y-127500000D03*
X105840000Y-127500000D03*
X103300000Y-127500000D03*
X100760000Y-127500000D03*
X98220000Y-127500000D03*
X95680000Y-127500000D03*
X93140000Y-127500000D03*
X90600000Y-127500000D03*
X88060000Y-127500000D03*
X85520000Y-127500000D03*
X82980000Y-127500000D03*
X80440000Y-127500000D03*
X77900000Y-127500000D03*
X75360000Y-127500000D03*
X72820000Y-127500000D03*
X70280000Y-127500000D03*
X67740000Y-127500000D03*
X65200000Y-127500000D03*
X62660000Y-127500000D03*
X60120000Y-127500000D03*
X57580000Y-127500000D03*
X55040000Y-127500000D03*
X52500000Y-127500000D03*
M02*
